<svg width="30" height="30" viewBox="0 0 30 30" fill="none" xmlns="http://www.w3.org/2000/svg">
<rect width="30" height="30" rx="5" fill="#F2F2F2"/>
<path d="M8.3998 13.8001C8.24067 13.8001 8.08806 13.7369 7.97554 13.6243C7.86302 13.5118 7.7998 13.3592 7.7998 13.2001V8.40127C7.7998 8.24214 7.86302 8.08953 7.97554 7.97701C8.08806 7.86448 8.24067 7.80127 8.3998 7.80127H13.1998C13.3589 7.80127 13.5115 7.86448 13.6241 7.97701C13.7366 8.08953 13.7998 8.24214 13.7998 8.40127V13.2001C13.7998 13.3592 13.7366 13.5118 13.6241 13.6243C13.5115 13.7369 13.3589 13.8001 13.1998 13.8001H8.3998ZM16.7998 13.8001C16.6407 13.8001 16.4881 13.7369 16.3755 13.6243C16.263 13.5118 16.1998 13.3592 16.1998 13.2001V8.40127C16.1998 8.24214 16.263 8.08953 16.3755 7.97701C16.4881 7.86448 16.6407 7.80127 16.7998 7.80127H21.5986C21.7577 7.80127 21.9103 7.86448 22.0229 7.97701C22.1354 8.08953 22.1986 8.24214 22.1986 8.40127V13.2001C22.1986 13.3592 22.1354 13.5118 22.0229 13.6243C21.9103 13.7369 21.7577 13.8001 21.5986 13.8001H16.7998ZM8.3998 22.2001C8.24067 22.2001 8.08806 22.1369 7.97554 22.0243C7.86302 21.9118 7.7998 21.7592 7.7998 21.6001V16.8001C7.7998 16.6409 7.86302 16.4883 7.97554 16.3758C8.08806 16.2633 8.24067 16.2001 8.3998 16.2001H13.1998C13.3589 16.2001 13.5115 16.2633 13.6241 16.3758C13.7366 16.4883 13.7998 16.6409 13.7998 16.8001V21.6001C13.7998 21.7592 13.7366 21.9118 13.6241 22.0243C13.5115 22.1369 13.3589 22.2001 13.1998 22.2001H8.3998ZM16.7998 22.2001C16.6407 22.2001 16.4881 22.1369 16.3755 22.0243C16.263 21.9118 16.1998 21.7592 16.1998 21.6001V16.8001C16.1998 16.6409 16.263 16.4883 16.3755 16.3758C16.4881 16.2633 16.6407 16.2001 16.7998 16.2001H21.5986C21.7577 16.2001 21.9103 16.2633 22.0229 16.3758C22.1354 16.4883 22.1986 16.6409 22.1986 16.8001V21.6001C22.1986 21.7592 22.1354 21.9118 22.0229 22.0243C21.9103 22.1369 21.7577 22.2001 21.5986 22.2001H16.7998Z" fill="#333333"/>
</svg>
