<svg width="36" height="29" viewBox="0 0 36 29" fill="none" xmlns="http://www.w3.org/2000/svg">
<path d="M18.875 12.6875C18.875 13.75 18.1875 14.375 17.0625 14.375H15.5V11H17.0625C18.1875 11 18.875 11.625 18.875 12.6875ZM21.8125 16.5625C21.8125 17.125 22.25 17.4375 23 17.4375C23.875 17.4375 24.5625 16.875 24.5625 16.0625V15.625L23.0625 15.6875C22.25 15.75 21.8125 16.0625 21.8125 16.5625ZM36 3.9375V25.9375C36 27.625 34.625 28.9375 33 28.9375H3C1.3125 28.9375 0 27.625 0 25.9375V3.9375C0 2.3125 1.3125 0.9375 3 0.9375H33C34.625 0.9375 36 2.3125 36 3.9375ZM7.9375 11.375C8.5 11.375 9 11.0625 9.3125 10.6875C9.6875 10.3125 9.875 9.75 9.8125 9.25C9.375 9.25 8.8125 9.5 8.4375 9.9375C8.125 10.25 7.875 10.8125 7.9375 11.375ZM11.75 16C11.75 16 10.5 15.5625 10.5 14.125C10.5 12.9375 11.4375 12.375 11.5 12.375C10.9375 11.5625 10.125 11.5 9.8125 11.4375C9.0625 11.4375 8.375 11.875 8.0625 11.875C7.6875 11.875 7.125 11.5 6.5 11.5C5.75 11.5 5 11.9375 4.625 12.625C3.8125 14.0625 4.375 16.125 5.1875 17.3125C5.5625 17.875 6.0625 18.5 6.6875 18.4375C7.25 18.4375 7.5 18.0625 8.1875 18.0625C8.875 18.0625 9.0625 18.4375 9.6875 18.4375C10.3125 18.4375 10.75 17.875 11.125 17.3125C11.5625 16.6875 11.75 16.0625 11.75 16ZM20.1875 12.6875C20.1875 11 19.0625 9.875 17.375 9.875H14.1875V18.375H15.5V15.5H17.375C19.0625 15.5 20.1875 14.3125 20.1875 12.6875ZM25.8125 14.125C25.8125 12.9375 24.875 12.125 23.3125 12.125C21.9375 12.125 20.875 12.9375 20.875 14.0625H22.0625C22.125 13.5 22.625 13.1875 23.3125 13.1875C24.125 13.1875 24.5625 13.5625 24.5625 14.25V14.6875L22.9375 14.8125C21.375 14.875 20.5625 15.5625 20.5625 16.625C20.5625 17.75 21.375 18.4375 22.625 18.4375C23.4375 18.4375 24.25 18.0625 24.5625 17.375H24.625V18.375H25.8125V14.125ZM32.25 12.1875H30.875L29.3125 17.25L27.75 12.1875H26.375L28.5625 18.4375L28.5 18.8125C28.25 19.4375 27.9375 19.6875 27.375 19.6875C27.25 19.6875 27.0625 19.6875 26.9375 19.6875V20.6875C27.0625 20.6875 27.375 20.6875 27.5 20.6875C28.75 20.6875 29.375 20.25 29.875 18.75L32.25 12.1875Z" fill="#8B5AB0"/>
</svg>
