<svg width="36" height="28" viewBox="0 0 36 28" fill="none" xmlns="http://www.w3.org/2000/svg">
<path d="M0 25V3C0 1.375 1.3125 0 3 0H33C34.625 0 36 1.375 36 3V3.1875H31.25L30.1875 6.125L29.125 3.1875H23.0625V7.125L21.3125 3.1875H16.375L11.3125 14.75H15.375V24.9375H28.125L30.125 22.75L32.125 24.9375H36V25C36 26.6875 34.625 28 33 28H3C1.3125 28 0 26.6875 0 25ZM27.5 23.6875H16.75V14.75H24.375V16.8125H19.1875V18.1875H24.25V20.1875H19.1875V21.625H24.375V23.6875L28.625 19.1875L24.375 14.6875H27.5625L30.1875 17.5625L32.8125 14.6875H36L31.75 19.1875L36 23.6875H32.75L30.125 20.75L27.5 23.6875ZM33.5 19.1875L36 16.5625V21.8125L33.5 19.1875ZM31.25 13.4375H29.125L26.8125 7.125V13.4375H21.625L20.875 11.625H16.75L16 13.4375H13.3125L17.25 4.4375H20.4375L24.375 13.4375V4.4375H28.1875L30.1875 10.0625L32.1875 4.4375H36V13.4375H33.5625V7.125L31.25 13.4375ZM17.625 9.625H20L18.8125 6.6875L17.625 9.625Z" fill="#8B5AB0"/>
</svg>
