<svg width="36" height="29" viewBox="0 0 36 29" fill="none" xmlns="http://www.w3.org/2000/svg">
<path d="M30.125 23.6875C30.125 24.125 29.875 24.375 29.4375 24.375C29 24.375 28.75 24.0625 28.75 23.6875C28.75 23.25 29 22.9375 29.4375 22.9375C29.875 22.9375 30.125 23.25 30.125 23.6875ZM10.75 22.9375C10.3125 22.9375 10 23.25 10 23.6875C10 24.0625 10.3125 24.375 10.75 24.375C11.125 24.375 11.4375 24.125 11.4375 23.6875C11.375 23.25 11.125 22.9375 10.75 22.9375ZM18.0625 22.9375C17.75 22.9375 17.5 23.125 17.5 23.4375H18.6875C18.625 23.125 18.375 22.9375 18.0625 22.9375ZM24.8125 22.9375C24.375 22.9375 24.125 23.25 24.125 23.6875C24.125 24.0625 24.375 24.375 24.8125 24.375C25.25 24.375 25.5 24.125 25.5 23.6875C25.5 23.25 25.25 22.9375 24.8125 22.9375ZM31.4375 24.5625V24.625C31.4375 24.6875 31.4375 24.6875 31.4375 24.6875C31.4375 24.75 31.4375 24.75 31.375 24.75C31.375 24.75 31.375 24.8125 31.3125 24.8125C31.3125 24.8125 31.3125 24.8125 31.25 24.8125C31.25 24.8125 31.25 24.8125 31.1875 24.8125C31.1875 24.8125 31.1875 24.75 31.125 24.75C31.125 24.75 31.125 24.75 31.125 24.6875C31.0625 24.6875 31.0625 24.6875 31.0625 24.625C31.0625 24.625 31.0625 24.5625 31.125 24.5625V24.5C31.1875 24.5 31.1875 24.5 31.1875 24.5C31.25 24.4375 31.25 24.4375 31.25 24.4375C31.3125 24.4375 31.3125 24.4375 31.3125 24.5C31.375 24.5 31.375 24.5 31.375 24.5C31.4375 24.5 31.4375 24.5625 31.4375 24.5625ZM31.3125 24.6875V24.625C31.375 24.625 31.375 24.625 31.375 24.5625C31.375 24.5625 31.375 24.5625 31.3125 24.5625C31.3125 24.5625 31.3125 24.5 31.25 24.5H31.1875V24.75H31.25V24.625L31.3125 24.75H31.375L31.3125 24.6875ZM36 3.0625V25.0625C36 26.75 34.625 28.0625 33 28.0625H3C1.3125 28.0625 0 26.75 0 25.0625V3.0625C0 1.4375 1.3125 0.0625 3 0.0625H33C34.625 0.0625 36 1.4375 36 3.0625ZM4 11.8125C4 16.625 7.875 20.5 12.625 20.5C14.3125 20.5 16 19.9375 17.4375 19C12.875 15.3125 12.875 8.3125 17.4375 4.625C16 3.6875 14.3125 3.1875 12.625 3.1875C7.875 3.1875 4 7.0625 4 11.8125ZM18 18.625C22.375 15.1875 22.375 8.5 18 5C13.5625 8.5 13.5625 15.1875 18 18.625ZM9.0625 23.375C9.0625 22.8125 8.75 22.5 8.1875 22.4375C7.875 22.4375 7.5625 22.5625 7.375 22.875C7.1875 22.625 6.9375 22.4375 6.625 22.4375C6.375 22.4375 6.125 22.5625 5.9375 22.8125V22.5H5.4375V24.8125H5.9375C5.9375 23.625 5.75 22.9375 6.5 22.9375C7.125 22.9375 7 23.5625 7 24.8125H7.5C7.5 23.6875 7.375 22.9375 8.0625 22.9375C8.6875 22.9375 8.5625 23.5625 8.5625 24.8125H9.0625V23.375ZM11.875 22.5H11.375V22.8125C11.25 22.625 11 22.4375 10.6875 22.4375C10 22.4375 9.5 23 9.5 23.6875C9.5 24.375 10 24.875 10.6875 24.875C11 24.875 11.25 24.75 11.375 24.5625V24.8125H11.875V22.5ZM14.4375 24.125C14.4375 23.1875 13 23.625 13 23.1875C13 22.8125 13.75 22.875 14.125 23.125L14.375 22.6875C13.75 22.3125 12.4375 22.3125 12.4375 23.1875C12.4375 24.125 13.875 23.75 13.875 24.125C13.875 24.5625 13.0625 24.5 12.625 24.1875L12.375 24.625C13.0625 25.0625 14.4375 25 14.4375 24.125ZM16.625 24.6875L16.5 24.3125C16.25 24.4375 15.75 24.5625 15.75 24V23H16.5625V22.5H15.75V21.8125H15.1875V22.5H14.75V23H15.1875V24C15.1875 25.125 16.3125 24.9375 16.625 24.6875ZM17.4375 23.875H19.1875C19.1875 22.875 18.6875 22.4375 18.0625 22.4375C17.4375 22.4375 16.9375 22.9375 16.9375 23.6875C16.9375 24.9375 18.375 25.1875 19.0625 24.5625L18.8125 24.1875C18.3125 24.5625 17.625 24.5625 17.4375 23.875ZM21.125 22.5C20.875 22.375 20.4375 22.4375 20.1875 22.8125V22.5H19.6875V24.8125H20.1875V23.5C20.1875 22.8125 20.8125 22.875 21 23L21.125 22.5ZM21.8125 23.6875C21.8125 22.9375 22.5625 22.75 23.125 23.125L23.375 22.75C22.625 22.1875 21.3125 22.5 21.3125 23.6875C21.3125 24.9375 22.6875 25.1875 23.375 24.625L23.125 24.1875C22.5625 24.625 21.8125 24.375 21.8125 23.6875ZM26 22.5H25.5V22.8125C24.9375 22.125 23.625 22.5 23.625 23.6875C23.625 24.875 25 25.1875 25.5 24.5625V24.8125H26V22.5ZM28.0625 22.5C27.9375 22.4375 27.375 22.375 27.125 22.8125V22.5H26.625V24.8125H27.125V23.5C27.125 22.8125 27.6875 22.875 27.9375 23L28.0625 22.5ZM30.625 21.625H30.125V22.8125C29.625 22.125 28.25 22.5 28.25 23.6875C28.25 24.875 29.625 25.1875 30.125 24.5625V24.8125H30.625V21.625ZM31.0625 16.875V17.1875H31.125V16.875H31.25H30.9375H31.0625ZM31.5 24.625V24.5625C31.4375 24.5 31.4375 24.5 31.4375 24.5C31.4375 24.4375 31.375 24.4375 31.375 24.4375C31.3125 24.4375 31.3125 24.375 31.25 24.375L31.1875 24.4375C31.125 24.4375 31.125 24.4375 31.125 24.5C31.0625 24.5 31.0625 24.5 31.0625 24.5625V24.625C31.0625 24.6875 31.0625 24.6875 31.0625 24.75C31.0625 24.75 31.0625 24.75 31.125 24.8125C31.125 24.8125 31.125 24.8125 31.1875 24.875H31.25C31.3125 24.875 31.3125 24.875 31.375 24.875C31.375 24.8125 31.4375 24.8125 31.4375 24.8125C31.4375 24.75 31.4375 24.75 31.5 24.75C31.5 24.6875 31.5 24.6875 31.5 24.625ZM31.6875 16.875H31.625L31.5 17.0625L31.4375 16.875H31.3125V17.1875H31.375V16.9375L31.5 17.125H31.5625L31.625 16.9375V17.1875H31.6875V16.875ZM32 11.8125C32 7.0625 28.0625 3.1875 23.3125 3.1875C21.625 3.1875 19.9375 3.6875 18.5625 4.625C23.0625 8.3125 23.125 15.3125 18.5625 19C19.9375 19.9375 21.625 20.4375 23.3125 20.4375C28.0625 20.5 32 16.625 32 11.8125Z" fill="#8B5AB0"/>
</svg>
