<svg width="36" height="28" viewBox="0 0 36 28" fill="none" xmlns="http://www.w3.org/2000/svg">
<path d="M11.625 14.1875C11.625 14.9375 11 15.5 10.25 15.5C9.6875 15.5 9.25 15.1875 9.25 14.5625C9.25 13.8125 9.8125 13.1875 10.625 13.1875C11.1875 13.1875 11.625 13.5625 11.625 14.1875ZM5 11.125H4.6875C4.625 11.125 4.5 11.1875 4.5 11.3125L4.25 13L4.75 12.9375C5.4375 12.9375 6 12.875 6.125 12.0625C6.25 11.25 5.6875 11.125 5 11.125ZM22.75 11.125H22.5C22.375 11.125 22.3125 11.1875 22.25 11.3125L22 13L22.5 12.9375C23.3125 12.9375 23.875 12.75 23.875 11.8125C23.875 11.1875 23.3125 11.125 22.75 11.125ZM36 3V25C36 26.6875 34.625 28 33 28H3C1.3125 28 0 26.6875 0 25V3C0 1.375 1.3125 0 3 0H33C34.625 0 36 1.375 36 3ZM8 11.5C8 10.1875 7 9.75 5.8125 9.75H3.3125C3.1875 9.75 3 9.875 3 10.0625L2 16.4375C1.9375 16.5625 2.0625 16.6875 2.1875 16.6875H3.375C3.5 16.6875 3.6875 16.5 3.6875 16.3125L4 14.625C4.0625 14.1875 4.8125 14.375 5.125 14.375C6.875 14.375 8 13.3125 8 11.5ZM13.25 12.0625H12.0625C11.8125 12.0625 11.8125 12.375 11.8125 12.5625C11.4375 12 10.9375 11.9375 10.3125 11.9375C8.8125 11.9375 7.625 13.25 7.625 14.75C7.625 16 8.375 16.75 9.625 16.75C10.1875 16.75 10.875 16.4375 11.25 16C11.25 16.125 11.1875 16.3125 11.1875 16.4375C11.1875 16.5625 11.25 16.6875 11.375 16.6875H12.5C12.625 16.6875 12.8125 16.5 12.8125 16.3125L13.4375 12.3125C13.5 12.1875 13.375 12.0625 13.25 12.0625ZM15.8125 18.1875L19.75 12.375C19.8125 12.3125 19.8125 12.3125 19.8125 12.25C19.8125 12.1875 19.6875 12.0625 19.625 12.0625H18.375C18.3125 12.0625 18.1875 12.125 18.125 12.1875L16.4375 14.625L15.75 12.3125C15.75 12.1875 15.5625 12.0625 15.4375 12.0625H14.25C14.125 12.0625 14.0625 12.1875 14.0625 12.25C14.0625 12.3125 15.25 15.8125 15.375 16.125C15.1875 16.375 14.125 17.9375 14.125 18.125C14.125 18.25 14.1875 18.3125 14.3125 18.3125H15.5C15.625 18.3125 15.75 18.25 15.8125 18.1875ZM25.75 11.5C25.75 10.1875 24.75 9.75 23.5625 9.75H21.0625C20.9375 9.75 20.75 9.875 20.75 10.0625L19.75 16.4375C19.75 16.5625 19.8125 16.6875 19.9375 16.6875H21.1875C21.3125 16.6875 21.4375 16.5625 21.4375 16.4375L21.75 14.625C21.8125 14.1875 22.5625 14.375 22.875 14.375C24.625 14.375 25.75 13.3125 25.75 11.5ZM31 12.0625H29.8125C29.5625 12.0625 29.5625 12.375 29.5625 12.5625C29.1875 12 28.6875 11.9375 28.0625 11.9375C26.5625 11.9375 25.375 13.25 25.375 14.75C25.375 16 26.125 16.75 27.375 16.75C27.9375 16.75 28.625 16.4375 29 16C29 16.125 28.9375 16.3125 28.9375 16.4375C28.9375 16.5625 29 16.6875 29.125 16.6875H30.25C30.375 16.6875 30.5625 16.5 30.5625 16.3125L31.1875 12.3125C31.25 12.1875 31.125 12.0625 31 12.0625ZM34 9.9375C34 9.8125 33.875 9.75 33.75 9.75H32.625C32.5 9.75 32.4375 9.8125 32.4375 9.9375L31.375 16.4375C31.375 16.5625 31.5 16.6875 31.625 16.6875H32.625C32.8125 16.6875 32.9375 16.5 32.9375 16.3125L34 10V9.9375ZM28.375 13.1875C27.5625 13.1875 27 13.8125 27 14.5625C27 15.1875 27.4375 15.5 28 15.5C28.75 15.5 29.375 14.9375 29.375 14.1875C29.375 13.5625 28.9375 13.1875 28.375 13.1875Z" fill="#8B5AB0"/>
</svg>
