<svg width="36" height="28" viewBox="0 0 36 28" fill="none" xmlns="http://www.w3.org/2000/svg">
<path d="M30.75 11.8125C31.3125 11.8125 31.875 12.25 31.875 13.25H29.5625C29.5625 12.25 30.1875 11.8125 30.75 11.8125ZM23.4375 12C24.1875 12 24.75 12.875 24.75 14.0625C24.75 15.25 24.25 16.125 23.4375 16.125C22.875 16.125 22.5625 15.9375 22.375 15.75V12.4375C22.5625 12.1875 22.875 12 23.4375 12ZM33 0C34.625 0 36 1.375 36 3V25C36 26.6875 34.625 28 33 28H3C1.3125 28 0 26.6875 0 25V3C0 1.375 1.3125 0 3 0H33ZM7.625 15.625C7.625 12.9375 4.1875 13.4375 4.1875 12.4375C4.1875 12.0625 4.5 11.9375 5 11.9375C5.625 11.9375 6.5 12.125 7.1875 12.5V10.4375C6.4375 10.125 5.6875 10 5 10C3.1875 10 2 10.9375 2 12.5625C2 15 5.375 14.5625 5.375 15.625C5.375 16.0625 5 16.1875 4.5 16.1875C3.75 16.1875 2.8125 15.875 2.0625 15.5V17.625C2.875 17.9375 3.75 18.125 4.5 18.125C6.3125 18.125 7.625 17.1875 7.625 15.625ZM11.9375 12.0625V10.1875H10.25V8.25L8.0625 8.6875V15.8125C8.0625 17.125 9.0625 18.125 10.375 18.125C11.0625 18.125 11.625 18 11.9375 17.8125V16C11.625 16.125 10.25 16.5 10.25 15.1875V12.0625H11.9375ZM16.5625 12.1875V10.1875H16.5C16.25 10.0625 15.1875 9.875 14.6875 10.8125L14.5625 10.1875H12.625V17.9375H14.8125V12.6875C15.375 12 16.25 12.125 16.5625 12.1875ZM19.3125 17.9375V10.1875H17.0625V17.9375H19.3125ZM19.3125 9V7.1875L17.0625 7.6875V9.5L19.3125 9ZM23.9375 18.125C25.5 18.125 26.9375 16.8125 26.9375 14C26.9375 11.4375 25.5 10 23.9375 10C23.0625 10 22.5 10.4375 22.1875 10.6875L22.0625 10.1875H20.125V20.5L22.375 20.0625V17.5625C22.6875 17.75 23.125 18.125 23.9375 18.125ZM33.9375 14.875C33.9375 14.75 34 14.3125 34 14.0625C34 11.8125 32.875 10 30.75 10C28.625 10 27.375 11.8125 27.375 14.0625C27.375 16.75 28.875 18.125 31.0625 18.125C32.125 18.125 32.875 17.875 33.5 17.5V15.75C32.875 16.0625 32.1875 16.25 31.3125 16.25C30.4375 16.25 29.6875 15.9375 29.625 14.875H33.9375Z" fill="#8B5AB0"/>
</svg>
