<svg width="36" height="28" viewBox="0 0 36 28" fill="none" xmlns="http://www.w3.org/2000/svg">
<path d="M29.375 12.5C29.375 12.5 29.8125 14.8125 29.9375 15.3125H27.875C28.0625 14.75 28.875 12.5625 28.875 12.5625C28.8125 12.625 29.0625 12 29.1875 11.625L29.375 12.5ZM36 3V25C36 26.6875 34.625 28 33 28H3C1.3125 28 0 26.6875 0 25V3C0 1.375 1.3125 0 3 0H33C34.625 0 36 1.375 36 3ZM9.5 18.75L13.4375 9H10.8125L8.3125 15.625L8.0625 14.3125L7.1875 9.875C7.0625 9.25 6.625 9.0625 6.0625 9H2V9.25C2.9375 9.5 3.8125 9.8125 4.625 10.3125L6.875 18.75H9.5ZM15.375 18.75L17 9H14.4375L12.875 18.75H15.375ZM24.125 15.5625C24.1875 14.4375 23.5 13.625 22.0625 12.9375C21.1875 12.5 20.625 12.1875 20.625 11.75C20.625 11.3125 21.0625 10.875 22.0625 10.875C22.875 10.875 23.5 11.0625 23.9375 11.25L24.1875 11.375L24.5 9.25C24 9.0625 23.25 8.875 22.25 8.875C19.75 8.875 18 10.1875 18 12.0625C18 13.4375 19.25 14.25 20.1875 14.6875C21.1875 15.1875 21.5 15.5 21.5 15.875C21.5 16.5625 20.75 16.875 20 16.875C19 16.875 18.5 16.6875 17.625 16.3125L17.3125 16.1875L17 18.375C17.5625 18.625 18.625 18.875 19.75 18.875C22.4375 18.875 24.125 17.5625 24.125 15.5625ZM33 18.75L30.9375 9H29C28.375 9 27.9375 9.1875 27.6875 9.8125L23.9375 18.75H26.625C26.625 18.75 27 17.5625 27.125 17.3125H30.375C30.4375 17.625 30.625 18.75 30.625 18.75H33Z" fill="#8B5AB0"/>
</svg>
