<svg width="24" height="24" viewBox="0 0 24 24" fill="none" xmlns="http://www.w3.org/2000/svg">
<g clip-path="url(#clip0_1_11312)">
<path d="M18.0933 22.6666H5.90666C5.65012 22.6605 5.39729 22.604 5.16261 22.5002C4.92793 22.3964 4.71601 22.2473 4.53894 22.0616C4.36188 21.8759 4.22315 21.6571 4.13067 21.4177C4.03819 21.1784 3.99379 20.9231 3.99999 20.6666V7.48657H5.33332V20.6666C5.32696 20.748 5.33676 20.83 5.36217 20.9076C5.38758 20.9853 5.42808 21.0572 5.48137 21.1191C5.53465 21.1811 5.59965 21.2319 5.67264 21.2686C5.74562 21.3054 5.82516 21.3273 5.90666 21.3332H18.0933C18.1748 21.3273 18.2544 21.3054 18.3273 21.2686C18.4003 21.2319 18.4653 21.1811 18.5186 21.1191C18.5719 21.0572 18.6124 20.9853 18.6378 20.9076C18.6632 20.83 18.673 20.748 18.6667 20.6666V7.48657H20V20.6666C20.0062 20.9231 19.9618 21.1784 19.8693 21.4177C19.7768 21.6571 19.6381 21.8759 19.461 22.0616C19.284 22.2473 19.072 22.3964 18.8374 22.5002C18.6027 22.604 18.3499 22.6605 18.0933 22.6666Z" fill="#808080"/>
<path d="M20.52 6.00008H3.33332C3.15651 6.00008 2.98694 5.92984 2.86192 5.80482C2.73689 5.67979 2.66666 5.51023 2.66666 5.33341C2.66666 5.1566 2.73689 4.98703 2.86192 4.86201C2.98694 4.73699 3.15651 4.66675 3.33332 4.66675H20.52C20.6968 4.66675 20.8664 4.73699 20.9914 4.86201C21.1164 4.98703 21.1867 5.1566 21.1867 5.33341C21.1867 5.51023 21.1164 5.67979 20.9914 5.80482C20.8664 5.92984 20.6968 6.00008 20.52 6.00008Z" fill="#808080"/>
<path d="M14 8.66675H15.3333V18.6667H14V8.66675Z" fill="#808080"/>
<path d="M8.66666 8.66675H9.99999V18.6667H8.66666V8.66675Z" fill="#808080"/>
<path d="M15.3333 3.90659H14.0667V2.66659H9.93332V3.90659H8.66666V2.66659C8.66623 2.32422 8.79752 1.9948 9.03332 1.74659C9.26913 1.49837 9.59138 1.35037 9.93332 1.33325H14.0667C14.4086 1.35037 14.7309 1.49837 14.9667 1.74659C15.2025 1.9948 15.3338 2.32422 15.3333 2.66659V3.90659Z" fill="#808080"/>
</g>
<defs>
<clipPath id="clip0_1_11312">
<rect width="24" height="24" fill="white"/>
</clipPath>
</defs>
</svg>
