<svg width="41" height="32" viewBox="0 0 41 32" fill="none" xmlns="http://www.w3.org/2000/svg">
<path d="M5.2085 17.1875L4.7085 18.3125L3.5835 21.25L9.8335 19.8125L10.271 19.6875L10.646 19.75C11.521 19.9375 12.396 20.0625 13.3335 20.0625C19.7085 20.0625 24.3335 15.6875 24.3335 11.0625C24.3335 6.375 19.7085 2.0625 13.3335 2.0625C6.896 2.0625 2.3335 6.375 2.3335 11C2.3335 12.9375 3.021 14.75 4.396 16.25L5.2085 17.1875ZM2.7085 23.5L0.333496 24L1.2085 21.75L2.896 17.625C1.271 15.75 0.333496 13.5 0.333496 11C0.333496 4.9375 6.146 0 13.3335 0C20.4585 0 26.3335 4.9375 26.3335 11C26.3335 17.125 20.4585 22 13.3335 22C12.271 22 11.271 21.9375 10.271 21.75L2.7085 23.5ZM15.646 23.875C16.3335 23.75 17.0835 23.625 17.771 23.4375C19.5835 26.125 23.021 28 27.3335 28C28.2085 28 29.0835 27.9375 29.9585 27.75L30.396 27.6875L30.771 27.75L37.021 29.1875L35.896 26.3125L35.396 25.1875L36.2085 24.25C37.5835 22.75 38.3335 20.9375 38.3335 19C38.3335 14.5625 34.146 10.4375 28.271 10.0625C28.2085 9.375 28.0835 8.6875 27.896 8.0625C34.8335 8.3125 40.3335 13.125 40.3335 19C40.3335 21.5 39.3335 23.75 37.7085 25.625L39.396 29.75L40.3335 32L37.9585 31.5L30.3335 29.75C29.3335 29.9375 28.3335 30 27.3335 30C22.2085 30 17.771 27.5 15.646 23.875ZM9.146 7.8125C9.146 6.3125 10.3335 5.0625 11.896 5.0625H14.396C16.0835 5.0625 17.521 6.5 17.521 8.1875C17.521 9.375 16.8335 10.4375 15.771 11L14.3335 11.75V12.75H12.3335V11.75V11.125V10.5L12.8335 10.25L14.896 9.1875C15.271 9 15.521 8.625 15.521 8.1875C15.521 7.5625 14.9585 7.0625 14.396 7.0625H11.896C11.4585 7.0625 11.146 7.4375 11.146 7.8125V8.1875H9.146V7.8125ZM12.271 13.875H14.396V16H12.271V13.875Z" fill="#22A367"/>
</svg>
