<svg width="453" height="263" viewBox="0 0 453 263" fill="none" xmlns="http://www.w3.org/2000/svg">
<mask id="mask0_1_10489" style="mask-type:alpha" maskUnits="userSpaceOnUse" x="0" y="0" width="453" height="263">
<rect width="453" height="263" fill="#D9D9D9"/>
</mask>
<g mask="url(#mask0_1_10489)">
<path opacity="0.3" d="M0 10C0 4.47715 4.47715 0 10 0H443C448.523 0 453 4.47715 453 10V263H0V10Z" fill="#58888B"/>
<path d="M401.24 36.7266H265.68V168.901H401.24V36.7266Z" stroke="white" stroke-width="2.7629" stroke-miterlimit="10"/>
<path d="M333.452 168.906V24.9297" stroke="white" stroke-width="2.724" stroke-miterlimit="10"/>
<path d="M401.231 96.9165H265.68" stroke="white" stroke-width="2.724" stroke-miterlimit="10"/>
<path d="M377.728 182.247H369.362C368.102 182.247 367.077 181.222 367.077 179.962V166.59C367.077 165.96 367.589 165.447 368.219 165.447H379.257C379.669 165.447 380.005 165.783 380.005 166.195V179.962C380.013 181.222 378.988 182.247 377.728 182.247Z" fill="white"/>
<path d="M383.247 173.719C383.247 176.239 381.945 178.281 380.34 178.281C378.736 178.281 377.434 176.239 377.434 173.719C377.434 171.199 378.736 169.158 380.34 169.158C381.945 169.158 383.247 171.199 383.247 173.719Z" stroke="white" stroke-width="0.9572" stroke-miterlimit="10"/>
<path d="M265.681 264.105V182.423H401.231V264.105" stroke="white" stroke-width="2.7629" stroke-miterlimit="10"/>
<path d="M183.352 3.87854V271.57H50.2285V3.74414L183.352 3.87854Z" stroke="white" stroke-width="1.716" stroke-miterlimit="10"/>
<path d="M318.174 33.6219C318.174 37.8387 314.756 41.2575 310.539 41.2575C306.322 41.2575 302.903 37.8387 302.903 33.6219C302.903 29.4051 306.322 25.9863 310.539 25.9863C314.756 25.9947 318.174 29.4135 318.174 33.6219Z" fill="#FFDC75"/>
<path d="M310.539 -19.1309V17.7619" stroke="#69C9BA" stroke-width="2.8715" stroke-miterlimit="10" stroke-linecap="round" stroke-linejoin="round"/>
<path d="M285.129 35.5384C285.129 21.502 296.502 10.1284 310.539 10.1284C325.902 10.1284 335.949 21.502 335.949 35.5384H285.129Z" fill="#69C9BA"/>
<path d="M70.8938 185.956C67.8698 189.955 72.8762 195.583 71.8346 200.48C68.8274 200.749 65.4758 201.202 63.5942 203.571C61.0238 206.805 62.6786 211.551 64.5434 215.247C68.4578 223.009 72.893 230.51 77.807 237.692C78.8066 232.694 83.8802 229.813 88.1474 227.032C92.423 224.244 96.791 219.632 95.3294 214.752C94.8674 213.206 93.8258 211.778 93.9098 210.165C94.0946 206.318 100.075 205.066 100.731 201.278C101.529 196.633 93.9686 194.508 93.3974 189.829C93.0446 186.956 95.5142 184.537 96.1526 181.723C97.1102 177.523 93.2714 173.138 88.9622 173.004C84.6614 172.869 80.7386 176.448 79.8902 180.673C79.739 181.42 78.857 181.891 78.2102 182.302C76.9838 183.075 75.4466 183.092 74.0774 183.562C72.7754 184.016 71.6246 184.906 70.8602 186.049" fill="#FF8C1A"/>
<path d="M78.546 232.086C78.546 232.086 78.4956 231.23 78.4032 229.718C78.3444 228.97 78.3444 228.046 78.3108 226.988C78.2604 225.929 78.2772 224.736 78.3024 223.443C78.2856 222.141 78.3696 220.738 78.4284 219.251C78.4452 218.504 78.5292 217.748 78.5796 216.966C78.6384 216.185 78.6636 215.387 78.7476 214.581C78.8904 212.968 79.05 211.296 79.2768 209.608C79.4532 207.911 79.7304 206.198 79.9656 204.484C80.2596 202.779 80.5368 201.065 80.898 199.394C81.2088 197.714 81.6204 196.084 82.0152 194.505C82.4268 192.934 82.8384 191.414 83.2584 189.977C83.7204 188.558 84.1236 187.205 84.6024 185.996C85.0392 184.769 85.4844 183.66 85.9128 182.694C86.3412 181.728 86.7024 180.88 87.0636 180.208C87.744 178.847 88.164 178.083 88.164 178.083C88.2816 177.881 88.5336 177.806 88.7436 177.915C88.92 178.016 88.9956 178.217 88.9452 178.402V178.419C88.9452 178.419 88.71 179.25 88.248 180.678C87.8028 182.106 87.156 184.148 86.3916 186.6C86.0136 187.827 85.6104 189.154 85.182 190.557C84.7452 191.96 84.3168 193.446 83.8884 194.992C83.4852 196.546 83.0652 198.15 82.6368 199.78C82.2 201.41 81.864 203.09 81.4692 204.753C81.1416 206.433 80.7636 208.104 80.4948 209.776C80.2008 211.439 79.9824 213.086 79.7724 214.682C79.5708 216.278 79.4196 217.823 79.3188 219.293C79.2432 220.763 79.1256 222.158 79.1172 223.443C79.092 224.728 79.0752 225.912 79.1172 226.946C79.1424 227.987 79.1592 228.894 79.2348 229.65C79.3524 231.154 79.4196 232.011 79.4196 232.011C79.4364 232.246 79.2684 232.448 79.0332 232.464C78.7728 232.506 78.5628 232.33 78.546 232.086C78.546 232.095 78.546 232.095 78.546 232.086Z" fill="white"/>
<path d="M99.9664 226.184V261.498C99.9664 265.471 96.7492 268.688 92.776 268.688H65.7952C61.486 268.688 58 265.194 58 260.893V226.184H99.9664Z" fill="#333333"/>
<path d="M301.634 254.53V31.6301C301.634 27.4161 298.218 24 294.004 24L149.927 24C145.713 24 142.297 27.4161 142.297 31.6301V254.53C142.297 258.744 145.713 262.16 149.927 262.16H294.004C298.218 262.16 301.634 258.744 301.634 254.53Z" fill="#455A64"/>
<path d="M294.916 40.6689H149.211V245.633H294.916V40.6689Z" fill="white"/>
<path d="M239.31 34.1704V33.176C239.31 32.7673 238.979 32.436 238.57 32.436H205.374C204.966 32.436 204.634 32.7673 204.634 33.176V34.1704C204.634 34.5791 204.966 34.9103 205.374 34.9103H238.57C238.979 34.9103 239.31 34.5791 239.31 34.1704Z" fill="#263238"/>
<path d="M221.971 258.172C224.449 258.172 226.458 256.163 226.458 253.685C226.458 251.207 224.449 249.198 221.971 249.198C219.493 249.198 217.485 251.207 217.485 253.685C217.485 256.163 219.493 258.172 221.971 258.172Z" fill="#263238"/>
<path d="M294.916 40.6689H149.211V245.633H294.916V40.6689Z" fill="white"/>
<path d="M222.043 128.882C235.937 128.882 247.2 117.619 247.2 103.725C247.2 89.8307 235.937 78.5674 222.043 78.5674C208.149 78.5674 196.886 89.8307 196.886 103.725C196.886 117.619 208.149 128.882 222.043 128.882Z" fill="#A6A6A6"/>
<path d="M253.19 149.661H190.889V158.688H253.19V149.661Z" fill="#EBEBEB"/>
<path d="M200.513 152.4C200.513 152.335 200.567 152.282 200.632 152.282C200.703 152.282 200.756 152.335 200.756 152.4V154.33C200.756 154.963 201.271 155.472 201.899 155.478C202.538 155.478 203.053 154.963 203.053 154.33V152.4C203.053 152.335 203.106 152.282 203.171 152.282C203.242 152.282 203.296 152.335 203.296 152.4V154.33C203.296 155.093 202.674 155.721 201.904 155.721C201.135 155.721 200.519 155.099 200.519 154.33V152.4H200.513Z" fill="#A6A6A6"/>
<path d="M204.284 155.218C204.325 155.17 204.396 155.158 204.449 155.2C204.615 155.324 204.881 155.478 205.183 155.478C205.373 155.478 205.533 155.419 205.639 155.33C205.758 155.253 205.823 155.141 205.823 155.034C205.823 154.922 205.775 154.845 205.651 154.738C205.55 154.661 205.379 154.602 205.142 154.561H205.13C204.917 154.513 204.722 154.466 204.585 154.371C204.432 154.282 204.325 154.128 204.325 153.939C204.325 153.75 204.432 153.578 204.585 153.465C204.728 153.365 204.929 153.306 205.177 153.306C205.485 153.306 205.71 153.448 205.894 153.566C205.947 153.608 205.965 153.679 205.929 153.732C205.894 153.785 205.823 153.803 205.769 153.767C205.592 153.649 205.414 153.525 205.177 153.525C204.982 153.525 204.822 153.578 204.722 153.661C204.621 153.738 204.568 153.838 204.568 153.933C204.568 154.028 204.609 154.099 204.704 154.176C204.81 154.247 204.976 154.306 205.195 154.342H205.207C205.438 154.377 205.621 154.442 205.793 154.537C205.953 154.638 206.065 154.827 206.065 155.028C206.065 155.229 205.953 155.389 205.793 155.514C205.627 155.638 205.432 155.703 205.195 155.703C204.804 155.703 204.503 155.514 204.307 155.36C204.26 155.318 204.254 155.253 204.29 155.206L204.284 155.218Z" fill="#A6A6A6"/>
<path d="M206.693 154.519C206.693 153.85 207.214 153.312 207.86 153.312C208.505 153.312 208.966 153.803 209.02 154.43V154.448C209.02 154.513 208.966 154.555 208.901 154.555H206.93C206.954 155.081 207.368 155.478 207.865 155.478C208.185 155.478 208.481 155.312 208.641 155.04C208.676 154.981 208.747 154.969 208.801 154.999C208.854 155.04 208.872 155.105 208.842 155.164C208.635 155.49 208.28 155.709 207.871 155.709C207.226 155.709 206.705 155.17 206.705 154.513L206.693 154.519ZM206.942 154.33H208.765C208.688 153.88 208.303 153.548 207.86 153.548C207.416 153.548 207.031 153.874 206.942 154.33Z" fill="#A6A6A6"/>
<path d="M209.748 153.436C209.748 153.365 209.801 153.317 209.872 153.317C209.931 153.317 209.984 153.365 209.984 153.436V153.969C209.984 153.969 210.002 153.927 210.02 153.909C210.203 153.625 210.523 153.317 210.985 153.317C211.05 153.317 211.103 153.365 211.103 153.436C211.103 153.501 211.05 153.554 210.985 153.554C210.671 153.554 210.452 153.732 210.286 153.945C210.127 154.164 210.032 154.407 209.996 154.507C209.984 154.525 209.984 154.537 209.984 154.549V155.602C209.984 155.673 209.931 155.721 209.872 155.721C209.801 155.721 209.748 155.673 209.748 155.602V153.436Z" fill="#A6A6A6"/>
<path d="M213.619 154.294C213.619 153.886 213.287 153.554 212.879 153.554C212.47 153.554 212.145 153.886 212.133 154.294V155.62C212.133 155.62 212.121 155.662 212.109 155.673C212.092 155.703 212.056 155.715 212.021 155.715H211.991C211.955 155.703 211.926 155.679 211.914 155.65C211.914 155.65 211.914 155.638 211.914 155.632V155.62V153.424C211.914 153.359 211.961 153.306 212.032 153.306C212.098 153.306 212.145 153.359 212.145 153.424V153.655C212.322 153.442 212.589 153.306 212.891 153.306C213.429 153.306 213.867 153.75 213.867 154.282V155.591C213.867 155.662 213.814 155.709 213.749 155.709C213.684 155.709 213.631 155.662 213.631 155.591V154.282L213.619 154.294Z" fill="#A6A6A6"/>
<path d="M216.928 153.43V155.602C216.928 155.667 216.875 155.721 216.809 155.721C216.744 155.721 216.691 155.667 216.691 155.602V155.241C216.484 155.525 216.158 155.715 215.785 155.715C215.152 155.715 214.649 155.17 214.649 154.513C214.649 153.856 215.152 153.312 215.785 153.312C216.152 153.312 216.484 153.495 216.691 153.785V153.43C216.691 153.359 216.744 153.312 216.809 153.312C216.875 153.312 216.928 153.359 216.928 153.43ZM216.691 154.513C216.691 153.974 216.283 153.542 215.785 153.542C215.288 153.542 214.88 153.974 214.88 154.513C214.88 155.052 215.294 155.478 215.785 155.478C216.277 155.478 216.691 155.052 216.691 154.513Z" fill="#A6A6A6"/>
<path d="M221.385 154.294C221.373 153.886 221.053 153.548 220.639 153.548C220.225 153.548 219.899 153.886 219.899 154.294V155.62V155.632V155.644C219.899 155.644 219.864 155.691 219.84 155.709C219.822 155.721 219.799 155.727 219.781 155.727H219.757H219.745C219.733 155.727 219.728 155.715 219.716 155.715C219.716 155.715 219.704 155.715 219.704 155.703L219.692 155.691C219.692 155.691 219.692 155.679 219.68 155.679C219.68 155.679 219.68 155.675 219.68 155.667C219.68 155.667 219.68 155.667 219.68 155.656C219.68 155.656 219.68 155.644 219.68 155.638V154.3C219.68 153.892 219.355 153.554 218.94 153.554C218.526 153.554 218.2 153.892 218.2 154.3V155.608C218.2 155.65 218.183 155.679 218.147 155.703C218.147 155.703 218.129 155.715 218.117 155.715C218.117 155.715 218.106 155.715 218.1 155.715H218.07C218.029 155.715 217.987 155.673 217.969 155.626V153.424C217.969 153.359 218.023 153.312 218.082 153.312C218.153 153.312 218.2 153.359 218.2 153.424V153.655C218.378 153.442 218.644 153.312 218.94 153.312C219.313 153.312 219.633 153.519 219.799 153.821C219.97 153.519 220.296 153.312 220.663 153.312C221.201 153.312 221.639 153.75 221.639 154.288V155.596C221.639 155.656 221.592 155.709 221.521 155.709C221.456 155.709 221.409 155.656 221.409 155.596V154.288L221.385 154.294Z" fill="#A6A6A6"/>
<path d="M222.439 154.519C222.439 153.85 222.96 153.312 223.605 153.312C224.25 153.312 224.712 153.803 224.765 154.43V154.448C224.765 154.513 224.712 154.555 224.647 154.555H222.676C222.699 155.081 223.114 155.478 223.611 155.478C223.931 155.478 224.227 155.312 224.386 155.04C224.422 154.981 224.493 154.969 224.54 154.999C224.594 155.04 224.611 155.105 224.582 155.164C224.375 155.49 224.019 155.709 223.611 155.709C222.966 155.709 222.445 155.17 222.445 154.513L222.439 154.519ZM222.688 154.33H224.511C224.434 153.88 224.049 153.548 223.605 153.548C223.161 153.548 222.776 153.874 222.688 154.33Z" fill="#A6A6A6"/>
<path d="M196.134 153.42C196.134 153.899 195.749 154.284 195.27 154.284C194.79 154.284 194.405 153.899 194.405 153.42C194.405 152.94 194.79 152.556 195.27 152.556C195.749 152.556 196.134 152.94 196.134 153.42Z" fill="#A6A6A6"/>
<path d="M196.767 155.794H193.777C193.783 154.971 194.452 154.314 195.269 154.314C196.086 154.314 196.755 154.971 196.761 155.794H196.767Z" fill="#A6A6A6"/>
<path d="M253.19 162.766H190.889V171.793H253.19V162.766Z" fill="#EBEBEB"/>
<path d="M202.574 166.208C202.005 167.061 201.295 167.777 200.443 168.339C201.011 167.487 201.721 166.777 202.574 166.208Z" fill="#A6A6A6"/>
<path d="M200.443 166.208C201.295 166.777 202.011 167.487 202.574 168.339C201.721 167.771 201.011 167.061 200.443 166.208Z" fill="#A6A6A6"/>
<path d="M203.018 167.273C202.011 167.474 201.005 167.474 200.005 167.273C201.011 167.072 202.017 167.072 203.018 167.273Z" fill="#A6A6A6"/>
<path d="M201.508 165.771C201.71 166.778 201.71 167.784 201.508 168.784C201.307 167.778 201.307 166.772 201.508 165.771Z" fill="#A6A6A6"/>
<path d="M207.776 166.208C207.208 167.061 206.498 167.777 205.645 168.339C206.214 167.487 206.924 166.777 207.776 166.208Z" fill="#A6A6A6"/>
<path d="M205.645 166.208C206.498 166.777 207.214 167.487 207.776 168.339C206.924 167.771 206.214 167.061 205.645 166.208Z" fill="#A6A6A6"/>
<path d="M208.22 167.273C207.214 167.474 206.208 167.474 205.207 167.273C206.214 167.072 207.22 167.072 208.22 167.273Z" fill="#A6A6A6"/>
<path d="M206.711 165.771C206.912 166.778 206.912 167.784 206.711 168.784C206.51 167.778 206.51 166.772 206.711 165.771Z" fill="#A6A6A6"/>
<path d="M212.979 166.208C212.411 167.061 211.7 167.777 210.848 168.339C211.416 167.487 212.127 166.777 212.979 166.208Z" fill="#A6A6A6"/>
<path d="M210.842 166.208C211.695 166.777 212.411 167.487 212.973 168.339C212.121 167.771 211.41 167.061 210.842 166.208Z" fill="#A6A6A6"/>
<path d="M213.417 167.273C212.411 167.474 211.404 167.474 210.404 167.273C211.41 167.072 212.417 167.072 213.417 167.273Z" fill="#A6A6A6"/>
<path d="M211.908 165.771C212.109 166.778 212.109 167.784 211.908 168.784C211.706 167.778 211.706 166.772 211.908 165.771Z" fill="#A6A6A6"/>
<path d="M218.178 166.208C217.61 167.061 216.899 167.777 216.047 168.339C216.615 167.487 217.325 166.777 218.178 166.208Z" fill="#A6A6A6"/>
<path d="M216.047 166.208C216.899 166.777 217.615 167.487 218.178 168.339C217.325 167.771 216.615 167.061 216.047 166.208Z" fill="#A6A6A6"/>
<path d="M218.622 167.273C217.615 167.474 216.609 167.474 215.609 167.273C216.615 167.072 217.621 167.072 218.622 167.273Z" fill="#A6A6A6"/>
<path d="M217.112 165.771C217.314 166.778 217.314 167.784 217.112 168.784C216.911 167.778 216.911 166.772 217.112 165.771Z" fill="#A6A6A6"/>
<path d="M196.28 166.303V167.393H195.973V166.303C195.973 165.889 195.659 165.552 195.268 165.552C194.878 165.552 194.564 165.889 194.564 166.303V167.393H194.256V166.303C194.256 165.711 194.712 165.226 195.268 165.226C195.825 165.226 196.28 165.711 196.28 166.303Z" fill="#A6A6A6"/>
<path d="M193.866 166.99V169.322H196.678V166.99H193.866ZM195.512 168.701H195.009L195.127 168.145C195.056 168.103 195.009 168.02 195.009 167.931C195.009 167.795 195.121 167.683 195.257 167.683C195.393 167.683 195.506 167.795 195.506 167.931C195.506 168.02 195.458 168.097 195.387 168.145L195.506 168.701H195.512Z" fill="#A6A6A6"/>
<path d="M211.477 142.721V138.643C211.477 138.435 211.642 138.264 211.855 138.264C212.068 138.264 212.24 138.435 212.24 138.643V142.336H214.111C214.312 142.336 214.489 142.508 214.489 142.721C214.489 142.934 214.312 143.1 214.111 143.1H211.849C211.636 143.1 211.471 142.928 211.471 142.721H211.477Z" fill="#263238"/>
<path d="M218.911 138.868C219.338 139.324 219.61 139.933 219.61 140.614C219.61 141.295 219.344 141.916 218.911 142.36C218.503 142.81 217.893 143.1 217.26 143.1C216.627 143.1 215.987 142.81 215.567 142.36C215.141 141.91 214.88 141.295 214.88 140.614C214.88 139.933 215.135 139.324 215.567 138.868C215.987 138.412 216.597 138.128 217.26 138.128C217.923 138.128 218.503 138.412 218.911 138.868ZM218.823 140.614C218.823 140.146 218.639 139.708 218.355 139.407C218.065 139.093 217.68 138.915 217.266 138.915C216.822 138.915 216.437 139.093 216.147 139.407C215.857 139.708 215.679 140.146 215.679 140.614C215.679 141.082 215.857 141.52 216.147 141.816C216.437 142.129 216.822 142.313 217.266 142.313C217.68 142.313 218.065 142.124 218.355 141.816C218.639 141.52 218.823 141.082 218.823 140.614Z" fill="#263238"/>
<path d="M220.759 140.62C220.759 139.229 221.907 138.122 223.31 138.122C223.896 138.122 224.458 138.323 224.884 138.66C225.062 138.79 225.092 139.045 224.961 139.223C224.831 139.388 224.577 139.424 224.399 139.282C224.103 139.057 223.724 138.909 223.31 138.909C222.813 138.909 222.375 139.098 222.067 139.412C221.741 139.726 221.546 140.146 221.546 140.614C221.546 141.081 221.741 141.49 222.067 141.803C222.38 142.123 222.813 142.307 223.31 142.307C223.653 142.307 223.979 142.2 224.257 142.046V141.099H223.268C223.055 141.099 222.878 140.921 222.878 140.702C222.878 140.483 223.055 140.318 223.268 140.318H224.642C224.861 140.318 225.044 140.483 225.044 140.702V142.23C225.044 142.277 225.032 142.307 225.026 142.348C225.02 142.36 225.02 142.366 225.015 142.384C224.997 142.455 224.955 142.508 224.884 142.555C224.446 142.893 223.902 143.094 223.316 143.094C221.913 143.094 220.764 141.993 220.764 140.614L220.759 140.62Z" fill="#263238"/>
<path d="M226.648 138.643C226.648 138.429 226.813 138.264 227.026 138.264C227.24 138.264 227.411 138.429 227.411 138.643V142.721C227.411 142.934 227.234 143.1 227.026 143.1C226.819 143.1 226.648 142.934 226.648 142.721V138.643Z" fill="#263238"/>
<path d="M229.472 142.722C229.472 142.929 229.3 143.1 229.099 143.1C228.886 143.1 228.72 142.929 228.72 142.722V138.708C228.714 138.584 228.767 138.46 228.874 138.383C229.045 138.264 229.282 138.3 229.401 138.466L231.632 141.555V138.708C231.632 138.507 231.798 138.335 232.005 138.335C232.212 138.335 232.384 138.507 232.384 138.708V142.722C232.384 142.929 232.212 143.1 232.005 143.1C231.893 143.1 231.792 143.047 231.721 142.964C231.709 142.952 231.691 142.935 231.685 142.923L229.472 139.851V142.722Z" fill="#263238"/>
<path d="M232.366 177.314H211.72V183.736H232.366V177.314Z" fill="#FF8C1A"/>
<path d="M216.764 181.479V179.437C216.764 179.33 216.847 179.248 216.953 179.248C217.06 179.248 217.149 179.336 217.149 179.437V181.284H218.084C218.185 181.284 218.273 181.373 218.273 181.479C218.273 181.586 218.185 181.669 218.084 181.669H216.953C216.847 181.669 216.764 181.58 216.764 181.479Z" fill="white"/>
<path d="M220.481 179.552C220.694 179.782 220.83 180.084 220.83 180.428C220.83 180.771 220.694 181.079 220.481 181.304C220.28 181.529 219.972 181.677 219.652 181.677C219.333 181.677 219.013 181.529 218.806 181.304C218.593 181.079 218.463 180.771 218.463 180.428C218.463 180.084 218.593 179.782 218.806 179.552C219.019 179.321 219.321 179.185 219.652 179.185C219.984 179.185 220.274 179.327 220.481 179.552ZM220.434 180.428C220.434 180.191 220.339 179.972 220.197 179.824C220.049 179.67 219.86 179.575 219.652 179.575C219.433 179.575 219.238 179.664 219.09 179.824C218.942 179.978 218.853 180.197 218.853 180.428C218.853 180.658 218.942 180.883 219.09 181.031C219.238 181.185 219.427 181.28 219.652 181.28C219.86 181.28 220.055 181.185 220.197 181.031C220.339 180.883 220.434 180.664 220.434 180.428Z" fill="white"/>
<path d="M221.405 180.434C221.405 179.735 221.979 179.185 222.683 179.185C222.979 179.185 223.257 179.285 223.471 179.457C223.559 179.522 223.577 179.652 223.506 179.735C223.441 179.818 223.311 179.836 223.228 179.765C223.08 179.652 222.89 179.575 222.683 179.575C222.435 179.575 222.216 179.67 222.062 179.83C221.902 179.984 221.801 180.197 221.801 180.434C221.801 180.67 221.896 180.872 222.062 181.031C222.216 181.191 222.435 181.286 222.683 181.286C222.855 181.286 223.021 181.233 223.157 181.156V180.682H222.66C222.553 180.682 222.464 180.593 222.464 180.487C222.464 180.38 222.553 180.291 222.66 180.291H223.346C223.459 180.291 223.547 180.374 223.547 180.487V181.25C223.547 181.25 223.542 181.286 223.536 181.31C223.536 181.316 223.536 181.321 223.53 181.327C223.518 181.363 223.5 181.392 223.465 181.416C223.246 181.588 222.973 181.688 222.677 181.688C221.973 181.688 221.399 181.138 221.399 180.445L221.405 180.434Z" fill="white"/>
<path d="M224.347 179.437C224.347 179.33 224.43 179.248 224.536 179.248C224.643 179.248 224.731 179.33 224.731 179.437V181.479C224.731 181.586 224.643 181.669 224.536 181.669C224.43 181.669 224.347 181.586 224.347 181.479V179.437Z" fill="white"/>
<path d="M225.761 181.482C225.761 181.589 225.672 181.672 225.572 181.672C225.465 181.672 225.382 181.583 225.382 181.482V179.47C225.382 179.41 225.406 179.345 225.459 179.31C225.548 179.251 225.666 179.268 225.72 179.351L226.839 180.896V179.47C226.839 179.369 226.921 179.28 227.028 179.28C227.135 179.28 227.217 179.369 227.217 179.47V181.482C227.217 181.589 227.129 181.672 227.028 181.672C226.975 181.672 226.921 181.642 226.886 181.601C226.88 181.595 226.874 181.589 226.868 181.583L225.761 180.044V181.482Z" fill="white"/>
<path d="M236.64 124.209C236.119 124.582 235.586 124.931 235.042 125.268C233.739 126.05 232.36 126.724 230.922 127.263C230.584 127.393 230.241 127.512 229.898 127.63C229.122 127.885 228.323 128.104 227.518 128.281C227.512 128.281 227.506 128.281 227.5 128.287C226.79 128.441 226.068 128.571 225.334 128.666C224.369 127.228 223.582 125.979 223.031 125.014C222.664 124.374 222.179 123.481 221.688 122.474C220.166 119.39 218.562 115.241 220.048 114.11C220.077 114.087 220.101 114.069 220.131 114.051C220.166 114.027 220.208 114.01 220.249 113.986C220.273 113.974 220.296 113.962 220.326 113.95C220.45 113.891 220.598 113.856 220.758 113.838C220.942 113.808 221.149 113.808 221.386 113.832C222.137 113.903 223.144 114.24 224.458 114.909C224.736 115.051 225.02 115.205 225.328 115.377C225.363 115.395 225.405 115.418 225.446 115.442C227.974 116.875 232.301 120.474 236.64 124.209Z" fill="#FFC4C0"/>
<path d="M237.528 123.544C237.238 123.775 236.942 123.994 236.64 124.207C236.119 124.58 235.587 124.929 235.042 125.267C233.74 126.048 232.361 126.723 230.922 127.261C230.585 127.392 230.242 127.51 229.898 127.628C229.123 127.883 228.324 128.102 227.519 128.28C227.513 128.28 227.507 128.28 227.501 128.285C226.791 128.439 226.068 128.57 225.334 128.664C225.192 128.682 225.044 128.7 224.896 128.718C223.351 126.291 222.049 124.1 221.143 122.39C221.09 122.283 221.037 122.188 220.99 122.094C220.67 121.472 220.392 120.886 220.155 120.336C219.977 119.921 219.823 119.525 219.693 119.146C219.61 118.897 219.533 118.655 219.462 118.418C219.403 118.211 219.356 118.015 219.308 117.826C219.267 117.631 219.231 117.441 219.202 117.258C219.119 116.766 219.095 116.322 219.131 115.932C219.155 115.577 219.226 115.263 219.338 114.996C219.397 114.854 219.462 114.724 219.545 114.606C219.587 114.547 219.628 114.493 219.67 114.44C219.717 114.387 219.764 114.333 219.817 114.286C219.865 114.239 219.918 114.197 219.977 114.156C220.001 114.138 220.025 114.12 220.048 114.109C220.078 114.085 220.102 114.067 220.131 114.049C220.167 114.026 220.208 114.008 220.25 113.984C220.273 113.972 220.297 113.961 220.327 113.949C220.332 113.943 220.338 113.943 220.344 113.937C220.463 113.884 220.587 113.836 220.723 113.801C221.493 113.599 222.529 113.712 223.778 114.144C223.778 114.144 223.778 114.15 223.783 114.15C224.293 114.322 224.843 114.547 225.423 114.831H225.429C226.352 115.281 227.353 115.867 228.436 116.589C231.129 118.388 234.367 120.939 237.528 123.544Z" fill="#FF8C1A"/>
<path d="M226.488 118.188C226.346 118.052 226.204 117.922 226.05 117.791C225.997 117.744 225.944 117.703 225.891 117.661C225.849 117.631 225.814 117.602 225.772 117.572C225.707 117.519 225.642 117.478 225.571 117.436C225.506 117.389 225.441 117.347 225.37 117.306H225.364C225.322 117.282 225.287 117.265 225.245 117.241C225.222 117.229 225.192 117.217 225.168 117.205C225.174 117.205 225.168 117.199 225.168 117.199C225.086 117.158 225.003 117.122 224.92 117.087C224.979 117.235 225.05 117.371 225.121 117.501C225.37 117.939 225.689 118.312 226.021 118.661C226.151 118.786 226.281 118.904 226.417 119.023C226.524 119.111 226.63 119.194 226.743 119.277C226.749 119.283 226.755 119.289 226.761 119.289H226.767C227.021 119.472 227.293 119.632 227.595 119.757C227.335 119.129 226.932 118.638 226.494 118.182L226.488 118.188ZM226.488 118.188C226.346 118.052 226.204 117.922 226.05 117.791C225.997 117.744 225.944 117.703 225.891 117.661C225.849 117.631 225.814 117.602 225.772 117.572C225.707 117.519 225.642 117.478 225.571 117.436C225.506 117.389 225.441 117.347 225.37 117.306H225.364C225.322 117.282 225.287 117.265 225.245 117.241C225.222 117.229 225.192 117.217 225.168 117.205C225.174 117.205 225.168 117.199 225.168 117.199C225.086 117.158 225.003 117.122 224.92 117.087C224.979 117.235 225.05 117.371 225.121 117.501C225.37 117.939 225.689 118.312 226.021 118.661C226.151 118.786 226.281 118.904 226.417 119.023C226.524 119.111 226.63 119.194 226.743 119.277C226.749 119.283 226.755 119.289 226.761 119.289H226.767C227.021 119.472 227.293 119.632 227.595 119.757C227.335 119.129 226.932 118.638 226.494 118.182L226.488 118.188Z" fill="white"/>
<path opacity="0.1" d="M235.042 125.266C233.74 126.048 232.36 126.723 230.922 127.261C230.585 127.391 230.241 127.51 229.898 127.628C229.123 127.883 228.323 128.102 227.518 128.279C227.512 128.279 227.507 128.279 227.501 128.285C226.79 128.439 226.068 128.569 225.334 128.664C225.192 128.682 225.044 128.7 224.896 128.717C223.351 126.29 222.049 124.1 221.143 122.39C221.09 122.283 221.037 122.188 220.989 122.094C220.67 121.472 220.391 120.886 220.155 120.336C219.977 119.921 219.823 119.525 219.693 119.146C219.61 118.897 219.533 118.654 219.462 118.418C219.403 118.211 219.356 118.015 219.308 117.826C219.267 117.63 219.231 117.441 219.202 117.257C219.125 116.766 219.101 116.322 219.131 115.932C219.154 115.576 219.225 115.263 219.338 114.996C219.397 114.854 219.462 114.724 219.545 114.606C219.586 114.546 219.628 114.493 219.669 114.44C219.717 114.387 219.764 114.333 219.817 114.286C219.865 114.239 219.918 114.197 219.977 114.156C220.001 114.138 220.024 114.12 220.048 114.108C220.078 114.085 220.101 114.067 220.131 114.049C220.167 114.026 220.208 114.008 220.249 113.984C220.273 113.972 220.297 113.96 220.326 113.949C220.332 113.943 220.338 113.943 220.344 113.937C220.463 113.883 220.593 113.842 220.729 113.807C220.889 113.765 221.066 113.735 221.256 113.724L221.386 113.83L223.481 115.594C223.481 115.594 223.487 115.6 223.493 115.6L225.192 117.021L226.003 117.701L235.042 125.266Z" fill="black"/>
<path d="M229.897 127.635C229.122 127.89 228.323 128.109 227.518 128.286C227.512 128.286 227.506 128.286 227.5 128.292C226.79 128.446 226.067 128.576 225.333 128.671C225.191 128.689 225.043 128.706 224.895 128.724C223.96 128.831 223.007 128.884 222.042 128.884C219.201 128.884 216.466 128.411 213.915 127.54C213.891 127.54 213.873 127.529 213.85 127.523C213.832 127.511 213.808 127.505 213.791 127.499C213.696 127.463 213.601 127.434 213.506 127.398C211.003 126.493 208.682 125.202 206.616 123.598C207.321 122.361 207.972 121.272 208.582 120.319C209.02 119.632 209.428 119.016 209.819 118.466C209.819 118.454 209.825 118.454 209.825 118.454C211.89 115.5 213.317 114.293 214.43 113.707C214.501 113.671 214.572 113.636 214.637 113.606C214.72 113.559 214.803 113.523 214.88 113.494C215.028 113.429 215.17 113.381 215.306 113.334C216.502 112.931 218.289 112.724 220 112.878C221.45 113.008 222.847 113.399 223.771 114.151C223.771 114.151 223.771 114.157 223.777 114.157C224.043 114.376 224.274 114.63 224.451 114.914C224.659 115.246 224.86 115.583 225.055 115.932C225.126 116.057 225.197 116.181 225.268 116.311C225.517 116.761 225.76 117.223 225.996 117.708C226.014 117.738 226.032 117.767 226.038 117.797C226.156 118.04 226.275 118.282 226.393 118.537C226.511 118.786 226.63 119.034 226.742 119.295H226.748C227.843 121.722 228.873 124.486 229.82 127.428C229.844 127.493 229.862 127.558 229.885 127.629L229.897 127.635Z" fill="#FF8C1A"/>
<path d="M221.308 126.598C220.681 126.61 220.053 126.669 219.42 126.93C220.053 127.196 220.681 127.249 221.308 127.261C221.942 127.249 222.575 127.19 223.203 126.93C222.575 126.669 221.942 126.61 221.308 126.598ZM210.559 117.98C210.47 118.021 210.387 118.074 210.304 118.122C210.221 118.169 210.138 118.222 210.062 118.282C210.02 118.305 209.985 118.329 209.955 118.359L209.831 118.447C209.831 118.447 209.825 118.453 209.825 118.465C209.813 118.471 209.807 118.477 209.801 118.483C209.612 118.631 209.44 118.791 209.268 118.95C208.83 119.406 208.428 119.898 208.161 120.525C208.309 120.466 208.451 120.395 208.588 120.318C209.02 120.075 209.393 119.756 209.736 119.424C210.174 118.974 210.577 118.477 210.837 117.849C210.742 117.891 210.653 117.932 210.565 117.98H210.559ZM226.405 118.536C226.287 118.288 226.168 118.039 226.044 117.796C225.991 117.749 225.937 117.707 225.884 117.666C225.843 117.636 225.807 117.607 225.766 117.577C225.7 117.524 225.635 117.482 225.564 117.441C225.499 117.394 225.434 117.352 225.363 117.311H225.357C225.316 117.287 225.28 117.269 225.239 117.246C225.215 117.234 225.186 117.216 225.162 117.204C225.079 117.163 224.996 117.127 224.913 117.092C224.972 117.24 225.043 117.376 225.114 117.506C225.363 117.944 225.683 118.317 226.014 118.666C226.144 118.791 226.275 118.909 226.411 119.027C226.517 119.116 226.624 119.199 226.736 119.282C226.742 119.288 226.748 119.294 226.754 119.294C226.642 119.033 226.523 118.785 226.405 118.536ZM226.405 118.536C226.287 118.288 226.168 118.039 226.044 117.796C225.991 117.749 225.937 117.707 225.884 117.666C225.843 117.636 225.807 117.607 225.766 117.577C225.7 117.524 225.635 117.482 225.564 117.441C225.499 117.394 225.434 117.352 225.363 117.311H225.357C225.316 117.287 225.28 117.269 225.239 117.246C225.215 117.234 225.186 117.216 225.162 117.204C225.079 117.163 224.996 117.127 224.913 117.092C224.972 117.24 225.043 117.376 225.114 117.506C225.363 117.944 225.683 118.317 226.014 118.666C226.144 118.791 226.275 118.909 226.411 119.027C226.517 119.116 226.624 119.199 226.736 119.282C226.742 119.288 226.748 119.294 226.754 119.294C226.642 119.033 226.523 118.785 226.405 118.536Z" fill="white"/>
<path d="M216.229 117.888C216.063 119.256 215.667 120.96 215.01 123.026C214.501 124.613 213.998 126.063 213.506 127.395C211.002 126.489 208.682 125.199 206.616 123.595C206.119 123.21 205.633 122.801 205.172 122.381C206.012 121.262 206.859 120.179 207.699 119.143C210.493 115.704 212.885 113.839 214.436 113.703C214.495 113.697 214.554 113.691 214.613 113.691C215.933 113.691 216.572 115.053 216.229 117.888Z" fill="#FFC4C0"/>
<path d="M216.561 118.386C216.395 119.901 216.07 121.257 215.993 121.559C215.715 122.678 215.158 124.246 214.478 125.981C214.276 126.484 214.063 126.999 213.85 127.52C213.832 127.508 213.809 127.502 213.791 127.496C213.696 127.46 213.601 127.431 213.507 127.395C211.003 126.49 208.682 125.199 206.617 123.595C206.119 123.21 205.634 122.802 205.172 122.382C205.007 122.234 204.847 122.086 204.693 121.938C206.486 119.653 208.221 117.735 209.783 116.356C212.068 114.343 213.625 113.538 214.673 113.491C214.75 113.485 214.821 113.485 214.886 113.491C216.691 113.591 216.804 116.166 216.561 118.386Z" fill="#FF8C1A"/>
<path d="M210.559 117.978C210.47 118.019 210.387 118.073 210.304 118.12C210.222 118.167 210.139 118.221 210.062 118.28C210.02 118.303 209.985 118.327 209.955 118.357C209.908 118.392 209.86 118.428 209.819 118.463C209.807 118.469 209.801 118.475 209.795 118.481C209.606 118.629 209.434 118.789 209.263 118.949C208.825 119.404 208.422 119.896 208.156 120.523C208.304 120.464 208.446 120.393 208.582 120.316C209.014 120.073 209.387 119.754 209.73 119.422C210.168 118.972 210.571 118.475 210.831 117.848C210.737 117.889 210.648 117.931 210.559 117.978Z" fill="white"/>
<path d="M214.478 125.981V125.999C214.295 126.514 214.105 127.029 213.916 127.538C213.892 127.538 213.875 127.526 213.851 127.52C213.833 127.508 213.809 127.502 213.792 127.496C214.011 126.993 214.23 126.49 214.437 125.981C214.437 125.957 214.472 125.963 214.478 125.981Z" fill="#263238"/>
<path d="M221.883 122.482C219.213 122.582 215.602 117.817 214.495 114.319C214.418 114.076 215.206 111.862 216.028 109.122C216.52 107.458 217.029 105.594 217.372 103.859C217.443 103.504 227.731 108.648 227.731 108.648C227.731 108.648 225.943 112.075 225.363 115.106C225.316 115.361 225.298 115.597 225.298 115.834C225.298 115.87 225.298 115.911 225.292 115.953C225.245 117.35 224.458 122.381 221.877 122.482H221.883Z" fill="#FFC4C0"/>
<path d="M218.035 104.037C217.964 107.067 218.39 114.52 224.167 115.792C224.57 115.881 224.943 115.935 225.292 115.952C225.304 115.905 225.298 115.864 225.304 115.828C225.304 115.591 225.321 115.354 225.369 115.106C225.949 112.069 227.737 108.648 227.737 108.648C227.737 108.648 220.314 104.936 218.035 104.037Z" fill="#263238"/>
<path d="M215.519 92.4477C214.4 96.4078 216.72 107.72 219.568 110.194C223.699 113.781 230.347 113.988 233.36 109.052C236.284 104.263 233.005 89.5709 229.832 87.3334C225.155 84.0422 217.164 86.5994 215.513 92.4477H215.519Z" fill="#FFC4C0"/>
<path d="M225.427 99.5933C225.427 99.5933 225.374 99.6406 225.386 99.6761C225.593 100.428 225.7 101.322 225.072 101.736C225.054 101.748 225.066 101.789 225.09 101.778C225.895 101.458 225.741 100.274 225.427 99.5933Z" fill="#263238"/>
<path d="M224.558 98.965C223.321 99.1663 223.806 101.629 224.954 101.445C226.085 101.262 225.594 98.7993 224.558 98.965Z" fill="#263238"/>
<path d="M229.802 98.7142C229.802 98.6846 229.867 98.7379 229.873 98.7675C230.003 99.537 230.275 100.395 231.015 100.508C231.039 100.508 231.045 100.549 231.015 100.549C230.151 100.597 229.796 99.4542 229.796 98.7083L229.802 98.7142Z" fill="#263238"/>
<path d="M230.323 97.7785C231.53 97.4411 232.116 99.8858 230.997 100.194C229.896 100.501 229.31 98.0567 230.323 97.7785Z" fill="#263238"/>
<path d="M223.403 97.7574C223.723 97.6095 223.995 97.4141 224.291 97.2365C224.628 97.0353 224.918 96.905 225.096 96.5321C225.191 96.3309 225.078 96.029 224.889 95.9165C224.457 95.662 223.977 95.804 223.557 96.0349C223.101 96.2835 222.817 96.5913 222.622 97.0708C222.432 97.5325 222.977 97.9587 223.397 97.7574H223.403Z" fill="#263238"/>
<path d="M231.234 96.7798C230.885 96.8213 230.554 96.7976 230.204 96.7976C229.808 96.7976 229.494 96.845 229.151 96.6141C228.967 96.4898 228.902 96.1701 229.009 95.9807C229.245 95.5368 229.731 95.4125 230.204 95.3888C230.719 95.3651 231.128 95.4776 231.542 95.7854C231.945 96.0814 231.702 96.7266 231.24 96.7739L231.234 96.7798Z" fill="#263238"/>
<path d="M225.895 106.28C226.049 106.487 226.197 106.765 226.469 106.83C226.735 106.895 227.067 106.824 227.327 106.765C227.351 106.765 227.375 106.789 227.357 106.813C227.114 107.079 226.664 107.197 226.315 107.079C225.978 106.966 225.853 106.635 225.818 106.303C225.818 106.256 225.877 106.25 225.895 106.28Z" fill="#263238"/>
<path d="M226.552 104.048C227.108 104.628 227.813 104.865 228.517 104.859C228.831 104.859 229.15 104.806 229.458 104.717C229.517 104.705 229.577 104.687 229.63 104.664C229.683 104.646 229.73 104.628 229.79 104.605C229.878 104.575 229.908 104.492 229.908 104.403C229.902 104.368 229.896 104.35 229.884 104.32L229.872 104.249C229.772 103.657 229.535 102.775 229.535 102.775C229.772 102.841 230.962 103.113 230.885 102.811C230.228 100.301 229.5 97.5072 228.316 95.1454C228.28 95.0625 228.156 95.1098 228.18 95.1927C228.712 97.6315 229.677 99.9578 230.251 102.402C229.878 102.337 229.257 102.207 228.949 102.272C228.872 102.314 229.434 103.971 229.458 104.237C229.458 104.237 229.458 104.249 229.458 104.267C228.493 104.587 227.694 104.439 226.605 103.965C226.54 103.936 226.487 103.995 226.546 104.048H226.552Z" fill="#263238"/>
<path d="M215.075 101.305C218.076 101.453 219.568 97.8423 218.804 94.9833C218.804 94.9833 226.801 95.8712 227.05 89.4605C227.05 89.4605 228.678 92.2071 232.294 92.2248L233.235 94.5689C234.046 94.3144 234.869 91.9703 232.833 90.1886C232.833 90.1886 232.626 86.998 230.234 85.1334C227.843 83.2688 225.528 84.577 225.528 84.577C225.528 84.577 223.622 83.0557 220.692 83.4938C217.762 83.9318 216.608 86.637 216.608 86.637C216.608 86.637 212.672 87.4775 212.062 90.2951C211.446 93.1128 212.938 94.9655 212.938 94.9655C212.938 94.9655 211.967 96.0902 212.524 98.4757C212.879 100.009 214.169 101.264 215.075 101.311V101.305Z" fill="#263238"/>
<path d="M226.86 88.8921C226.925 89.413 226.955 89.9398 226.913 90.4548C226.895 90.9757 226.795 91.4848 226.659 91.9761C226.357 92.9528 225.735 93.8111 224.859 94.3142C224.013 94.8825 222.947 94.995 221.935 95.1133C221.42 95.1133 220.899 95.1429 220.378 95.1074C219.857 95.066 219.336 95.0127 218.81 94.9831C219.325 95.0956 219.84 95.1844 220.36 95.2909C220.881 95.362 221.414 95.362 221.947 95.4034C223.001 95.3383 224.107 95.2258 225.055 94.6339C225.99 94.0656 226.676 93.1067 226.931 92.059C227.186 91.0112 227.144 89.9161 226.866 88.898L226.86 88.8921Z" fill="#263238"/>
<path d="M231.045 92.5086C230.151 92.2067 229.311 91.8101 228.6 91.2596C228.233 90.9932 227.925 90.6617 227.647 90.3066C227.357 89.9514 227.168 89.537 226.949 89.1108C227.014 89.5785 227.144 90.052 227.41 90.4664C227.653 90.8866 227.985 91.2596 228.375 91.5555C228.766 91.8515 229.192 92.0883 229.648 92.2481C230.104 92.4079 230.571 92.5145 231.051 92.5204L231.045 92.5086Z" fill="#263238"/>
<path d="M218.141 101.652C218.141 101.652 215.424 98.0887 213.796 99.0713C212.168 100.054 214.317 105.298 216.306 105.944C218.289 106.589 218.928 104.766 218.928 104.766L218.147 101.652H218.141Z" fill="#FFC4C0"/>
<path d="M214.453 100.558C214.424 100.558 214.418 100.599 214.447 100.611C215.844 101.108 216.614 102.351 217.176 103.648C216.75 103.156 216.182 102.902 215.519 103.417C215.483 103.446 215.519 103.5 215.56 103.488C216.117 103.346 216.525 103.423 216.922 103.861C217.206 104.168 217.401 104.565 217.608 104.92C217.679 105.039 217.898 104.968 217.845 104.825C217.845 104.814 217.839 104.802 217.833 104.796C217.798 103.044 216.336 100.658 214.453 100.558Z" fill="#263238"/>
<g opacity="0.2">
<path d="M221.745 102.71C221.745 102.811 221.656 102.888 221.555 102.882C221.455 102.882 221.378 102.793 221.384 102.692C221.384 102.592 221.472 102.515 221.573 102.521C221.674 102.521 221.751 102.61 221.745 102.71Z" fill="black"/>
<path d="M225.551 102.695C225.551 102.795 225.462 102.872 225.362 102.866C225.261 102.866 225.184 102.777 225.19 102.677C225.19 102.576 225.279 102.499 225.38 102.505C225.48 102.505 225.557 102.594 225.551 102.695Z" fill="black"/>
<path d="M224.154 103.97C224.154 104.071 224.065 104.148 223.965 104.142C223.864 104.142 223.787 104.053 223.793 103.953C223.793 103.852 223.882 103.775 223.983 103.781C224.083 103.781 224.16 103.87 224.154 103.97Z" fill="black"/>
<path d="M221.91 101.21C221.91 101.31 221.821 101.387 221.721 101.381C221.62 101.381 221.543 101.293 221.549 101.192C221.549 101.091 221.638 101.014 221.738 101.02C221.839 101.02 221.916 101.109 221.91 101.21Z" fill="black"/>
<path d="M223.657 102.31C223.657 102.411 223.568 102.488 223.468 102.482C223.367 102.482 223.29 102.393 223.296 102.293C223.296 102.192 223.385 102.115 223.485 102.121C223.586 102.121 223.663 102.21 223.657 102.31Z" fill="black"/>
<path d="M233.116 100.092C233.116 100.192 233.028 100.269 232.927 100.263C232.826 100.263 232.749 100.174 232.755 100.074C232.755 99.9732 232.844 99.8963 232.945 99.9022C233.045 99.9022 233.122 99.991 233.116 100.092Z" fill="black"/>
<path d="M231.66 101.062C231.66 101.163 231.571 101.24 231.47 101.234C231.37 101.234 231.293 101.145 231.299 101.045C231.299 100.944 231.388 100.867 231.488 100.873C231.589 100.873 231.666 100.962 231.66 101.062Z" fill="black"/>
<path d="M231.968 102.267C231.968 102.368 231.879 102.445 231.779 102.439C231.678 102.439 231.601 102.35 231.607 102.25C231.607 102.149 231.696 102.072 231.796 102.078C231.897 102.078 231.974 102.167 231.968 102.267Z" fill="black"/>
<path d="M233.24 101.493C233.24 101.594 233.152 101.671 233.051 101.665C232.95 101.665 232.873 101.576 232.879 101.476C232.879 101.375 232.968 101.298 233.069 101.304C233.169 101.304 233.246 101.393 233.24 101.493Z" fill="black"/>
</g>
<path d="M189.795 261.676C191.446 262.274 240.299 263.239 242.14 262.114C242.353 262.002 243.152 245.836 243.152 245.836C243.093 245.605 243.91 244.048 245.153 241.882C248.639 235.803 255.446 224.917 255.446 224.917L226.447 216.15L214.538 240.011L211.501 246.096C211.501 246.096 204.842 248.701 199.029 251.294C199.023 251.3 199.011 251.3 199.011 251.311C195.43 252.904 192.322 254.366 191.594 254.91C189.724 256.349 188.137 261.09 189.789 261.676H189.795Z" fill="#FFC4C0"/>
<path d="M189.795 261.677C191.446 262.275 240.299 263.239 242.14 262.115C242.353 262.002 243.152 245.836 243.152 245.836C243.093 245.606 243.91 244.049 245.153 241.882L214.538 240.006L211.501 246.091C211.501 246.091 204.842 248.695 199.029 251.288C199.023 251.294 199.011 251.294 199.011 251.306C195.43 252.898 192.322 254.36 191.594 254.905C189.724 256.343 188.137 261.085 189.789 261.671L189.795 261.677Z" fill="white"/>
<path d="M189.594 261.859C191.292 262.463 240.216 263.298 242.098 262.155C242.815 261.723 243.679 254.194 243.152 245.842L211.614 245.338C211.614 245.338 193.346 253.412 191.417 254.892C189.493 256.372 187.895 261.261 189.594 261.865V261.859Z" fill="#FF8C1A"/>
<path opacity="0.1" d="M242.092 262.15C241.406 262.565 234.451 262.724 225.82 262.724L242.377 245.825H242.383L243.152 245.837C243.679 254.189 242.815 261.718 242.092 262.15Z" fill="black"/>
<path d="M190.327 259.916C198.531 259.857 231.627 260.384 239.742 260.946C239.807 260.946 239.807 260.994 239.742 260.999C231.615 261.236 198.52 260.437 190.327 260.052C190.155 260.046 190.155 259.916 190.327 259.916Z" fill="#263238"/>
<path d="M194.59 253.181C196.537 253.134 198.42 254.093 199.461 255.271C200.462 256.402 201.308 257.982 201.219 259.681C201.219 259.728 201.125 259.728 201.119 259.681C200.704 256.467 197.834 253.596 194.584 253.288C194.519 253.282 194.519 253.187 194.584 253.187L194.59 253.181Z" fill="#263238"/>
<path d="M209.027 246.115C212.312 246.127 216.094 247.352 218.089 250.069C218.166 250.176 218.018 250.282 217.918 250.229C214.976 248.649 212.176 247.459 208.961 246.518C208.737 246.453 208.79 246.115 209.027 246.115Z" fill="#263238"/>
<path d="M206.475 247.057C209.761 247.068 213.543 248.294 215.538 251.011C215.615 251.117 215.467 251.224 215.366 251.171C212.424 249.59 209.624 248.4 206.41 247.459C206.185 247.394 206.239 247.057 206.475 247.057Z" fill="#263238"/>
<path d="M203.925 248.003C207.21 248.015 210.992 249.241 212.987 251.958C213.064 252.064 212.916 252.171 212.815 252.117C209.874 250.537 207.074 249.347 203.86 248.406C203.635 248.341 203.688 248.003 203.925 248.003Z" fill="#263238"/>
<path d="M201.372 248.945C204.658 248.957 208.44 250.182 210.435 252.899C210.512 253.006 210.364 253.112 210.263 253.059C207.321 251.478 204.521 250.289 201.307 249.347C201.082 249.282 201.136 248.945 201.372 248.945Z" fill="#263238"/>
<path d="M237.783 253.125C241.464 253.196 241.358 258.92 237.67 258.849C233.988 258.778 234.095 253.054 237.783 253.125Z" fill="#263238"/>
<path d="M205.806 242.108C207.541 244.423 210.21 245.908 212.519 247.566C212.756 247.737 213.04 247.548 213.111 247.311C213.164 247.311 213.217 247.288 213.217 247.217C213.081 244.387 211.998 241.12 210.376 238.77C209.376 237.319 207.304 235.94 205.623 237.29C204.031 238.568 204.794 240.753 205.8 242.102L205.806 242.108ZM205.7 239.385C206.085 235.822 209.263 238.616 209.956 239.717C210.4 240.421 210.773 241.191 211.116 241.948C211.838 243.535 212.324 245.198 212.88 246.844C211.797 245.962 210.642 245.18 209.53 244.334C208.198 243.328 205.481 241.35 205.694 239.385H205.7Z" fill="#263238"/>
<path d="M224.914 245.328C224.695 243.179 222.256 242.676 220.522 242.978C217.716 243.469 214.626 244.991 212.513 246.879C212.46 246.926 212.478 246.985 212.519 247.015C212.407 247.234 212.466 247.566 212.756 247.619C215.556 248.104 218.492 248.968 221.357 248.578C223.032 248.353 225.121 247.358 224.914 245.328ZM217.154 247.483C215.769 247.275 214.407 247.009 213.016 246.855C214.579 246.097 216.106 245.281 217.746 244.683C218.527 244.399 219.338 244.12 220.155 243.943C221.422 243.671 225.648 243.967 223.375 246.749C222.126 248.282 218.805 247.731 217.16 247.489L217.154 247.483Z" fill="#263238"/>
<path d="M247.36 241.57L212.962 236.355C212.962 236.355 229.495 203.402 239.735 185.513C245.424 175.569 260.998 175.083 268.569 186.999C278.685 202.916 286.534 217.827 291.033 226.096L298.834 226.765L297.153 239.516L271.221 245.323C261.288 246.512 254.315 228.825 254.155 229.127C252.9 231.448 247.366 241.57 247.366 241.57H247.36Z" fill="#263238"/>
<path d="M253.966 229.205C254.942 227.205 255.706 225.074 256.576 223.02C257.417 221.031 258.263 219.048 259.098 217.059C260.785 213.039 262.531 209.038 264.171 205.001C265.088 202.734 265.935 200.437 266.793 198.146C266.811 198.093 266.9 198.117 266.882 198.176C266.219 200.342 265.526 202.497 264.804 204.646C264.999 204.273 265.189 203.906 265.39 203.545C265.941 202.556 266.515 201.58 267.083 200.603C267.107 200.567 267.16 200.603 267.142 200.638C266.615 201.621 266.089 202.598 265.538 203.563C265.266 204.042 264.97 204.522 264.68 205.001C262.638 211.009 260.323 216.917 257.547 222.629C256.452 224.872 255.173 227.021 254.078 229.264C254.043 229.336 253.936 229.27 253.972 229.199L253.966 229.205Z" fill="#37474F"/>
<path d="M246.59 235.455C248.247 232.898 252.195 225.149 253.61 222.474C256.469 217.058 259.091 211.529 261.566 205.929C262.963 202.762 264.271 199.572 265.567 196.363C265.573 196.34 265.609 196.352 265.603 196.375C263.655 202.153 261.335 207.817 258.813 213.37C256.292 218.928 248.152 233.91 246.69 235.526C246.637 235.585 246.542 235.526 246.584 235.461L246.59 235.455Z" fill="#37474F"/>
<path d="M267.948 200.636C270.913 205.928 273.938 211.184 276.916 216.47C278.419 219.14 279.923 221.815 281.414 224.491C282.113 225.752 282.794 227.03 283.522 228.273C284.208 229.451 285.031 230.428 286.239 231.091C287.57 231.825 289.104 232.174 290.554 232.594C292.229 233.086 293.886 233.613 295.567 234.074C295.644 234.098 295.609 234.21 295.532 234.193C294.034 233.79 292.519 233.447 291.016 233.074C289.648 232.736 288.239 232.452 286.913 231.967C285.712 231.529 284.676 230.878 283.871 229.866C283.013 228.782 282.403 227.516 281.74 226.314C278.768 220.88 275.82 215.422 272.902 209.959C271.239 206.851 269.593 203.737 267.912 200.642C267.9 200.624 267.93 200.612 267.942 200.624L267.948 200.636Z" fill="#37474F"/>
<path d="M248.141 236.748C246.081 236.375 243.968 236.192 241.89 235.925C239.806 235.659 237.723 235.387 235.639 235.114C231.484 234.57 217.331 232.32 216.265 231.965C216.2 231.942 216.224 231.835 216.289 231.829C217.301 231.8 226.571 233.031 228.648 233.339C232.804 233.948 236.935 234.688 241.079 235.387C242.263 235.588 243.441 235.813 244.619 236.02C245.797 236.227 246.975 236.482 248.165 236.636C248.236 236.648 248.218 236.76 248.147 236.748H248.141Z" fill="#37474F"/>
<path d="M226.369 269.042C226.991 267.402 258.145 229.755 260.193 229.092C260.43 229.003 273.192 238.948 273.192 238.948C273.701 239.693 298.965 235.497 298.965 235.497L297.899 265.709L252.338 262.755C252.338 262.755 246.022 266.112 240.256 268.811C240.244 268.811 240.244 268.817 240.239 268.811C236.693 270.486 233.556 271.895 232.674 272.084C230.365 272.57 225.736 270.67 226.369 269.036V269.042Z" fill="#FFC4C0"/>
<path d="M232.674 272.084C233.562 271.895 236.693 270.492 240.239 268.811C240.244 268.817 240.25 268.811 240.262 268.811C246.022 266.106 252.338 262.75 252.338 262.75L262.478 263.407L279.478 238.456C275.962 238.924 273.346 239.179 273.186 238.942C273.186 238.942 260.43 228.997 260.193 229.092C258.151 229.755 226.997 267.396 226.369 269.036C225.736 270.67 230.365 272.57 232.674 272.084Z" fill="white"/>
<path d="M226.098 269.076C226.749 267.395 258.039 229.778 260.134 229.097C260.927 228.836 267.196 233.092 273.186 238.941L252.989 263.169C252.989 263.169 234.953 271.74 232.568 272.243C230.194 272.734 225.447 270.751 226.098 269.076Z" fill="#FF8C1A"/>
<path d="M228.051 269.8C233.45 263.62 254.647 238.196 259.513 231.685C259.554 231.631 259.513 231.602 259.471 231.649C253.984 237.657 233 263.253 227.945 269.717C227.838 269.853 227.933 269.936 228.045 269.8H228.051Z" fill="#263238"/>
<path d="M235.936 270.962C237.238 269.517 237.747 267.463 237.534 265.907C237.333 264.409 236.682 262.74 235.338 261.698C235.302 261.668 235.243 261.739 235.273 261.775C237.439 264.19 237.741 268.233 235.853 270.897C235.817 270.95 235.888 271.009 235.93 270.962H235.936Z" fill="#263238"/>
<path d="M250.71 264.629C252.847 262.137 254.386 258.467 253.628 255.182C253.598 255.052 253.421 255.099 253.397 255.206C252.675 258.467 251.746 261.362 250.366 264.416C250.272 264.629 250.562 264.807 250.716 264.629H250.71Z" fill="#263238"/>
<path d="M248.331 265.952C250.468 263.46 252.007 259.79 251.249 256.505C251.219 256.375 251.042 256.422 251.018 256.529C250.296 259.79 249.367 262.685 247.987 265.739C247.893 265.952 248.183 266.13 248.337 265.952H248.331Z" fill="#263238"/>
<path d="M245.951 267.265C248.088 264.773 249.627 261.103 248.87 257.818C248.84 257.688 248.662 257.735 248.639 257.842C247.917 261.103 246.987 263.998 245.608 267.052C245.513 267.265 245.803 267.443 245.957 267.265H245.951Z" fill="#263238"/>
<path d="M243.572 268.585C245.709 266.093 247.248 262.423 246.49 259.138C246.461 259.007 246.283 259.055 246.259 259.161C245.537 262.423 244.608 265.317 243.229 268.372C243.134 268.585 243.424 268.762 243.578 268.585H243.572Z" fill="#263238"/>
<path d="M264.165 238.266C266.509 235.425 262.105 231.773 259.755 234.62C257.411 237.461 261.815 241.113 264.165 238.266Z" fill="#263238"/>
<path d="M255.18 272.957C257.299 272.561 257.607 270.092 257.163 268.387C256.441 265.629 254.677 262.675 252.617 260.728C252.563 260.68 252.51 260.704 252.48 260.746C252.256 260.651 251.924 260.734 251.9 261.03C251.646 263.859 251.03 266.854 251.652 269.678C252.019 271.323 253.179 273.33 255.186 272.957H255.18ZM252.392 265.398C252.48 264.001 252.64 262.622 252.676 261.225C253.558 262.723 254.499 264.173 255.233 265.759C255.582 266.517 255.926 267.298 256.168 268.097C256.547 269.34 256.594 273.573 253.641 271.537C252.013 270.418 252.285 267.062 252.392 265.398Z" fill="#263238"/>
<path d="M256.89 253.678C254.724 255.596 253.463 258.384 252.007 260.823C251.853 261.078 252.072 261.338 252.309 261.397C252.309 261.451 252.339 261.504 252.41 261.492C255.221 261.125 258.388 259.775 260.59 257.97C261.952 256.851 263.159 254.679 261.673 253.11C260.27 251.624 258.151 252.566 256.89 253.684V253.678ZM259.596 253.347C263.183 253.442 260.655 256.833 259.619 257.615C258.956 258.118 258.216 258.55 257.488 258.958C255.967 259.811 254.351 260.432 252.753 261.119C253.546 259.965 254.227 258.757 254.979 257.573C255.872 256.165 257.619 253.294 259.596 253.347Z" fill="#263238"/>
<path d="M284.279 227.863C284.279 227.863 323.347 222.618 336.133 226.063C353.968 230.87 356.01 252.292 342.277 260.443C324.874 270.772 264.508 265.019 264.508 265.019L281.361 236.618C281.361 236.618 306.648 231.906 329.319 233.735L283.58 239.394L284.279 227.869V227.863Z" fill="#263238"/>
<path d="M280.195 238.524C280.219 238.489 280.225 238.412 280.237 238.37C280.248 238.329 280.26 238.288 280.272 238.246C280.296 238.151 280.325 238.051 280.355 237.956C280.414 237.755 280.491 237.565 280.568 237.37C280.645 237.175 280.734 236.991 280.823 236.802C280.917 236.606 281.036 236.453 281.148 236.281C281.16 236.263 281.178 236.263 281.195 236.251C281.207 236.245 281.213 236.239 281.225 236.228C281.237 236.222 281.249 236.21 281.267 236.21C281.278 236.21 281.29 236.198 281.308 236.192C284.084 235.748 302.925 233.611 305.719 233.386C308.537 233.155 311.367 232.99 314.19 232.854C319.825 232.581 325.478 232.569 331.102 232.919C331.629 232.954 332.155 232.996 332.682 233.043C332.795 233.008 332.919 232.99 333.031 232.966C333.304 232.907 333.576 232.842 333.854 232.8C334.369 232.717 334.884 232.658 335.399 232.593C336.471 232.463 337.548 232.38 338.613 232.208C338.678 232.197 338.696 232.309 338.631 232.321C337.554 232.534 336.494 232.83 335.417 233.037C335.109 233.096 334.795 233.155 334.482 233.215C336.542 233.422 338.596 233.688 340.65 233.984C340.715 233.996 340.709 234.103 340.65 234.097C337.856 233.795 335.026 233.647 332.22 233.576C329.427 233.505 326.638 233.451 323.845 233.505C318.197 233.617 312.544 233.925 306.903 234.328C303.736 234.552 284.528 236.79 281.361 236.796C281.349 236.796 281.338 236.79 281.32 236.79C281.29 236.867 281.261 236.95 281.225 237.027C281.13 237.21 281.036 237.394 280.935 237.577C280.834 237.749 280.74 237.927 280.627 238.092C280.574 238.175 280.515 238.258 280.461 238.335C280.432 238.376 280.408 238.418 280.379 238.459C280.355 238.495 280.302 238.548 280.29 238.589C280.266 238.666 280.16 238.607 280.201 238.542L280.195 238.524Z" fill="#37474F"/>
<path d="M273.168 263.244C274.163 261.611 275.027 259.859 275.95 258.172C276.874 256.479 277.797 254.786 278.721 253.093C280.567 249.719 287.156 238.377 287.795 237.596C287.836 237.548 287.913 237.608 287.89 237.667C287.564 238.555 283.432 246.066 282.479 247.742C280.579 251.092 278.596 254.371 276.637 257.674C276.075 258.615 275.5 259.551 274.932 260.486C274.37 261.421 273.766 262.345 273.245 263.31C273.216 263.369 273.133 263.31 273.168 263.25V263.244Z" fill="#37474F"/>
<path d="M288.819 240.704C290.501 240.337 292.211 240.124 293.91 239.851C295.609 239.573 297.308 239.301 299.007 239.029C302.404 238.49 305.808 237.975 309.212 237.496C316.001 236.543 322.814 235.797 329.645 235.376C333.505 235.14 337.364 235.039 341.224 234.897C341.307 234.897 341.295 235.039 341.212 235.039C334.345 235.08 327.461 235.803 320.63 236.584C313.864 237.354 307.116 238.23 300.368 239.183C298.462 239.449 296.562 239.727 294.656 240.005C292.726 240.29 290.785 240.657 288.843 240.84C288.772 240.846 288.748 240.733 288.819 240.716V240.704Z" fill="#37474F"/>
<path d="M288.813 191.8C285.072 198.329 270.173 218.473 265.485 219.141C260.607 219.84 242.624 218.295 239.345 214.436C237.741 212.547 240.328 196.334 242.82 197.24C245.312 198.145 260.696 201.863 262.673 201.573C264.639 201.289 280.591 185.845 286.469 182.518C296.603 176.777 290.826 188.29 288.807 191.806L288.813 191.8Z" fill="#FFC4C0"/>
<path d="M246.78 197.75L242.986 217.84C242.986 217.84 260.998 221.534 266.308 219.977C271.623 218.42 286.463 197.317 290.79 188.971C295.117 180.625 291.335 178.435 283.569 183.632C275.803 188.829 263.336 200.49 262.129 200.544C260.921 200.591 246.78 197.755 246.78 197.755V197.75Z" fill="#FF8C1A"/>
<path d="M285.457 185.179C285.037 185.617 284.64 186.097 284.386 186.707C284.995 186.452 285.475 186.061 285.913 185.635C286.333 185.197 286.73 184.718 286.984 184.108C286.375 184.362 285.895 184.753 285.457 185.179ZM246.597 215.788C245.981 215.8 245.371 215.859 244.762 216.108C245.371 216.363 245.981 216.422 246.597 216.434C247.206 216.422 247.816 216.363 248.432 216.108C247.816 215.859 247.206 215.8 246.597 215.788ZM276.028 209.786C275.412 209.798 274.802 209.857 274.187 210.106C274.802 210.36 275.412 210.42 276.028 210.431C276.105 210.431 276.193 210.425 276.27 210.425C276.418 210.23 276.584 210.035 276.744 209.834C276.501 209.804 276.264 209.792 276.034 209.786H276.028ZM263.206 214.599C262.952 215.208 262.898 215.824 262.887 216.434C262.898 217.043 262.952 217.659 263.206 218.269C263.461 217.659 263.514 217.043 263.532 216.434C263.52 215.824 263.461 215.208 263.206 214.599ZM278.295 194.964C278.04 195.574 277.981 196.183 277.975 196.799C277.987 197.409 278.04 198.024 278.295 198.634C278.549 198.024 278.603 197.409 278.614 196.799C278.608 196.183 278.549 195.574 278.295 194.964ZM285.451 185.173C285.031 185.611 284.634 186.091 284.38 186.701C284.99 186.446 285.469 186.055 285.907 185.629C286.327 185.191 286.724 184.712 286.978 184.102C286.369 184.357 285.889 184.747 285.451 185.173ZM266.071 201.724C265.651 202.162 265.254 202.636 265 203.251C265.61 202.991 266.089 202.606 266.527 202.174C266.947 201.736 267.344 201.262 267.598 200.647C266.989 200.907 266.509 201.298 266.071 201.724ZM247.881 197.965C247.828 198.013 247.775 198.066 247.715 198.119C247.295 198.557 246.898 199.031 246.644 199.646C247.254 199.392 247.727 199.001 248.171 198.569C248.313 198.415 248.455 198.267 248.585 198.101C248.325 198.054 248.088 198.007 247.881 197.965ZM255.138 207.91C254.7 207.489 254.227 207.093 253.611 206.838C253.866 207.448 254.256 207.928 254.688 208.366C255.126 208.786 255.6 209.182 256.21 209.437C255.955 208.827 255.564 208.348 255.138 207.91ZM276.022 209.774C275.406 209.786 274.796 209.845 274.181 210.094C274.796 210.349 275.406 210.408 276.022 210.42C276.099 210.42 276.187 210.414 276.264 210.414C276.412 210.218 276.578 210.023 276.738 209.822C276.495 209.792 276.259 209.78 276.028 209.774H276.022ZM278.295 194.952C278.04 195.562 277.981 196.172 277.975 196.787C277.987 197.397 278.04 198.013 278.295 198.622C278.549 198.013 278.603 197.397 278.614 196.787C278.608 196.172 278.549 195.562 278.295 194.952Z" fill="white"/>
<path d="M250.035 208.7C250.343 207.108 251.521 200.739 251.693 199.141C251.693 199.117 251.657 199.099 251.645 199.129C251.184 200.626 249.834 206.877 249.52 208.47C248.905 211.642 248.218 214.821 247.952 218.053C247.952 218.112 248.035 218.142 248.052 218.083C248.922 215.005 249.426 211.844 250.029 208.706L250.035 208.7Z" fill="#263238"/>
<path opacity="0.1" d="M290.796 188.965C286.463 197.317 271.629 218.419 266.314 219.97C262.289 221.148 250.989 219.319 245.738 218.36L290.536 180.843C293.052 181.027 293.454 183.827 290.796 188.965Z" fill="black"/>
<path d="M275.093 228.798L319.381 231.367C319.328 230.461 312.396 205.061 307.418 195.389C301.031 182.988 298.196 181.094 296.302 180.461C293.875 179.65 288.896 179.656 287.428 181.994C279.514 194.637 274.489 228.236 275.093 228.798Z" fill="#FF8C1A"/>
<path d="M285.889 184.794C285.653 185.268 285.422 185.747 285.197 186.256C285.457 186.067 285.694 185.859 285.919 185.64C286.339 185.202 286.736 184.723 286.99 184.113C286.576 184.291 286.215 184.522 285.889 184.794ZM299.226 225.827C298.805 226.265 298.409 226.739 298.154 227.354C298.764 227.1 299.243 226.709 299.681 226.283C300.102 225.839 300.498 225.365 300.753 224.756C300.143 225.01 299.664 225.401 299.226 225.827ZM285.889 184.794C285.653 185.268 285.422 185.747 285.197 186.256C285.457 186.067 285.694 185.859 285.919 185.64C286.339 185.202 286.736 184.723 286.99 184.113C286.576 184.291 286.215 184.522 285.889 184.794ZM311.905 206.429H311.899C311.793 206.37 311.674 206.311 311.556 206.258C311.727 206.666 311.958 207.015 312.219 207.335C312.118 207.033 312.006 206.725 311.905 206.429ZM302.168 185.913C301.99 185.741 301.818 185.581 301.623 185.427H301.617C301.327 185.197 301.013 184.995 300.646 184.841C300.901 185.451 301.292 185.931 301.718 186.369C302.049 186.688 302.404 186.99 302.825 187.227C302.955 187.304 303.097 187.381 303.245 187.44C302.985 186.83 302.6 186.351 302.168 185.913ZM290.169 206.619C289.731 206.198 289.257 205.802 288.642 205.547C288.902 206.157 289.287 206.636 289.719 207.075C290.157 207.495 290.631 207.891 291.246 208.146C290.986 207.536 290.595 207.057 290.169 206.619ZM301.286 212.751C300.676 212.763 300.06 212.822 299.451 213.077C300.06 213.325 300.676 213.385 301.286 213.396C301.901 213.385 302.511 213.325 303.121 213.077C302.511 212.822 301.901 212.763 301.286 212.751ZM290.483 193.33C289.867 193.342 289.257 193.401 288.648 193.655C289.257 193.904 289.867 193.963 290.483 193.975C291.092 193.963 291.702 193.91 292.318 193.655C291.702 193.401 291.092 193.342 290.483 193.33ZM285.688 219.789C285.434 220.399 285.374 221.009 285.363 221.624C285.38 222.234 285.434 222.844 285.688 223.459C285.943 222.844 285.996 222.234 286.008 221.624C285.996 221.009 285.943 220.399 285.688 219.789ZM311.029 217.948C310.774 218.564 310.715 219.174 310.703 219.789C310.715 220.399 310.774 221.009 311.029 221.624C311.278 221.009 311.337 220.399 311.349 219.789C311.337 219.174 311.278 218.564 311.029 217.948ZM301.949 198.142C301.694 198.752 301.635 199.362 301.623 199.977C301.635 200.587 301.694 201.197 301.949 201.812C302.197 201.197 302.256 200.587 302.268 199.977C302.256 199.362 302.203 198.752 301.949 198.142Z" fill="white"/>
<path d="M303.69 186.102C314.883 199.864 327.107 222.713 321.122 227.135C315.653 231.172 296.74 226.045 284.967 220.706C282.723 219.688 293.088 199.935 295.355 201.261C299.339 203.593 302.482 204.99 302.784 205.091C303.435 205.304 300.055 200.699 296.592 189.866C293.076 178.862 297.291 178.229 303.684 186.096L303.69 186.102Z" fill="#FFC4C0"/>
<path d="M266.215 198.198C266.078 200.548 271.909 200.4 271.909 200.4C271.909 200.4 270.477 201.176 270.015 202.673C269.482 204.384 271.933 205.965 271.933 205.965C271.933 205.965 270.648 207.054 270.317 208.682C269.973 210.369 272.217 212.322 272.217 212.322C272.217 212.322 271.578 213.991 272.3 215.601C273.537 218.354 278.172 218.662 281.007 219.413C284.044 220.218 288.442 222 290.247 222.906L296.699 202.046C296.699 202.046 284.665 194.007 281.179 193.984C278.243 193.966 266.416 194.605 266.209 198.198H266.215Z" fill="#FFC4C0"/>
<path d="M271.957 200.327C275.082 199.599 278.373 199.617 281.546 199.67C281.617 199.67 281.611 199.783 281.546 199.783C278.385 199.694 275.13 200.446 271.975 200.481C271.886 200.481 271.874 200.351 271.957 200.327Z" fill="#263238"/>
<path d="M272.034 205.726C272.744 205.584 273.502 205.673 274.218 205.726C274.994 205.779 275.763 205.845 276.533 205.921C278.078 206.075 279.617 206.265 281.15 206.502C281.215 206.513 281.221 206.62 281.15 206.614C279.611 206.466 278.072 206.336 276.527 206.247C275.757 206.206 274.982 206.17 274.206 206.135C273.49 206.105 272.727 206.135 272.028 205.945C271.927 205.916 271.927 205.756 272.028 205.732L272.034 205.726Z" fill="#263238"/>
<path d="M272.288 212.313C272.904 212.165 273.638 212.337 274.259 212.414C274.964 212.497 275.662 212.579 276.367 212.656C277.77 212.81 279.178 212.964 280.587 213.071C280.658 213.071 280.652 213.183 280.587 213.183C279.155 213.083 277.722 213.006 276.29 212.893C275.585 212.84 274.881 212.781 274.182 212.716C273.585 212.662 272.833 212.662 272.288 212.39C272.259 212.372 272.27 212.325 272.3 212.319L272.288 212.313Z" fill="#263238"/>
<path d="M297.273 201.835L291.484 224.34C291.484 224.34 319.565 233.285 322.898 226.24C326.236 219.191 310.917 191.553 301.671 183.402C292.425 175.257 295.402 187.475 295.645 188.451C296.722 192.79 302.198 204.256 302.198 204.256L297.267 201.841L297.273 201.835Z" fill="#FF8C1A"/>
<path d="M301.949 198.142C301.695 198.751 301.636 199.361 301.624 199.977C301.636 200.586 301.695 201.196 301.949 201.812C302.198 201.196 302.257 200.586 302.269 199.977C302.257 199.361 302.204 198.751 301.949 198.142ZM311.03 217.948C310.775 218.563 310.716 219.173 310.704 219.789C310.716 220.398 310.775 221.008 311.03 221.624C311.278 221.008 311.337 220.398 311.349 219.789C311.337 219.173 311.278 218.563 311.03 217.948ZM301.286 212.757C300.677 212.768 300.061 212.828 299.451 213.082C300.061 213.331 300.677 213.39 301.286 213.402C301.902 213.39 302.512 213.331 303.121 213.082C302.512 212.828 301.902 212.768 301.286 212.757ZM302.168 185.918C301.73 185.498 301.257 185.101 300.647 184.847C300.902 185.456 301.292 185.936 301.718 186.374C302.157 186.794 302.636 187.191 303.246 187.445C302.985 186.836 302.6 186.356 302.168 185.918ZM321.619 224.53C321.181 224.11 320.708 223.713 320.098 223.459C320.353 224.068 320.743 224.548 321.17 224.986C321.608 225.406 322.087 225.803 322.697 226.057C322.436 225.448 322.052 224.968 321.619 224.53ZM313.078 207.328C312.64 206.908 312.16 206.512 311.551 206.257C311.805 206.867 312.196 207.346 312.622 207.784C313.06 208.205 313.539 208.601 314.149 208.856C313.895 208.246 313.504 207.766 313.078 207.328ZM299.221 225.826C299.055 226.004 298.895 226.176 298.741 226.365C298.966 226.418 299.179 226.472 299.41 226.531C299.499 226.454 299.593 226.371 299.676 226.288C300.097 225.844 300.493 225.371 300.748 224.761C300.138 225.016 299.659 225.406 299.221 225.832V225.826Z" fill="white"/>
<path d="M297.764 201.877C300.972 203.203 309.313 207.933 311.1 209.785C311.154 209.839 311.089 209.928 311.029 209.88C309.248 208.477 298.93 202.73 297.308 202.007C297.308 202.007 297.22 202.209 297.178 202.256C297.119 202.333 297.077 202.286 297.083 202.209C297.083 202.155 297.214 201.688 297.237 201.658C297.237 201.658 297.409 201.729 297.758 201.871L297.764 201.877Z" fill="#263238"/>
<path d="M299.522 214.734C299.913 213.165 301.44 206.867 301.701 205.275C301.701 205.251 301.665 205.233 301.653 205.263C301.109 206.731 299.422 212.899 299.025 214.474C298.238 217.611 297.373 220.748 296.935 223.956C296.93 224.016 297.018 224.051 297.036 223.986C298.072 220.961 298.753 217.83 299.522 214.734Z" fill="#263238"/>
<path d="M302.417 204.397C301.623 202.414 300.635 200.508 299.759 198.567C298.883 196.631 297.965 194.702 297.154 192.736C297.143 192.713 297.101 192.73 297.107 192.754C297.592 194.092 298.078 195.424 298.599 196.744C298.433 196.531 298.273 196.312 298.119 196.087C297.841 195.684 297.581 195.264 297.332 194.838C297.314 194.808 297.279 194.838 297.291 194.861C297.48 195.335 297.723 195.773 298.013 196.193C298.226 196.507 298.474 196.791 298.729 197.069C298.942 197.608 299.167 198.141 299.404 198.673C300.274 200.639 300.925 202.58 302.085 204.392C302.121 204.451 302.44 204.468 302.417 204.403V204.397Z" fill="#263238"/>
<path d="M318.719 228.59C312.918 229.407 294.692 225.18 291.584 224.369C291.643 224.038 291.637 223.919 291.714 223.452C291.726 223.392 291.631 223.357 291.614 223.422C291.501 223.86 291.158 224.736 291.276 224.789C292.75 225.464 313.054 230.093 318.707 228.726C318.795 228.702 318.801 228.572 318.707 228.584L318.719 228.59Z" fill="#263238"/>
<path d="M273.719 220.007L250 222.688L241.725 189.623L265.444 186.941L273.719 220.007Z" fill="#37474F"/>
<path d="M272.554 220.139L248.835 222.82L240.565 189.755L264.284 187.079L272.554 220.139Z" fill="#455A64"/>
<path d="M253.28 203.83C253.534 205.09 254.777 205.996 256.05 205.854C257.322 205.712 258.151 204.569 257.897 203.309C257.642 202.048 256.399 201.142 255.126 201.284C253.854 201.426 253.025 202.569 253.28 203.83Z" fill="white"/>
<path d="M240.654 196.539C239.612 199.286 236.711 202.825 236.629 205.004C236.552 206.975 238.227 207.531 238.227 207.531C238.227 207.531 236.155 208.78 236.404 210.769C236.534 211.793 238.28 212.492 238.28 212.492C238.28 212.492 236.664 213.563 236.996 215.321C237.256 216.724 238.973 217.21 238.973 217.21C238.973 217.21 237.901 218.962 238.629 220.299C240.103 223.022 252.297 222.04 253.818 217.399C254.529 215.232 251.563 215.635 251.563 215.635C251.563 215.635 255.689 214.031 255.553 211.509C255.417 208.988 251.593 209.745 251.593 209.745C251.593 209.745 255.576 208.153 255.174 205.554C254.754 202.849 251.06 204.258 251.06 204.258C251.06 204.258 253.623 202.204 252.859 200.286C251.593 197.119 246.786 201.612 244.057 201.192L242.222 196.888L240.66 196.533L240.654 196.539Z" fill="#FFC4C0"/>
<path d="M238.517 200.577C239.281 197.889 235.788 194.93 236.149 192.254C236.635 188.637 240.914 191.804 242.217 196.889L242.536 201.021L238.517 200.577Z" fill="#FFC4C0"/>
<path d="M239.233 217.33C239.192 217.33 239.186 217.389 239.227 217.395C243.317 218.052 248.011 217.519 251.729 215.637C251.853 215.578 251.806 215.353 251.658 215.394C247.455 216.596 243.625 217.33 239.233 217.33Z" fill="#263238"/>
<path d="M238.221 212.522C238.173 212.522 238.173 212.599 238.221 212.611C242.441 213.262 247.71 212.516 251.741 209.846C251.877 209.758 251.912 209.533 251.741 209.627C248.923 211.202 242.169 212.546 238.215 212.522H238.221Z" fill="#263238"/>
<path d="M251.291 203.976C247.325 206.385 242.986 207.285 238.399 207.569C238.339 207.569 238.351 207.658 238.399 207.67C240.684 208.143 243.59 207.658 245.816 207.089C247.953 206.545 249.77 205.627 251.374 204.118C251.433 204.059 251.374 203.928 251.291 203.982V203.976Z" fill="#263238"/>
<path d="M289.927 189.339C292.52 189.433 296.018 184.816 297.096 181.419C297.167 181.188 296.409 179.033 295.61 176.375C295.13 174.759 294.639 172.954 294.308 171.267C294.242 170.924 284.256 175.914 284.256 175.914C284.256 175.914 285.991 179.24 286.553 182.176C286.595 182.425 286.618 182.656 286.618 182.881C286.618 182.91 286.618 182.952 286.624 182.999C286.672 184.355 287.429 189.238 289.933 189.333L289.927 189.339Z" fill="#FFC4C0"/>
<path d="M293.662 171.443C293.733 174.385 293.319 181.612 287.713 182.85C287.323 182.938 286.961 182.986 286.624 183.003C286.612 182.956 286.618 182.921 286.612 182.885C286.612 182.66 286.594 182.429 286.553 182.181C285.991 179.239 284.256 175.912 284.256 175.912C284.256 175.912 291.46 172.307 293.668 171.437L293.662 171.443Z" fill="#263238"/>
<path d="M296.101 160.194C297.184 164.036 294.935 175.01 292.171 177.414C288.163 180.894 281.711 181.095 278.787 176.307C275.952 171.66 279.13 157.406 282.208 155.234C286.743 152.037 294.497 154.523 296.095 160.194H296.101Z" fill="#FFC4C0"/>
<path d="M285.167 166.691C285.167 166.691 285.215 166.738 285.209 166.768C285.008 167.496 284.907 168.366 285.511 168.769C285.529 168.78 285.517 168.816 285.493 168.81C284.712 168.502 284.86 167.354 285.167 166.691Z" fill="#263238"/>
<path d="M286.008 166.08C287.21 166.276 286.736 168.661 285.623 168.484C284.528 168.306 285.002 165.921 286.008 166.08Z" fill="#263238"/>
<path d="M281.019 165.893C281.019 165.893 280.954 165.916 280.948 165.946C280.824 166.692 280.557 167.526 279.841 167.639C279.817 167.639 279.812 167.68 279.841 167.68C280.682 167.728 281.025 166.621 281.019 165.893Z" fill="#263238"/>
<path d="M280.51 164.986C279.338 164.661 278.77 167.028 279.859 167.33C280.93 167.626 281.493 165.259 280.51 164.986Z" fill="#263238"/>
<path d="M287.162 164.749C286.855 164.601 286.588 164.418 286.298 164.246C285.967 164.051 285.689 163.926 285.517 163.565C285.428 163.37 285.535 163.074 285.718 162.967C286.138 162.719 286.6 162.861 287.009 163.08C287.447 163.323 287.725 163.618 287.914 164.08C288.098 164.53 287.571 164.939 287.162 164.749Z" fill="#263238"/>
<path d="M279.627 163.571C279.965 163.606 280.29 163.588 280.628 163.588C281.013 163.588 281.314 163.636 281.652 163.411C281.829 163.292 281.889 162.985 281.794 162.795C281.563 162.363 281.095 162.245 280.634 162.221C280.131 162.197 279.74 162.304 279.337 162.606C278.947 162.896 279.183 163.517 279.627 163.565V163.571Z" fill="#263238"/>
<path d="M285.334 173.612C285.18 173.814 285.044 174.086 284.778 174.145C284.523 174.21 284.197 174.139 283.949 174.08C283.925 174.08 283.901 174.104 283.925 174.122C284.162 174.376 284.6 174.494 284.937 174.376C285.263 174.264 285.387 173.944 285.423 173.624C285.423 173.577 285.369 173.571 285.346 173.601L285.334 173.612Z" fill="#263238"/>
<path d="M284.7 171.442C284.156 172.004 283.481 172.235 282.794 172.229C282.486 172.229 282.179 172.176 281.877 172.093C281.818 172.081 281.758 172.064 281.705 172.04C281.652 172.022 281.604 172.004 281.545 171.981C281.462 171.951 281.427 171.868 281.427 171.785C281.427 171.756 281.439 171.732 281.451 171.708L281.462 171.637C281.557 171.063 281.788 170.211 281.788 170.211C281.557 170.276 280.403 170.542 280.48 170.246C281.119 167.808 281.823 165.102 282.972 162.812C283.007 162.735 283.126 162.776 283.102 162.859C282.581 165.227 281.652 167.482 281.095 169.85C281.462 169.791 282.06 169.66 282.356 169.726C282.433 169.767 281.889 171.371 281.865 171.632C281.865 171.632 281.865 171.643 281.865 171.661C282.8 171.975 283.576 171.827 284.635 171.371C284.7 171.342 284.748 171.401 284.688 171.454L284.7 171.442Z" fill="#263238"/>
<path d="M282.498 172.158C282.498 172.158 282.942 172.833 283.587 173.099C283.824 173.2 284.085 173.247 284.363 173.188C284.931 173.07 284.972 172.555 284.896 172.111C284.83 171.744 284.682 171.424 284.682 171.424C284.682 171.424 283.824 172.146 282.504 172.158H282.498Z" fill="#263238"/>
<path d="M283.588 173.1C283.824 173.2 284.085 173.248 284.363 173.189C284.931 173.07 284.973 172.555 284.896 172.111C284.292 172.141 283.671 172.52 283.594 173.1H283.588Z" fill="#FF9BBC"/>
<path d="M296.534 168.779C293.621 168.921 292.171 165.423 292.917 162.641C292.917 162.641 285.157 163.505 284.92 157.284C284.92 157.284 283.345 159.948 279.829 159.965L278.918 162.238C278.13 161.99 277.331 159.717 279.308 157.988C279.308 157.988 279.51 154.893 281.83 153.087C284.15 151.276 286.394 152.548 286.394 152.548C286.394 152.548 288.241 151.075 291.082 151.495C293.923 151.921 295.042 154.543 295.042 154.543C295.042 154.543 298.86 155.354 299.452 158.095C300.05 160.83 298.599 162.629 298.599 162.629C298.599 162.629 299.541 163.718 299.002 166.033C298.659 167.519 297.404 168.738 296.528 168.779H296.534Z" fill="#263238"/>
<path d="M285.103 156.741C285.044 157.244 285.009 157.753 285.056 158.257C285.074 158.76 285.169 159.257 285.305 159.731C285.595 160.678 286.198 161.512 287.051 161.998C287.874 162.548 288.904 162.655 289.886 162.773C290.389 162.773 290.893 162.797 291.396 162.767C291.899 162.726 292.408 162.672 292.917 162.643C292.42 162.755 291.917 162.838 291.413 162.939C290.904 163.01 290.389 163.01 289.874 163.045C288.856 162.98 287.779 162.874 286.861 162.3C285.95 161.749 285.287 160.82 285.038 159.802C284.796 158.783 284.831 157.724 285.103 156.735V156.741Z" fill="#263238"/>
<path d="M281.037 160.243C281.907 159.947 282.718 159.569 283.411 159.03C283.766 158.769 284.062 158.45 284.334 158.106C284.618 157.763 284.802 157.355 285.009 156.946C284.944 157.396 284.819 157.864 284.565 158.26C284.328 158.669 284.008 159.03 283.63 159.314C283.251 159.598 282.836 159.829 282.398 159.983C281.96 160.137 281.499 160.243 281.037 160.243Z" fill="#263238"/>
<path d="M293.556 169.124C293.556 169.124 296.196 165.667 297.77 166.62C299.351 167.573 297.261 172.658 295.337 173.291C293.414 173.918 292.792 172.148 292.792 172.148L293.55 169.13L293.556 169.124Z" fill="#FFC4C0"/>
<path d="M297.137 168.058C297.167 168.058 297.173 168.1 297.143 168.111C295.787 168.597 295.042 169.798 294.497 171.059C294.911 170.586 295.462 170.337 296.101 170.834C296.137 170.858 296.101 170.911 296.06 170.905C295.521 170.769 295.124 170.846 294.734 171.266C294.461 171.562 294.266 171.947 294.065 172.296C294 172.415 293.787 172.338 293.834 172.208C293.834 172.196 293.84 172.19 293.846 172.178C293.881 170.479 295.296 168.159 297.125 168.064L297.137 168.058Z" fill="#263238"/>
<g opacity="0.2">
<path d="M289.365 170.148C289.365 170.243 289.454 170.32 289.549 170.314C289.643 170.308 289.72 170.225 289.714 170.13C289.714 170.036 289.626 169.959 289.531 169.965C289.436 169.965 289.359 170.053 289.365 170.148Z" fill="black"/>
<path d="M285.671 170.135C285.671 170.229 285.76 170.306 285.855 170.3C285.95 170.3 286.026 170.211 286.021 170.117C286.021 170.022 285.932 169.945 285.837 169.951C285.742 169.951 285.665 170.04 285.671 170.135Z" fill="black"/>
<path d="M287.026 171.375C287.026 171.469 287.115 171.546 287.209 171.54C287.304 171.54 287.381 171.452 287.375 171.357C287.375 171.262 287.286 171.185 287.192 171.191C287.097 171.197 287.02 171.28 287.026 171.375Z" fill="black"/>
<path d="M289.205 168.697C289.205 168.792 289.294 168.869 289.389 168.863C289.483 168.863 289.56 168.774 289.554 168.679C289.554 168.585 289.466 168.508 289.371 168.514C289.276 168.514 289.199 168.602 289.205 168.697Z" fill="black"/>
<path d="M287.506 169.764C287.506 169.859 287.595 169.936 287.69 169.93C287.785 169.93 287.862 169.841 287.856 169.746C287.856 169.651 287.767 169.574 287.672 169.58C287.577 169.58 287.5 169.669 287.506 169.764Z" fill="black"/>
<path d="M278.325 167.608C278.325 167.703 278.414 167.78 278.509 167.774C278.603 167.768 278.68 167.685 278.674 167.59C278.674 167.496 278.586 167.419 278.491 167.425C278.396 167.425 278.319 167.513 278.325 167.608Z" fill="black"/>
<path d="M279.746 168.549C279.746 168.644 279.835 168.721 279.929 168.715C280.024 168.715 280.101 168.626 280.095 168.531C280.095 168.437 280.006 168.36 279.912 168.366C279.817 168.366 279.74 168.454 279.746 168.549Z" fill="black"/>
<path d="M279.444 169.727C279.444 169.822 279.533 169.898 279.628 169.893C279.722 169.893 279.799 169.804 279.793 169.709C279.793 169.614 279.705 169.537 279.61 169.543C279.515 169.543 279.438 169.632 279.444 169.727Z" fill="black"/>
<path d="M278.213 168.97C278.213 169.065 278.301 169.142 278.396 169.136C278.491 169.136 278.568 169.047 278.562 168.953C278.562 168.858 278.473 168.781 278.378 168.787C278.284 168.787 278.207 168.876 278.213 168.97Z" fill="black"/>
</g>
</g>
</svg>
