<svg width="34" height="32" viewBox="0 0 34 32" fill="none" xmlns="http://www.w3.org/2000/svg">
<path d="M14.4375 29.8125C12.875 28.125 10.9375 25.5625 9.875 22H4.3125C6.1875 26 9.9375 29 14.4375 29.8125ZM14.5625 26.875C15.4375 28.0625 16.3125 28.9375 17 29.5C17.625 28.9375 18.5 28.0625 19.375 26.875C20.3125 25.625 21.3125 24 22 22.0625H11.9375C12.625 24 13.625 25.625 14.5625 26.875ZM11 16C11 17.5 11.125 18.8125 11.375 20H22.5625C22.8125 18.8125 23 17.5 23 16C23 14.5625 22.8125 13.25 22.5625 12H11.375C11.125 13.25 11 14.5625 11 16ZM9.375 12H3.5625C3.1875 13.3125 3 14.625 3 16C3 17.4375 3.1875 18.75 3.5625 20H9.375C9.125 18.8125 9 17.4375 9 16C9 14.625 9.125 13.25 9.375 12ZM11.9375 10H22C21.3125 8.0625 20.3125 6.4375 19.375 5.1875C18.5 4 17.625 3.125 17 2.5625C16.3125 3.125 15.4375 4 14.5625 5.1875C13.625 6.4375 12.625 8.0625 11.9375 10ZM24.5625 12C24.8125 13.25 25 14.625 25 16C25 17.4375 24.8125 18.8125 24.5625 20H30.375C30.75 18.75 31 17.4375 31 16C31 14.625 30.75 13.3125 30.375 12H24.5625ZM29.625 10C27.75 6.0625 24 3.0625 19.5625 2.25C21.125 3.9375 23 6.5 24.0625 10H29.625ZM9.875 10C10.9375 6.5 12.875 3.9375 14.4375 2.25C9.9375 3.0625 6.1875 6.0625 4.3125 10H9.875ZM19.5 29.8125C24 29 27.75 26 29.625 22H24.0625C23 25.5625 21.0625 28.125 19.5 29.8125ZM17 32C11.25 32 6 29 3.125 24C0.25 19.0625 0.25 13 3.125 8C6 3.0625 11.25 0 17 0C22.6875 0 27.9375 3.0625 30.8125 8C33.6875 13 33.6875 19.0625 30.8125 24C27.9375 29 22.6875 32 17 32Z" fill="#B51B1E"/>
</svg>
