<svg width="14" height="17" viewBox="0 0 14 17" fill="none" xmlns="http://www.w3.org/2000/svg">
<path d="M7 1.80664C4.21875 1.80664 2 4.05664 2 6.80664V7.80664H1V6.80664C1 3.49414 3.6875 0.806641 7 0.806641C10.3125 0.806641 13 3.49414 13 6.80664V10.3066V10.8066H12.5H8.5H7H5.5V8.80664H8.5V9.80664H12V6.80664C12 4.05664 9.75 1.80664 7 1.80664ZM0.4375 15.3066L1.5 11.8066H4.5H4.6875H5.5H7H8.5H9.28125H12.5L13.5312 15.3066L14 16.8066H12.4062H1.5625H0L0.4375 15.3066ZM4.5 9.93164C3.5625 9.21289 3 8.08789 3 6.80664C3 4.61914 4.78125 2.80664 7 2.80664C9.1875 2.80664 11 4.61914 11 6.80664C11 7.55664 10.7812 8.24414 10.4375 8.80664H9.5V7.80664V6.80664C9.5 5.43164 8.375 4.30664 7 4.30664C5.59375 4.30664 4.5 5.43164 4.5 6.80664V7.80664V9.93164ZM2.59375 13.3066L2 15.3066H11.9688L11.375 13.3066H2.59375Z" fill="#60646C"/>
</svg>
