<svg width="18" height="18" viewBox="0 0 18 18" fill="none" xmlns="http://www.w3.org/2000/svg">
<circle cx="9" cy="9" r="9" fill="white"/>
<g clip-path="url(#clip0_775_2)">
<path d="M9.49327 6.61106C10.291 6.61106 10.9377 5.96436 10.9377 5.16661C10.9377 4.36887 10.291 3.72217 9.49327 3.72217C8.69553 3.72217 8.04883 4.36887 8.04883 5.16661C8.04883 5.96436 8.69553 6.61106 9.49327 6.61106Z" fill="#FF8C1A"/>
<path d="M10.9702 12.472C10.9303 12.4452 10.8854 12.4266 10.8382 12.4173C10.791 12.4081 10.7425 12.4083 10.6954 12.4181C10.6483 12.4278 10.6036 12.4469 10.564 12.4741C10.5244 12.5014 10.4906 12.5363 10.4646 12.5768C10.1155 13.0937 9.6879 13.5531 9.19713 13.9382C9.07797 14.0284 8.6338 14.3715 8.44602 14.2993C8.31602 14.2595 8.39186 14.0032 8.41713 13.8948L8.60852 13.3279C8.68797 13.0968 10.071 8.99455 10.2227 8.5251C10.4466 7.83899 10.3491 7.16371 9.32713 7.32621C9.04908 7.3551 6.2288 7.71982 6.17824 7.72343C6.13082 7.72652 6.08447 7.73891 6.04184 7.7599C5.99921 7.7809 5.96113 7.81009 5.92978 7.8458C5.89842 7.88151 5.87441 7.92305 5.85911 7.96804C5.84381 8.01303 5.83752 8.0606 5.84061 8.10802C5.84369 8.15544 5.85608 8.20179 5.87708 8.24442C5.89807 8.28705 5.92726 8.32513 5.96297 8.35649C5.99868 8.38784 6.04022 8.41185 6.08521 8.42715C6.1302 8.44245 6.17777 8.44874 6.22519 8.44566C6.22519 8.44566 7.30852 8.30482 7.42769 8.29399C7.48873 8.28803 7.55019 8.29986 7.60465 8.32805C7.65912 8.35625 7.70426 8.3996 7.73463 8.45288C7.80007 8.65515 7.7911 8.87413 7.70936 9.07038C7.61547 9.43149 6.1313 13.6132 6.08436 13.8551C6.03401 14.0576 6.04798 14.2707 6.12435 14.4648C6.20072 14.659 6.33568 14.8245 6.51047 14.9384C6.83854 15.1571 7.22917 15.2624 7.62269 15.2382C8.00531 15.2335 8.38371 15.1576 8.73852 15.0143C9.63769 14.6532 10.5766 13.6926 11.0713 12.9379C11.1139 12.8612 11.1271 12.7716 11.1085 12.6859C11.0899 12.6002 11.0407 12.5242 10.9702 12.472Z" fill="#FF8C1A"/>
</g>
<defs>
<clipPath id="clip0_775_2">
<rect width="13" height="13" fill="white" transform="translate(2 3)"/>
</clipPath>
</defs>
</svg>
