<svg width="26" height="26" viewBox="0 0 26 26" fill="none" xmlns="http://www.w3.org/2000/svg">
<path d="M16.28 13.28C16.4205 13.1394 16.4993 12.9488 16.4993 12.75C16.4993 12.5513 16.4205 12.3606 16.28 12.22L13.78 9.72C13.7113 9.64631 13.6285 9.58721 13.5365 9.54622C13.4445 9.50523 13.3452 9.48319 13.2445 9.48141C13.1438 9.47963 13.0438 9.49816 12.9504 9.53588C12.857 9.5736 12.7722 9.62974 12.701 9.70096C12.6297 9.77218 12.5736 9.85702 12.5359 9.9504C12.4982 10.0438 12.4796 10.1438 12.4814 10.2445C12.4832 10.3452 12.5052 10.4445 12.5462 10.5365C12.5872 10.6285 12.6463 10.7113 12.72 10.78L13.94 12H6.75C6.55109 12 6.36032 12.079 6.21967 12.2197C6.07902 12.3603 6 12.5511 6 12.75C6 12.9489 6.07902 13.1397 6.21967 13.2803C6.36032 13.421 6.55109 13.5 6.75 13.5H13.94L12.72 14.72C12.6463 14.7887 12.5872 14.8715 12.5462 14.9635C12.5052 15.0555 12.4832 15.1548 12.4814 15.2555C12.4796 15.3562 12.4982 15.4562 12.5359 15.5496C12.5736 15.643 12.6297 15.7278 12.701 15.799C12.7722 15.8703 12.857 15.9264 12.9504 15.9641C13.0438 16.0018 13.1438 16.0204 13.2445 16.0186C13.3452 16.0168 13.4445 15.9948 13.5365 15.9538C13.6285 15.9128 13.7113 15.8537 13.78 15.78L16.28 13.28Z" fill="#FF8C1A"/>
<path fill-rule="evenodd" clip-rule="evenodd" d="M14.695 2H15.805C17.172 2 18.275 2 19.142 2.117C20.042 2.237 20.8 2.497 21.402 3.098C22.004 3.7 22.262 4.458 22.384 5.358C22.5 6.225 22.5 7.328 22.5 8.695V16.805C22.5 18.172 22.5 19.275 22.384 20.142C22.262 21.042 22.004 21.8 21.402 22.402C20.8 23.004 20.042 23.262 19.142 23.384C18.275 23.5 17.172 23.5 15.805 23.5H14.695C13.328 23.5 12.225 23.5 11.358 23.384C10.458 23.262 9.7 23.004 9.098 22.402C8.698 22.002 8.45 21.533 8.293 21C7.342 20.999 6.549 20.988 5.907 20.902C5.143 20.799 4.481 20.577 3.952 20.048C3.423 19.519 3.201 18.858 3.098 18.093C3 17.363 3 16.437 3 15.303V10.197C3 9.064 3 8.139 3.098 7.407C3.201 6.644 3.423 5.982 3.952 5.453C4.481 4.924 5.142 4.702 5.907 4.599C6.549 4.513 7.342 4.502 8.293 4.501C8.45 3.968 8.699 3.499 9.098 3.099C9.7 2.497 10.458 2.239 11.358 2.118C12.225 2.001 13.328 2.001 14.695 2.001V2ZM8 16.805C8 17.855 8 18.748 8.053 19.499C7.218 19.496 6.598 19.481 6.107 19.415C5.509 19.335 5.217 19.191 5.013 18.987C4.809 18.784 4.665 18.491 4.585 17.893C4.502 17.274 4.5 16.45 4.5 15.25V10.25C4.5 9.05 4.502 8.226 4.585 7.607C4.665 7.009 4.809 6.717 5.013 6.513C5.216 6.309 5.509 6.165 6.107 6.085C6.598 6.019 7.218 6.005 8.053 6.001C8 6.75 8 7.645 8 8.695V8.75C8 8.94891 8.07902 9.13968 8.21967 9.28033C8.36032 9.42098 8.55109 9.5 8.75 9.5C8.94891 9.5 9.13968 9.42098 9.28033 9.28033C9.42098 9.13968 9.5 8.94891 9.5 8.75C9.5 7.315 9.502 6.313 9.603 5.558C9.702 4.824 9.883 4.436 10.159 4.159C10.436 3.882 10.824 3.702 11.559 3.603C12.314 3.502 13.315 3.5 14.75 3.5H15.75C17.185 3.5 18.186 3.502 18.942 3.603C19.676 3.702 20.064 3.883 20.341 4.159C20.618 4.436 20.798 4.824 20.897 5.559C20.998 6.313 21 7.315 21 8.75V16.75C21 18.185 20.998 19.186 20.897 19.942C20.798 20.676 20.617 21.064 20.341 21.341C20.064 21.618 19.676 21.798 18.941 21.897C18.186 21.998 17.185 22 15.75 22H14.75C13.315 22 12.313 21.998 11.558 21.897C10.824 21.798 10.436 21.617 10.159 21.341C9.882 21.064 9.702 20.676 9.603 19.941C9.502 19.186 9.5 18.185 9.5 16.75C9.5 16.5511 9.42098 16.3603 9.28033 16.2197C9.13968 16.079 8.94891 16 8.75 16C8.55109 16 8.36032 16.079 8.21967 16.2197C8.07902 16.3603 8 16.5511 8 16.75V16.805Z" fill="#FF8C1A"/>
</svg>
