<svg width="24" height="24" viewBox="0 0 24 24" fill="none" xmlns="http://www.w3.org/2000/svg">
<path d="M15.53 12.5302C15.6705 12.3895 15.7493 12.1989 15.7493 12.0002C15.7493 11.8014 15.6705 11.6108 15.53 11.4702L13.03 8.97015C12.9613 8.89647 12.8785 8.83736 12.7865 8.79637C12.6945 8.75538 12.5952 8.73334 12.4945 8.73156C12.3938 8.72979 12.2938 8.74831 12.2004 8.78603C12.107 8.82375 12.0222 8.8799 11.951 8.95112C11.8797 9.02233 11.8236 9.10717 11.7859 9.20056C11.7482 9.29394 11.7296 9.39397 11.7314 9.49468C11.7332 9.59538 11.7552 9.69469 11.7962 9.78669C11.8372 9.87869 11.8963 9.96149 11.97 10.0302L13.19 11.2502H6C5.80109 11.2502 5.61032 11.3292 5.46967 11.4698C5.32902 11.6105 5.25 11.8012 5.25 12.0002C5.25 12.1991 5.32902 12.3898 5.46967 12.5305C5.61032 12.6711 5.80109 12.7502 6 12.7502H13.19L11.97 13.9702C11.8963 14.0388 11.8372 14.1216 11.7962 14.2136C11.7552 14.3056 11.7332 14.4049 11.7314 14.5056C11.7296 14.6063 11.7482 14.7064 11.7859 14.7998C11.8236 14.8931 11.8797 14.978 11.951 15.0492C12.0222 15.1204 12.107 15.1766 12.2004 15.2143C12.2938 15.252 12.3938 15.2705 12.4945 15.2687C12.5952 15.267 12.6945 15.2449 12.7865 15.2039C12.8785 15.1629 12.9613 15.1038 13.03 15.0302L15.53 12.5302Z" fill="white"/>
<path fill-rule="evenodd" clip-rule="evenodd" d="M13.945 1.25H15.055C16.422 1.25 17.525 1.25 18.392 1.367C19.292 1.487 20.05 1.747 20.652 2.348C21.254 2.95 21.512 3.708 21.634 4.608C21.75 5.475 21.75 6.578 21.75 7.945V16.055C21.75 17.422 21.75 18.525 21.634 19.392C21.512 20.292 21.254 21.05 20.652 21.652C20.05 22.254 19.292 22.512 18.392 22.634C17.525 22.75 16.422 22.75 15.055 22.75H13.945C12.578 22.75 11.475 22.75 10.608 22.634C9.708 22.512 8.95 22.254 8.348 21.652C7.948 21.252 7.7 20.783 7.543 20.25C6.592 20.249 5.799 20.238 5.157 20.152C4.393 20.049 3.731 19.827 3.202 19.298C2.673 18.769 2.451 18.108 2.348 17.343C2.25 16.613 2.25 15.687 2.25 14.553V9.447C2.25 8.314 2.25 7.389 2.348 6.657C2.451 5.894 2.673 5.232 3.202 4.703C3.731 4.174 4.392 3.952 5.157 3.849C5.799 3.763 6.592 3.752 7.543 3.751C7.7 3.218 7.949 2.749 8.348 2.349C8.95 1.747 9.708 1.489 10.608 1.368C11.475 1.251 12.578 1.251 13.945 1.251V1.25ZM7.25 16.055C7.25 17.105 7.25 17.998 7.303 18.749C6.468 18.746 5.848 18.731 5.357 18.665C4.759 18.585 4.467 18.441 4.263 18.237C4.059 18.034 3.915 17.741 3.835 17.143C3.752 16.524 3.75 15.7 3.75 14.5V9.5C3.75 8.3 3.752 7.476 3.835 6.857C3.915 6.259 4.059 5.967 4.263 5.763C4.466 5.559 4.759 5.415 5.357 5.335C5.848 5.269 6.468 5.255 7.303 5.251C7.25 6 7.25 6.895 7.25 7.945V8C7.25 8.19891 7.32902 8.38968 7.46967 8.53033C7.61032 8.67098 7.80109 8.75 8 8.75C8.19891 8.75 8.38968 8.67098 8.53033 8.53033C8.67098 8.38968 8.75 8.19891 8.75 8C8.75 6.565 8.752 5.563 8.853 4.808C8.952 4.074 9.133 3.686 9.409 3.409C9.686 3.132 10.074 2.952 10.809 2.853C11.564 2.752 12.565 2.75 14 2.75H15C16.435 2.75 17.436 2.752 18.192 2.853C18.926 2.952 19.314 3.133 19.591 3.409C19.868 3.686 20.048 4.074 20.147 4.809C20.248 5.563 20.25 6.565 20.25 8V16C20.25 17.435 20.248 18.436 20.147 19.192C20.048 19.926 19.867 20.314 19.591 20.591C19.314 20.868 18.926 21.048 18.191 21.147C17.436 21.248 16.435 21.25 15 21.25H14C12.565 21.25 11.563 21.248 10.808 21.147C10.074 21.048 9.686 20.867 9.409 20.591C9.132 20.314 8.952 19.926 8.853 19.191C8.752 18.436 8.75 17.435 8.75 16C8.75 15.8011 8.67098 15.6103 8.53033 15.4697C8.38968 15.329 8.19891 15.25 8 15.25C7.80109 15.25 7.61032 15.329 7.46967 15.4697C7.32902 15.6103 7.25 15.8011 7.25 16V16.055Z" fill="white"/>
</svg>
