<svg width="15" height="17" viewBox="0 0 15 17" fill="none" xmlns="http://www.w3.org/2000/svg">
<g clip-path="url(#clip0_1_11403)">
<path d="M12.2247 1.32321C11.4403 0.429187 10.0224 0.0458984 8.20857 0.0458984H2.94419C2.76473 0.0459051 2.59115 0.109932 2.45467 0.226468C2.31819 0.343004 2.22775 0.504405 2.19963 0.681653L0.00764137 14.5838C-0.0359282 14.8579 0.176347 15.1062 0.454201 15.1062H3.70424L4.52047 9.92898L4.49513 10.0911C4.55328 9.72515 4.86626 9.45523 5.23689 9.45523H6.7813C9.81529 9.45523 12.191 8.2229 12.8849 4.65802C12.9055 4.55259 12.9234 4.44997 12.9388 4.34971C12.8512 4.30333 12.8512 4.30333 12.9388 4.34971C13.1454 3.0321 12.9374 2.13521 12.2247 1.32321Z" fill="#27346A"/>
<path d="M5.76406 3.87506C5.85291 3.83276 5.95009 3.81083 6.0485 3.81089H10.1757C10.6644 3.81089 11.1202 3.8427 11.5368 3.90974C11.6534 3.92833 11.7693 3.95051 11.8845 3.97628C12.0478 4.0123 12.2091 4.0564 12.368 4.10839C12.5728 4.17679 12.7636 4.25644 12.9388 4.34971C13.1454 3.03159 12.9374 2.13521 12.2247 1.32321C11.4399 0.429187 10.0224 0.0458984 8.20857 0.0458984H2.94374C2.57307 0.0458984 2.25772 0.315759 2.19963 0.681653L0.00764167 14.5833C-0.0359279 14.8579 0.176347 15.1058 0.453751 15.1058H3.70424L5.39766 4.36705C5.41431 4.2615 5.45635 4.16157 5.52018 4.07587C5.584 3.99017 5.6677 3.92126 5.76406 3.87506Z" fill="#27346A"/>
<path d="M12.8849 4.65816C12.191 8.22253 9.81536 9.45537 6.78131 9.45537H5.23645C4.86582 9.45537 4.55279 9.72529 4.4952 10.0912L3.47976 16.5284C3.44182 16.7684 3.62736 16.9858 3.87009 16.9858H6.60979C6.76673 16.9857 6.9185 16.9297 7.03782 16.8277C7.15713 16.7258 7.23616 16.5846 7.26068 16.4296L7.28737 16.29L7.80373 13.0174L7.837 12.8366C7.86152 12.6816 7.94054 12.5404 8.05984 12.4385C8.17915 12.3365 8.33091 12.2805 8.48784 12.2804H8.89786C11.5518 12.2804 13.6299 11.2022 14.2372 8.08389C14.4907 6.78074 14.3595 5.69274 13.689 4.92853C13.4856 4.69706 13.233 4.50589 12.9388 4.34985C12.9229 4.45062 12.9056 4.55273 12.8849 4.65816Z" fill="#2790C3"/>
<path d="M12.2125 4.06011C12.1043 4.02851 11.9951 4.00054 11.885 3.97623C11.7698 3.95089 11.6538 3.92886 11.5373 3.91015C11.1203 3.84265 10.6648 3.81079 10.1756 3.81079H6.04897C5.95048 3.81057 5.85323 3.83268 5.76453 3.87547C5.66806 3.92152 5.58427 3.99039 5.52042 4.07612C5.45656 4.16185 5.41457 4.26184 5.39807 4.36746L4.52094 9.92894L4.49561 10.0911C4.5533 9.7251 4.86628 9.45519 5.23696 9.45519H6.78182C9.81582 9.45519 12.1914 8.22286 12.8854 4.65798C12.906 4.55254 12.9234 4.45038 12.9393 4.34967C12.7636 4.2569 12.5734 4.17674 12.3685 4.1088C12.3168 4.09166 12.2648 4.07543 12.2126 4.06011" fill="#1F264F"/>
</g>
<defs>
<clipPath id="clip0_1_11403">
<rect width="14.4106" height="17" fill="white"/>
</clipPath>
</defs>
</svg>
