<svg width="24" height="24" viewBox="0 0 24 24" fill="none" xmlns="http://www.w3.org/2000/svg">
<path d="M21.4915 20.4317C20.087 17.9067 17.9227 16.0961 15.3968 15.2378C16.6462 14.4643 17.6169 13.2857 18.1599 11.883C18.7028 10.4803 18.788 8.93106 18.4023 7.47315C18.0166 6.01524 17.1813 4.72931 16.0248 3.81283C14.8683 2.89635 13.4544 2.39999 12.0004 2.39999C10.5463 2.39999 9.13251 2.89635 7.97599 3.81283C6.81947 4.72931 5.98422 6.01524 5.59851 7.47315C5.2128 8.93106 5.29796 10.4803 5.84091 11.883C6.38385 13.2857 7.35457 14.4643 8.60398 15.2378C6.07811 16.0951 3.91373 17.9057 2.50924 20.4317C2.45774 20.519 2.42357 20.6162 2.40877 20.7175C2.39396 20.8188 2.39882 20.9221 2.42304 21.0214C2.44726 21.1207 2.49037 21.214 2.54981 21.2957C2.60925 21.3774 2.68383 21.4459 2.76914 21.4971C2.85445 21.5484 2.94876 21.5813 3.04652 21.5941C3.14427 21.6068 3.24349 21.599 3.33831 21.5712C3.43313 21.5434 3.52164 21.4962 3.59861 21.4322C3.67558 21.3683 3.73946 21.2889 3.78647 21.1989C5.52387 18.0764 8.59475 16.2121 12.0004 16.2121C15.406 16.2121 18.4769 18.0764 20.2143 21.1989C20.2613 21.2889 20.3252 21.3683 20.4022 21.4322C20.4791 21.4962 20.5676 21.5434 20.6625 21.5712C20.7573 21.599 20.8565 21.6068 20.9543 21.5941C21.052 21.5813 21.1463 21.5484 21.2316 21.4971C21.317 21.4459 21.3915 21.3774 21.451 21.2957C21.5104 21.214 21.5535 21.1207 21.5777 21.0214C21.602 20.9221 21.6068 20.8188 21.592 20.7175C21.5772 20.6162 21.543 20.519 21.4915 20.4317ZM6.83614 9.30737C6.83614 8.24521 7.13902 7.2069 7.70648 6.32375C8.27393 5.4406 9.08048 4.75226 10.0241 4.34579C10.9678 3.93932 12.0061 3.83297 13.0079 4.04018C14.0097 4.2474 14.9298 4.75888 15.6521 5.50994C16.3743 6.261 16.8661 7.21791 17.0654 8.25966C17.2647 9.30141 17.1624 10.3812 16.7715 11.3625C16.3807 12.3438 15.7187 13.1826 14.8695 13.7727C14.0202 14.3628 13.0218 14.6777 12.0004 14.6777C10.6312 14.6762 9.3185 14.1099 8.35033 13.1031C7.38217 12.0963 6.83761 10.7312 6.83614 9.30737Z" fill="#FF8C1A"/>
</svg>
