<svg width="24" height="24" viewBox="0 0 24 24" fill="none" xmlns="http://www.w3.org/2000/svg">
<path d="M12.2169 3C15.0846 3 17.7398 4.2555 19.5006 6.3696C19.5507 6.42953 19.5882 6.4988 19.6106 6.5733C19.6331 6.6478 19.6402 6.726 19.6314 6.80325C19.6227 6.8805 19.5982 6.95522 19.5596 7.02297C19.521 7.09072 19.469 7.15011 19.4066 7.1976C19.2797 7.29579 19.119 7.34131 18.9587 7.32451C18.7983 7.30771 18.6509 7.2299 18.5477 7.1076C17.7778 6.1871 16.8105 5.44677 15.7155 4.94001C14.6206 4.43326 13.4253 4.17272 12.216 4.1772C7.73442 4.1772 4.10081 7.68 4.10081 12C4.10081 16.32 7.73442 19.8228 12.216 19.8228C13.4428 19.8274 14.6548 19.5594 15.7623 19.0385C16.8698 18.5177 17.8442 17.7574 18.6134 16.8141C18.7148 16.6905 18.861 16.6108 19.021 16.5918C19.181 16.5729 19.3422 16.6161 19.4705 16.7124C19.5334 16.7591 19.5861 16.8178 19.6256 16.885C19.665 16.9522 19.6904 17.0265 19.7002 17.1036C19.71 17.1806 19.7039 17.2589 19.6825 17.3336C19.6611 17.4083 19.6246 17.478 19.5753 17.5386C17.8173 19.7076 15.1265 21 12.2169 21C7.05876 21 2.87988 16.9707 2.87988 12C2.87988 7.0293 7.05967 3 12.2169 3ZM18.4702 9.444L20.9376 11.8803C21.1765 12.1152 21.181 12.4923 20.9485 12.7227L18.5377 15.1014C18.4233 15.2119 18.2691 15.273 18.1091 15.2713C17.949 15.2696 17.7962 15.2053 17.6842 15.0924C17.6274 15.0377 17.582 14.9725 17.5508 14.9005C17.5195 14.8285 17.5029 14.7511 17.502 14.6728C17.5011 14.5945 17.5158 14.5167 17.5454 14.444C17.5749 14.3713 17.6187 14.3051 17.6742 14.2491L19.0848 12.8568H9.68389C9.60462 12.8578 9.52594 12.8433 9.45233 12.8142C9.37873 12.7851 9.31164 12.7421 9.25491 12.6874C9.19818 12.6327 9.15292 12.5676 9.1217 12.4957C9.09048 12.4237 9.07392 12.3464 9.07297 12.2682C9.07297 11.9424 9.34652 11.6787 9.68389 11.6787H19.0474L17.6268 10.2765C17.5123 10.1661 17.4469 10.0153 17.445 9.85735C17.4431 9.69938 17.5049 9.54713 17.6167 9.4341C17.7313 9.32373 17.8855 9.26276 18.0455 9.26462C18.2056 9.26648 18.3583 9.331 18.4702 9.444Z" fill="#FF8C1A"/>
</svg>
