<svg width="24" height="24" viewBox="0 0 24 24" fill="none" xmlns="http://www.w3.org/2000/svg">
<path d="M11.4671 2C14.6511 2 17.2321 4.566 17.2321 7.732C17.2325 8.56158 17.0519 9.38126 16.703 10.1339C16.3542 10.8866 15.8454 11.5541 15.2121 12.09C15.4821 12.224 15.7281 12.358 15.9501 12.493C16.4281 12.783 16.9241 13.143 17.4401 13.572C17.5097 13.6298 17.5672 13.7007 17.6092 13.7808C17.6513 13.8609 17.677 13.9485 17.685 14.0386C17.693 14.1287 17.6831 14.2194 17.6558 14.3057C17.6285 14.3919 17.5845 14.4719 17.5261 14.541C17.408 14.6813 17.2391 14.769 17.0564 14.7852C16.8737 14.8013 16.692 14.7444 16.5511 14.627C16.1348 14.2748 15.6929 13.9539 15.2291 13.667C14.7775 13.4006 14.3081 13.1658 13.8241 12.964C13.0825 13.295 12.2793 13.4654 11.4671 13.464C10.5718 13.4653 9.68851 13.2582 8.88713 12.859L8.84513 12.879C6.89513 13.635 5.47213 14.753 4.55313 16.237C3.63113 17.726 3.25413 19.39 3.42313 21.251C3.43094 21.3412 3.4209 21.4321 3.39356 21.5185C3.36622 21.6048 3.32212 21.6849 3.2638 21.7542C3.20547 21.8235 3.13405 21.8806 3.05363 21.9223C2.97321 21.9639 2.88537 21.9893 2.79513 21.997C2.61309 22.0137 2.43187 21.9575 2.29125 21.8406C2.15063 21.7238 2.06211 21.556 2.04513 21.374C1.85013 19.222 2.29413 17.261 3.37513 15.516C4.32513 13.98 5.72213 12.786 7.54913 11.934C6.96671 11.4 6.50181 10.7507 6.184 10.0272C5.86619 9.30381 5.70243 8.52215 5.70313 7.732C5.70313 4.566 8.28313 2 11.4671 2ZM18.8681 14.693C19.2481 14.693 19.5561 15.003 19.5561 15.384V17.136H21.3081C21.3988 17.1357 21.4887 17.1534 21.5726 17.1879C21.6564 17.2223 21.7327 17.273 21.797 17.337C21.8612 17.401 21.9123 17.4771 21.9471 17.5608C21.982 17.6445 22 17.7343 22.0001 17.825C21.9993 18.0078 21.926 18.1829 21.7963 18.3117C21.6665 18.4405 21.491 18.5125 21.3081 18.512H19.5561V20.265C19.5564 20.4478 19.4841 20.6233 19.3551 20.7528C19.2261 20.8824 19.051 20.9555 18.8681 20.956C18.6853 20.9555 18.5102 20.8824 18.3812 20.7528C18.2522 20.6233 18.1799 20.4478 18.1801 20.265V18.512H16.4281C16.2453 18.5125 16.0697 18.4405 15.94 18.3117C15.8102 18.1829 15.7369 18.0078 15.7361 17.825C15.7361 17.445 16.0461 17.137 16.4281 17.137L18.1801 17.136V15.384C18.1799 15.2012 18.2522 15.0257 18.3812 14.8962C18.5102 14.7666 18.6853 14.6935 18.8681 14.693ZM11.4681 3.376C9.04813 3.376 7.08613 5.326 7.08613 7.732C7.08613 10.138 9.04813 12.089 11.4671 12.089C13.8871 12.089 15.8481 10.139 15.8481 7.732C15.8481 5.326 13.8871 3.376 11.4681 3.376Z" fill="#FF8C1A"/>
</svg>
