<svg width="24" height="24" viewBox="0 0 24 24" fill="none" xmlns="http://www.w3.org/2000/svg">
<path d="M11.784 3C16.8753 3 21 7.0293 21 12C21 16.9707 16.8744 21 11.784 21C8.9121 21 6.2562 19.7067 4.521 17.5386C4.47236 17.478 4.43638 17.4083 4.41521 17.3336C4.39404 17.2589 4.38811 17.1806 4.39776 17.1036C4.40742 17.0265 4.43246 16.9522 4.47141 16.885C4.51036 16.8178 4.56242 16.7591 4.6245 16.7124C4.75108 16.6161 4.91019 16.5729 5.06811 16.5918C5.22602 16.6108 5.37035 16.6905 5.4705 16.8141C6.22959 17.7575 7.19138 18.5178 8.28451 19.0387C9.37764 19.5596 10.574 19.8276 11.7849 19.8228C16.2084 19.8228 19.7949 16.32 19.7949 12C19.7949 7.68 16.2084 4.1772 11.7849 4.1772C10.5913 4.17261 9.41161 4.43301 8.33088 4.9396C7.25014 5.4462 6.29532 6.18637 5.5353 7.1067C5.43356 7.22914 5.28812 7.30712 5.12984 7.32409C4.97155 7.34106 4.81288 7.29569 4.6875 7.1976C4.62596 7.15011 4.57461 7.09072 4.53649 7.02297C4.49837 6.95522 4.47427 6.8805 4.46563 6.80325C4.45698 6.726 4.46396 6.6478 4.48615 6.5733C4.50834 6.4988 4.54529 6.42953 4.5948 6.3696C6.3327 4.2546 8.9526 3 11.784 3ZM12.2745 9.1758L14.7108 11.6121C14.9466 11.8479 14.9511 12.2241 14.7207 12.4545L12.342 14.835C12.286 14.8898 12.2198 14.933 12.1471 14.9622C12.0744 14.9913 11.9966 15.0058 11.9183 15.0049C11.84 15.004 11.7626 14.9877 11.6906 14.9568C11.6186 14.9259 11.5534 14.8812 11.4987 14.8251C11.4427 14.7704 11.398 14.7051 11.3672 14.6331C11.3364 14.561 11.3202 14.4836 11.3193 14.4053C11.3185 14.327 11.3331 14.2493 11.3623 14.1766C11.3916 14.1039 11.4349 14.0377 11.4897 13.9818L12.882 12.5886L3.603 12.5895C3.52468 12.5905 3.44695 12.576 3.37424 12.5468C3.30153 12.5177 3.23528 12.4745 3.17927 12.4198C3.12326 12.365 3.0786 12.2998 3.04784 12.2277C3.01708 12.1557 3.00082 12.0783 3 12C3 11.6751 3.27 11.4114 3.603 11.4114H12.8442L11.442 10.0083C11.386 9.95356 11.3413 9.8883 11.3105 9.81627C11.2797 9.74424 11.2635 9.66684 11.2626 9.58852C11.2618 9.51019 11.2764 9.43246 11.3056 9.35979C11.3349 9.28712 11.3782 9.22093 11.433 9.165C11.546 9.0549 11.698 8.99411 11.8558 8.99597C12.0135 8.99783 12.1641 9.06307 12.2745 9.1758Z" fill="#FF8C1A"/>
</svg>
