<svg width="24" height="24" viewBox="0 0 24 24" fill="none" xmlns="http://www.w3.org/2000/svg">
<path d="M21.4223 6.21026C21.3514 6.13039 21.2627 6.06615 21.1625 6.02207C21.0623 5.978 20.9531 5.95516 20.8425 5.95518H5.60837L5.14659 3.56787C5.08334 3.2402 4.89991 2.94382 4.62828 2.7304C4.35665 2.51697 4.01404 2.40004 3.6602 2.39999H1.95567C1.7553 2.39999 1.56315 2.47491 1.42147 2.60825C1.27979 2.7416 1.2002 2.92245 1.2002 3.11103C1.2002 3.29961 1.27979 3.48046 1.42147 3.61381C1.56315 3.74716 1.7553 3.82207 1.95567 3.82207H3.65548L6.06921 16.291C6.14031 16.6608 6.31395 17.0063 6.57254 17.2927C6.21563 17.6064 5.95801 18.0071 5.82827 18.4502C5.69852 18.8934 5.70172 19.3617 5.8375 19.8032C5.97328 20.2448 6.23633 20.6423 6.5975 20.9517C6.95866 21.2611 7.40383 21.4704 7.88362 21.5562C8.36342 21.6421 8.8591 21.6011 9.31571 21.438C9.77231 21.2749 10.172 20.996 10.4704 20.6321C10.7689 20.2683 10.9544 19.8337 11.0065 19.3767C11.0586 18.9196 10.9751 18.4579 10.7654 18.0428H15.0546C14.8856 18.3758 14.7981 18.7403 14.7987 19.1094C14.7987 19.6016 14.9538 20.0827 15.2443 20.492C15.5348 20.9012 15.9478 21.2202 16.431 21.4086C16.9141 21.5969 17.4458 21.6462 17.9587 21.5502C18.4716 21.4542 18.9427 21.2171 19.3125 20.8691C19.6823 20.5211 19.9342 20.0776 20.0362 19.5949C20.1382 19.1121 20.0858 18.6117 19.8857 18.157C19.6856 17.7023 19.3467 17.3136 18.9118 17.0401C18.477 16.7667 17.9658 16.6207 17.4428 16.6207H8.2988C8.12187 16.6207 7.95057 16.5622 7.81476 16.4555C7.67894 16.3488 7.58723 16.2006 7.5556 16.0368L7.25624 14.4876H18.2106C18.7414 14.4876 19.2553 14.3122 19.6627 13.992C20.0701 13.6719 20.3453 13.2273 20.4402 12.7358L21.5885 6.79331C21.6079 6.6906 21.6031 6.58513 21.5744 6.48436C21.5457 6.3836 21.4937 6.29002 21.4223 6.21026ZM9.51038 19.1094C9.51038 19.3203 9.44392 19.5265 9.3194 19.7019C9.19489 19.8773 9.0179 20.014 8.81084 20.0947C8.60377 20.1755 8.37592 20.1966 8.1561 20.1554C7.93628 20.1143 7.73436 20.0127 7.57588 19.8635C7.4174 19.7144 7.30947 19.5243 7.26574 19.3174C7.22202 19.1105 7.24446 18.8961 7.33023 18.7012C7.416 18.5063 7.56124 18.3398 7.7476 18.2226C7.93395 18.1054 8.15305 18.0428 8.37718 18.0428C8.67772 18.0428 8.96596 18.1552 9.17847 18.3552C9.39099 18.5552 9.51038 18.8265 9.51038 19.1094ZM18.576 19.1094C18.576 19.3203 18.5096 19.5265 18.3851 19.7019C18.2605 19.8773 18.0836 20.014 17.8765 20.0947C17.6694 20.1755 17.4416 20.1966 17.2218 20.1554C17.0019 20.1143 16.8 20.0127 16.6415 19.8635C16.4831 19.7144 16.3751 19.5243 16.3314 19.3174C16.2877 19.1105 16.3101 18.8961 16.3959 18.7012C16.4817 18.5063 16.6269 18.3398 16.8133 18.2226C16.9996 18.1054 17.2187 18.0428 17.4428 18.0428C17.7434 18.0428 18.0316 18.1552 18.2441 18.3552C18.4567 18.5552 18.576 18.8265 18.576 19.1094ZM18.9538 12.4816C18.9221 12.6459 18.8299 12.7944 18.6935 12.9012C18.5571 13.008 18.3852 13.0662 18.2078 13.0655H6.98144L5.88318 7.37725H19.9368L18.9538 12.4816Z" fill="#FF8C1A"/>
</svg>
