<svg width="24" height="24" viewBox="0 0 24 24" fill="none" xmlns="http://www.w3.org/2000/svg">
<g filter="url(#filter0_i_1104_572)">
<path d="M15.75 10.75H13.25V8.25C13.25 7.91848 13.1183 7.60054 12.8839 7.36612C12.6495 7.1317 12.3315 7 12 7C11.6685 7 11.3505 7.1317 11.1161 7.36612C10.8817 7.60054 10.75 7.91848 10.75 8.25L10.7944 10.75H8.25C7.91848 10.75 7.60054 10.8817 7.36612 11.1161C7.1317 11.3505 7 11.6685 7 12C7 12.3315 7.1317 12.6495 7.36612 12.8839C7.60054 13.1183 7.91848 13.25 8.25 13.25L10.7944 13.2056L10.75 15.75C10.75 16.0815 10.8817 16.3995 11.1161 16.6339C11.3505 16.8683 11.6685 17 12 17C12.3315 17 12.6495 16.8683 12.8839 16.6339C13.1183 16.3995 13.25 16.0815 13.25 15.75V13.2056L15.75 13.25C16.0815 13.25 16.3995 13.1183 16.6339 12.8839C16.8683 12.6495 17 12.3315 17 12C17 11.6685 16.8683 11.3505 16.6339 11.1161C16.3995 10.8817 16.0815 10.75 15.75 10.75Z" fill="#FF8C1A"/>
</g>
<defs>
<filter id="filter0_i_1104_572" x="7" y="7" width="10" height="10.5" filterUnits="userSpaceOnUse" color-interpolation-filters="sRGB">
<feFlood flood-opacity="0" result="BackgroundImageFix"/>
<feBlend mode="normal" in="SourceGraphic" in2="BackgroundImageFix" result="shape"/>
<feColorMatrix in="SourceAlpha" type="matrix" values="0 0 0 0 0 0 0 0 0 0 0 0 0 0 0 0 0 0 127 0" result="hardAlpha"/>
<feOffset dy="0.5"/>
<feGaussianBlur stdDeviation="0.5"/>
<feComposite in2="hardAlpha" operator="arithmetic" k2="-1" k3="1"/>
<feColorMatrix type="matrix" values="0 0 0 0 0 0 0 0 0 0 0 0 0 0 0 0 0 0 0.2 0"/>
<feBlend mode="normal" in2="shape" result="effect1_innerShadow_1104_572"/>
</filter>
</defs>
</svg>
