<svg width="30" height="30" viewBox="0 0 30 30" fill="none" xmlns="http://www.w3.org/2000/svg">
<rect width="30" height="30" rx="5" fill="#F2F2F2"/>
<path d="M11.1251 9.87487V21.1249C11.1255 21.2388 11.1569 21.3504 11.216 21.4478C11.2751 21.5452 11.3596 21.6246 11.4605 21.6775C11.5613 21.7304 11.6747 21.7548 11.7884 21.7481C11.9021 21.7413 12.0118 21.7037 12.1057 21.6392L20.2307 16.0142C20.5676 15.7811 20.5676 15.2199 20.2307 14.9861L12.1057 9.36112C12.012 9.29601 11.9023 9.25783 11.7884 9.25072C11.6745 9.24362 11.5608 9.26786 11.4597 9.32082C11.3587 9.37377 11.274 9.45342 11.215 9.5511C11.156 9.64878 11.1249 9.76076 11.1251 9.87487Z" fill="#333333"/>
</svg>
