<svg width="28" height="32" viewBox="0 0 28 32" fill="none" xmlns="http://www.w3.org/2000/svg">
<g id="logos:paypal" clip-path="url(#clip0_1_2294)">
<path id="Vector" d="M23.0111 2.49077C21.5347 0.807909 18.8658 0.0864258 15.4514 0.0864258H5.542C5.20418 0.0864383 4.87745 0.20696 4.62054 0.426322C4.36363 0.645684 4.19341 0.949498 4.14046 1.28314L0.0143694 27.4518C-0.0676439 27.9679 0.331932 28.4351 0.854952 28.4351H6.97267L8.5091 18.6899L8.46142 18.995C8.57087 18.3062 9.16001 17.7981 9.85765 17.7981H12.7648C18.4758 17.7981 22.9477 15.4784 24.2539 8.76807C24.2927 8.5696 24.3263 8.37644 24.3553 8.18772C24.1905 8.10041 24.1905 8.10041 24.3553 8.18772C24.7443 5.70751 24.3527 4.01925 23.0111 2.49077Z" fill="#27346A"/>
<path id="Vector_2" d="M10.85 7.29427C11.0172 7.21463 11.2001 7.17336 11.3854 7.17347H19.1542C20.0741 7.17347 20.9322 7.23334 21.7163 7.35954C21.9357 7.39452 22.154 7.43629 22.3708 7.48478C22.6781 7.5526 22.9819 7.6356 23.281 7.73347C23.6665 7.86221 24.0255 8.01215 24.3555 8.18772C24.7443 5.70656 24.3527 4.01925 23.0111 2.49077C21.5338 0.807909 18.8658 0.0864258 15.4514 0.0864258H5.54115C4.8434 0.0864258 4.24981 0.594399 4.14046 1.28314L0.01437 27.4509C-0.0676433 27.9678 0.331933 28.4344 0.854105 28.4344H6.97267L10.1603 8.22036C10.1916 8.02167 10.2708 7.83358 10.3909 7.67225C10.5111 7.51093 10.6686 7.38122 10.85 7.29427Z" fill="#27346A"/>
<path id="Vector_3" d="M24.2539 8.76833C22.9476 15.4777 18.4759 17.7984 12.7647 17.7984H9.85677C9.15913 17.7984 8.56988 18.3065 8.46148 18.9953L6.55007 31.1124C6.47865 31.564 6.82789 31.9732 7.28479 31.9732H12.4419C12.7373 31.9731 13.023 31.8677 13.2476 31.6757C13.4722 31.4838 13.6209 31.2181 13.6671 30.9263L13.7173 30.6635L14.6893 24.5034L14.7519 24.163C14.7981 23.8712 14.9468 23.6055 15.1714 23.4136C15.396 23.2217 15.6816 23.1162 15.977 23.1161H16.7488C21.7446 23.1161 25.6563 21.0865 26.7994 15.2168C27.2765 12.7638 27.0296 10.7158 25.7674 9.27726C25.3846 8.84155 24.9092 8.48171 24.3553 8.18799C24.3253 8.37766 24.2928 8.56987 24.2539 8.76833Z" fill="#2790C3"/>
<path id="Vector_4" d="M22.9884 7.64264C22.7847 7.58317 22.5791 7.53051 22.3719 7.48476C22.155 7.43706 21.9367 7.39558 21.7174 7.36036C20.9324 7.23332 20.075 7.17334 19.1542 7.17334H11.3864C11.201 7.17292 11.0179 7.21455 10.851 7.29509C10.6694 7.38177 10.5117 7.51141 10.3915 7.67278C10.2713 7.83415 10.1922 8.02238 10.1612 8.22118L8.51008 18.6898L8.4624 18.995C8.57101 18.3062 9.16015 17.7981 9.8579 17.7981H12.7659C18.4769 17.7981 22.9487 15.4784 24.2549 8.76805C24.2938 8.56958 24.3265 8.37726 24.3564 8.1877C24.0256 8.01308 23.6676 7.86219 23.282 7.7343C23.1847 7.70204 23.0869 7.67149 22.9885 7.64264" fill="#1F264F"/>
</g>
<defs>
<clipPath id="clip0_1_2294">
<rect width="27.1258" height="32" fill="white"/>
</clipPath>
</defs>
</svg>
