<svg width="56" height="36" viewBox="0 0 83 26" fill="none" xmlns="http://www.w3.org/2000/svg">
<g id="download 1">
<path id="Vector" d="M10.0063 2.2749H3.62819C3.21934 2.2749 2.81048 2.5999 2.72871 3.00615L0.193827 19.2562C0.112056 19.5812 0.357368 19.8249 0.68445 19.8249H3.70996C4.11881 19.8249 4.52766 19.4999 4.60944 19.0937L5.2636 14.7062C5.34537 14.2999 5.67245 13.9749 6.16307 13.9749H8.20734C12.3776 13.9749 14.8308 11.9437 15.4849 7.9624C15.7302 6.25615 15.4849 4.8749 14.6672 3.8999C13.7677 2.84365 12.1323 2.2749 10.0063 2.2749ZM10.7422 8.20615C10.4151 10.4812 8.61619 10.4812 6.98078 10.4812H5.99953L6.6537 6.25615C6.6537 6.0124 6.89901 5.8499 7.14432 5.8499H7.55317C8.69796 5.8499 9.76098 5.8499 10.3334 6.4999C10.7422 6.8249 10.9058 7.39365 10.7422 8.20615Z" fill="#003087"/>
<path id="Vector_2" d="M28.9769 8.125H25.9514C25.7061 8.125 25.4608 8.2875 25.4608 8.53125L25.2972 9.34375L25.0519 9.01875C24.3978 8.04375 22.9259 7.71875 21.454 7.71875C18.1014 7.71875 15.2395 10.2375 14.6671 13.8125C14.34 15.6 14.7488 17.3063 15.8119 18.4438C16.7113 19.5 18.1014 19.9875 19.6551 19.9875C22.3535 19.9875 23.9071 18.2812 23.9071 18.2812L23.7436 19.0938C23.6618 19.4187 23.9071 19.7437 24.2342 19.7437H27.0144C27.4233 19.7437 27.8321 19.4187 27.9139 19.0125L29.5493 8.6125C29.6311 8.45 29.304 8.125 28.9769 8.125ZM24.8066 13.975C24.4795 15.6813 23.1712 16.9 21.3723 16.9C20.4728 16.9 19.8186 16.6562 19.328 16.0875C18.8374 15.5187 18.6738 14.7875 18.8374 13.975C19.0827 12.2688 20.5545 11.05 22.2717 11.05C23.1712 11.05 23.8254 11.375 24.316 11.8625C24.7248 12.4313 24.8884 13.1625 24.8066 13.975Z" fill="#003087"/>
<path id="Vector_3" d="M45.2494 8.125H42.2239C41.8968 8.125 41.6515 8.2875 41.4879 8.53125L37.2359 14.7063L35.4369 8.775C35.3551 8.36875 34.9463 8.125 34.6192 8.125H31.5937C31.2666 8.125 30.9395 8.45 31.1031 8.85625L34.4557 18.6875L31.2666 23.075C31.0213 23.4 31.2666 23.8875 31.6755 23.8875H34.701C35.0281 23.8875 35.2734 23.725 35.4369 23.4812L45.6582 8.85625C45.9035 8.6125 45.6582 8.125 45.2494 8.125Z" fill="#003087"/>
<path id="Vector_4" d="M55.3889 2.2749H49.0108C48.6019 2.2749 48.1931 2.5999 48.1113 3.00615L45.5764 19.1749C45.4946 19.4999 45.7399 19.7437 46.067 19.7437H49.3378C49.6649 19.7437 49.9102 19.4999 49.9102 19.2562L50.6462 14.6249C50.7279 14.2187 51.055 13.8937 51.5456 13.8937H53.5899C57.7602 13.8937 60.2133 11.8624 60.8675 7.88115C61.1128 6.1749 60.8675 4.79365 60.0498 3.81865C59.0685 2.84365 57.5149 2.2749 55.3889 2.2749ZM56.1248 8.20615C55.7977 10.4812 53.9988 10.4812 52.3634 10.4812H51.3821L52.0363 6.25615C52.0363 6.0124 52.2816 5.8499 52.5269 5.8499H52.9357C54.0805 5.8499 55.1435 5.8499 55.7159 6.4999C56.1248 6.8249 56.2066 7.39365 56.1248 8.20615Z" fill="#009CDE"/>
<path id="Vector_5" d="M74.3597 8.125H71.3342C71.0889 8.125 70.8436 8.2875 70.8436 8.53125L70.6801 9.34375L70.4347 9.01875C69.7806 8.04375 68.3087 7.71875 66.8368 7.71875C63.4842 7.71875 60.6223 10.2375 60.0499 13.8125C59.7228 15.6 60.1317 17.3063 61.1947 18.4438C62.0941 19.5 63.4843 19.9875 65.0379 19.9875C67.7363 19.9875 69.29 18.2812 69.29 18.2812L69.1264 19.0938C69.0446 19.4187 69.29 19.7437 69.617 19.7437H72.3972C72.8061 19.7437 73.2149 19.4187 73.2967 19.0125L74.9321 8.6125C74.9321 8.45 74.6868 8.125 74.3597 8.125ZM70.1077 13.975C69.7806 15.6813 68.4723 16.9 66.6733 16.9C65.7738 16.9 65.1197 16.6562 64.629 16.0875C64.1384 15.5187 63.9749 14.7875 64.1384 13.975C64.3837 12.2688 65.8556 11.05 67.5728 11.05C68.4723 11.05 69.1264 11.375 69.617 11.8625C70.1077 12.4313 70.2712 13.1625 70.1077 13.975Z" fill="#009CDE"/>
<path id="Vector_6" d="M77.9575 2.68115L75.3408 19.1749C75.259 19.4999 75.5043 19.7437 75.8314 19.7437H78.4481C78.8569 19.7437 79.2658 19.4187 79.3476 19.0124L81.9642 2.84365C82.046 2.51865 81.8007 2.2749 81.4736 2.2749H78.5299C78.2028 2.2749 78.0392 2.4374 77.9575 2.68115Z" fill="#009CDE"/>
</g>
</svg>
