<svg width="33" height="32" viewBox="0 0 33 32" fill="none" xmlns="http://www.w3.org/2000/svg">
<path d="M18.1667 22.25C14.9792 20.375 12.2917 17.6875 10.4167 14.5L9.66675 13.1875L10.7292 12.0625L13.2917 9.5625L10.4167 2.3125L2.66675 3.6875V4C2.66675 18.375 14.2917 30 28.6667 30H28.9792L30.3542 22.25L23.1042 19.375L20.6042 21.9375L19.4792 23L18.1667 22.25ZM32.6667 21L30.6667 32H28.6667C13.1667 32 0.666748 19.5 0.666748 4V2L11.6667 0L15.6667 10L12.1667 13.5C13.8542 16.4375 16.2292 18.8125 19.1667 20.5L22.6667 17L32.6667 21ZM16.6667 2V0C25.4792 0 32.6667 7.1875 32.6667 16H30.6667C30.6667 8.3125 24.3542 2 16.6667 2ZM18.6667 16C17.5417 16 16.6667 15.125 16.6667 14C16.6667 12.9375 17.5417 12 18.6667 12C19.7292 12 20.6667 12.9375 20.6667 14C20.6667 15.125 19.7292 16 18.6667 16ZM24.6667 16C24.6667 11.625 21.0417 8 16.6667 8V6C22.1667 6 26.6667 10.5 26.6667 16H24.6667Z" fill="#FF8C1A"/>
</svg>
