<svg width="30" height="30" viewBox="0 0 30 30" fill="none" xmlns="http://www.w3.org/2000/svg">
<rect x="30" y="30" width="30" height="30" rx="5" transform="rotate(-180 30 30)" fill="#F2F2F2"/>
<path d="M18.8749 20.1251V8.87513C18.8745 8.76123 18.8431 8.64958 18.784 8.55221C18.7249 8.45483 18.6404 8.37542 18.5395 8.32251C18.4387 8.2696 18.3253 8.2452 18.2116 8.25194C18.0979 8.25868 17.9882 8.2963 17.8943 8.36075L9.76926 13.9858C9.43238 14.2189 9.43238 14.7801 9.76926 15.0139L17.8943 20.6389C17.988 20.704 18.0977 20.7422 18.2116 20.7493C18.3255 20.7564 18.4392 20.7321 18.5403 20.6792C18.6413 20.6262 18.726 20.5466 18.785 20.4489C18.844 20.3512 18.8751 20.2392 18.8749 20.1251Z" fill="#333333"/>
</svg>
