<svg width="21" height="20" viewBox="0 0 21 20" fill="none" xmlns="http://www.w3.org/2000/svg">
<path d="M16.5375 16.9167L11.6375 12.25C11.2 12.5833 10.6969 12.8472 10.1281 13.0417C9.55937 13.2361 8.95417 13.3333 8.3125 13.3333C6.72292 13.3333 5.37775 12.8089 4.277 11.76C3.17625 10.7111 2.62558 9.43 2.625 7.91667C2.625 6.40278 3.17567 5.12167 4.277 4.07333C5.37833 3.025 6.7235 2.50056 8.3125 2.5C9.90208 2.5 11.2472 3.02444 12.348 4.07333C13.4487 5.12222 13.9994 6.40333 14 7.91667C14 8.52778 13.8979 9.10417 13.6937 9.64583C13.4896 10.1875 13.2125 10.6667 12.8625 11.0833L17.7844 15.7708C17.9448 15.9236 18.025 16.1111 18.025 16.3333C18.025 16.5556 17.9375 16.75 17.7625 16.9167C17.6021 17.0694 17.3979 17.1458 17.15 17.1458C16.9021 17.1458 16.6979 17.0694 16.5375 16.9167ZM8.3125 11.6667C9.40625 11.6667 10.3361 11.3019 11.102 10.5725C11.8679 9.84306 12.2506 8.95778 12.25 7.91667C12.25 6.875 11.867 5.98944 11.1011 5.26C10.3352 4.53056 9.40567 4.16611 8.3125 4.16667C7.21875 4.16667 6.28892 4.53139 5.523 5.26083C4.75708 5.99028 4.37442 6.87556 4.375 7.91667C4.375 8.95833 4.75796 9.84389 5.52387 10.5733C6.28979 11.3028 7.21933 11.6672 8.3125 11.6667Z" fill="white"/>
</svg>
