<svg width="26" height="26" viewBox="0 0 26 26" fill="none" xmlns="http://www.w3.org/2000/svg">
<path d="M22.5611 5.97898C22.4848 5.88772 22.3894 5.81431 22.2817 5.76394C22.1739 5.71357 22.0564 5.68748 21.9375 5.6875H5.55344L5.0568 2.95953C4.98877 2.58511 4.7915 2.24643 4.49936 2.00255C4.20722 1.75867 3.83876 1.62506 3.4582 1.625H1.625C1.40951 1.625 1.20285 1.7106 1.05048 1.86298C0.898102 2.01535 0.8125 2.22201 0.8125 2.4375C0.8125 2.65299 0.898102 2.85965 1.05048 3.01202C1.20285 3.1644 1.40951 3.25 1.625 3.25H3.45312L6.04906 17.4982C6.12553 17.9208 6.31227 18.3156 6.59039 18.6428C6.20653 19.0013 5.92947 19.4592 5.78993 19.9656C5.6504 20.472 5.65383 21.0071 5.79986 21.5116C5.94589 22.0162 6.2288 22.4704 6.61723 22.824C7.00566 23.1776 7.48443 23.4167 8.00044 23.5148C8.51646 23.6128 9.04956 23.5661 9.54063 23.3797C10.0317 23.1933 10.4616 22.8746 10.7825 22.4588C11.1035 22.043 11.303 21.5465 11.359 21.0242C11.415 20.5019 11.3253 19.9744 11.0998 19.5H15.7127C15.531 19.8805 15.4369 20.297 15.4375 20.7188C15.4375 21.2812 15.6043 21.831 15.9168 22.2987C16.2292 22.7663 16.6734 23.1308 17.193 23.346C17.7126 23.5613 18.2844 23.6176 18.836 23.5079C19.3877 23.3981 19.8944 23.1273 20.2921 22.7296C20.6898 22.3319 20.9606 21.8252 21.0704 21.2735C21.1801 20.7219 21.1238 20.1501 20.9085 19.6305C20.6933 19.1109 20.3288 18.6667 19.8612 18.3543C19.3935 18.0418 18.8437 17.875 18.2812 17.875H8.44695C8.25668 17.875 8.07244 17.8082 7.92638 17.6862C7.78031 17.5643 7.68167 17.3949 7.64766 17.2077L7.3257 15.4375H19.107C19.6778 15.4374 20.2305 15.237 20.6687 14.8712C21.1069 14.5054 21.4028 13.9973 21.5048 13.4357L22.7398 6.64523C22.7607 6.52787 22.7556 6.40734 22.7247 6.2922C22.6938 6.17706 22.6379 6.07012 22.5611 5.97898ZM9.75 20.7188C9.75 20.9598 9.67852 21.1954 9.5446 21.3959C9.41069 21.5963 9.22034 21.7525 8.99765 21.8447C8.77495 21.937 8.5299 21.9611 8.29348 21.9141C8.05707 21.8671 7.83991 21.751 7.66946 21.5805C7.49902 21.4101 7.38294 21.1929 7.33592 20.9565C7.28889 20.7201 7.31303 20.4751 7.40527 20.2524C7.49752 20.0297 7.65373 19.8393 7.85415 19.7054C8.05457 19.5715 8.2902 19.5 8.53125 19.5C8.85448 19.5 9.16448 19.6284 9.39304 19.857C9.6216 20.0855 9.75 20.3955 9.75 20.7188ZM19.5 20.7188C19.5 20.9598 19.4285 21.1954 19.2946 21.3959C19.1607 21.5963 18.9703 21.7525 18.7476 21.8447C18.5249 21.937 18.2799 21.9611 18.0435 21.9141C17.8071 21.8671 17.5899 21.751 17.4195 21.5805C17.249 21.4101 17.1329 21.1929 17.0859 20.9565C17.0389 20.7201 17.063 20.4751 17.1553 20.2524C17.2475 20.0297 17.4037 19.8393 17.6041 19.7054C17.8046 19.5715 18.0402 19.5 18.2812 19.5C18.6045 19.5 18.9145 19.6284 19.143 19.857C19.3716 20.0855 19.5 20.3955 19.5 20.7188ZM19.9062 13.1452C19.8721 13.333 19.7731 13.5027 19.6264 13.6247C19.4797 13.7467 19.2947 13.8132 19.1039 13.8125H7.03016L5.84898 7.3125H20.9635L19.9062 13.1452Z" fill="#FF8C1A"/>
</svg>
