<svg width="1442" height="212" viewBox="0 0 1442 212" fill="none" xmlns="http://www.w3.org/2000/svg">
<rect x="1" y="1" width="375" height="210" rx="20" fill="#FF8C1A" stroke="#FF8C1A" stroke-width="2"/>
<rect x="377" y="1" width="1064" height="210" rx="20" fill="#FF8C1A" stroke="#FF8C1A" stroke-width="2"/>
<rect x="372" y="25" width="10" height="161" fill="#FF8C1A"/>
<circle cx="377" cy="24" r="4" fill="white" stroke="#FF8C1A" stroke-width="2"/>
<circle cx="377" cy="39" r="4" fill="white" stroke="#FF8C1A" stroke-width="2"/>
<circle cx="377" cy="54" r="4" fill="white" stroke="#FF8C1A" stroke-width="2"/>
<circle cx="377" cy="69" r="4" fill="white" stroke="#FF8C1A" stroke-width="2"/>
<circle cx="377" cy="84" r="4" fill="white" stroke="#FF8C1A" stroke-width="2"/>
<circle cx="377" cy="99" r="4" fill="white" stroke="#FF8C1A" stroke-width="2"/>
<circle cx="377" cy="114" r="4" fill="white" stroke="#FF8C1A" stroke-width="2"/>
<circle cx="377" cy="129" r="4" fill="white" stroke="#FF8C1A" stroke-width="2"/>
<circle cx="377" cy="144" r="4" fill="white" stroke="#FF8C1A" stroke-width="2"/>
<circle cx="377" cy="159" r="4" fill="white" stroke="#FF8C1A" stroke-width="2"/>
<circle cx="377" cy="174" r="4" fill="white" stroke="#FF8C1A" stroke-width="2"/>
<circle cx="377" cy="189" r="4" fill="white" stroke="#FF8C1A" stroke-width="2"/>
<rect x="1085" y="71" width="319" height="76" fill="white"/>
<path d="M75.2593 129.384V141H36.6673V129.384H49.9153V85.032C49.4033 85.8 48.5393 86.664 47.3233 87.624C46.1713 88.52 44.8273 89.416 43.2913 90.312C41.8193 91.144 40.2833 91.848 38.6833 92.424C37.1473 93 35.7393 93.288 34.4593 93.288V81.384C36.1873 81.384 37.9473 80.936 39.7393 80.04C41.5313 79.144 43.1953 78.12 44.7313 76.968C46.2673 75.816 47.4833 74.76 48.3793 73.8C49.3393 72.776 49.8513 72.232 49.9153 72.168H63.0673V129.384H75.2593ZM106.674 141.96C101.874 141.896 97.6178 140.808 93.9058 138.696C90.1938 136.584 87.0898 133.8 84.5938 130.344C82.0978 126.888 80.2098 123.176 78.9298 119.208C77.7138 115.176 77.1058 111.24 77.1058 107.4C77.1058 103.304 77.7778 99.208 79.1218 95.112C80.4658 91.016 82.4178 87.304 84.9778 83.976C87.6018 80.584 90.7378 77.896 94.3858 75.912C98.0338 73.864 102.13 72.84 106.674 72.84C111.602 72.84 115.89 73.928 119.538 76.104C123.25 78.28 126.354 81.096 128.85 84.552C131.346 88.008 133.202 91.752 134.418 95.784C135.698 99.816 136.338 103.688 136.338 107.4C136.338 111.56 135.666 115.688 134.322 119.784C132.978 123.816 130.994 127.496 128.37 130.824C125.81 134.152 122.706 136.84 119.058 138.888C115.41 140.872 111.282 141.896 106.674 141.96ZM90.4498 107.4C90.5138 110.088 90.8658 112.776 91.5058 115.464C92.2098 118.088 93.2018 120.52 94.4818 122.76C95.8258 125 97.5218 126.824 99.5698 128.232C101.618 129.576 103.986 130.248 106.674 130.248C109.554 130.248 112.018 129.512 114.066 128.04C116.114 126.568 117.778 124.68 119.058 122.376C120.402 120.072 121.394 117.608 122.034 114.984C122.674 112.36 122.994 109.832 122.994 107.4C122.994 104.712 122.642 102.056 121.938 99.432C121.298 96.744 120.274 94.28 118.866 92.04C117.522 89.8 115.826 88.008 113.778 86.664C111.794 85.256 109.426 84.552 106.674 84.552C103.858 84.552 101.426 85.288 99.3778 86.76C97.3298 88.232 95.6338 90.12 94.2898 92.424C93.0098 94.728 92.0498 97.192 91.4098 99.816C90.7698 102.44 90.4498 104.968 90.4498 107.4ZM209.241 129.384V141H161.913V72.84H208.377V84.456H175.161V100.872H203.865V111.624H175.161V129.384H209.241ZM244.145 141.48C238.705 141.48 234.065 140.584 230.225 138.792C226.449 136.936 223.377 134.408 221.009 131.208C218.705 128.008 217.009 124.392 215.921 120.36C214.833 116.264 214.289 112.008 214.289 107.592V72.84H227.537V107.592C227.537 110.408 227.793 113.16 228.305 115.848C228.881 118.472 229.809 120.84 231.089 122.952C232.369 125.064 234.065 126.728 236.177 127.944C238.289 129.16 240.913 129.768 244.049 129.768C247.249 129.768 249.905 129.16 252.017 127.944C254.193 126.664 255.889 124.968 257.105 122.856C258.385 120.744 259.313 118.376 259.889 115.752C260.465 113.064 260.753 110.344 260.753 107.592V72.84H273.905V107.592C273.905 112.264 273.329 116.648 272.177 120.744C271.089 124.84 269.329 128.456 266.897 131.592C264.529 134.664 261.457 137.096 257.681 138.888C253.905 140.616 249.393 141.48 244.145 141.48ZM282.929 141V72.84H313.073C316.209 72.84 319.089 73.48 321.713 74.76C324.401 76.04 326.705 77.768 328.625 79.944C330.609 82.12 332.113 84.552 333.137 87.24C334.225 89.928 334.769 92.68 334.769 95.496C334.769 98.376 334.257 101.16 333.233 103.848C332.273 106.472 330.865 108.776 329.009 110.76C327.153 112.744 324.977 114.28 322.481 115.368L338.033 141H323.441L309.425 118.152H296.177V141H282.929ZM296.177 106.536H312.785C314.449 106.536 315.921 106.056 317.201 105.096C318.481 104.072 319.505 102.728 320.273 101.064C321.041 99.4 321.425 97.544 321.425 95.496C321.425 93.32 320.977 91.432 320.081 89.832C319.185 88.168 318.033 86.856 316.625 85.896C315.281 84.936 313.809 84.456 312.209 84.456H296.177V106.536Z" fill="white"/>
<path d="M420.176 83.112V105H413.552V70.92H418.832L436.448 93.384V70.968H443.072V105H437.552L420.176 83.112ZM473.825 99.192V105H450.161V70.92H473.393V76.728H456.785V84.936H471.137V90.312H456.785V99.192H473.825ZM490.654 71.016H496.798L500.686 82.296L504.622 71.016H510.718L504.862 86.52L509.182 97.368L518.83 70.92H526.03L512.398 105H506.686L500.686 90.696L494.734 105H489.022L475.438 70.92H482.542L492.238 97.368L496.462 86.52L490.654 71.016ZM548.887 79.848C548.663 79.624 548.247 79.32 547.639 78.936C547.063 78.552 546.343 78.184 545.479 77.832C544.647 77.48 543.735 77.176 542.743 76.92C541.751 76.632 540.743 76.488 539.719 76.488C537.927 76.488 536.567 76.824 535.639 77.496C534.743 78.168 534.295 79.112 534.295 80.328C534.295 81.256 534.583 81.992 535.159 82.536C535.735 83.08 536.599 83.544 537.751 83.928C538.903 84.312 540.343 84.728 542.071 85.176C544.311 85.72 546.247 86.392 547.879 87.192C549.543 87.96 550.807 88.984 551.671 90.264C552.567 91.512 553.015 93.176 553.015 95.256C553.015 97.08 552.679 98.648 552.007 99.96C551.335 101.24 550.407 102.28 549.223 103.08C548.039 103.88 546.695 104.472 545.191 104.856C543.687 105.208 542.087 105.384 540.391 105.384C538.695 105.384 536.999 105.208 535.303 104.856C533.607 104.504 531.975 104.008 530.407 103.368C528.839 102.696 527.399 101.896 526.087 100.968L529.015 95.256C529.303 95.544 529.815 95.928 530.551 96.408C531.287 96.856 532.183 97.32 533.239 97.8C534.295 98.248 535.447 98.632 536.695 98.952C537.943 99.272 539.207 99.432 540.487 99.432C542.279 99.432 543.639 99.128 544.567 98.52C545.495 97.912 545.959 97.048 545.959 95.928C545.959 94.904 545.591 94.104 544.855 93.528C544.119 92.952 543.095 92.456 541.783 92.04C540.471 91.592 538.919 91.112 537.127 90.6C534.983 89.992 533.191 89.32 531.751 88.584C530.311 87.816 529.239 86.856 528.535 85.704C527.831 84.552 527.479 83.112 527.479 81.384C527.479 79.048 528.023 77.096 529.111 75.528C530.231 73.928 531.735 72.728 533.623 71.928C535.511 71.096 537.607 70.68 539.911 70.68C541.511 70.68 543.015 70.856 544.423 71.208C545.863 71.56 547.207 72.024 548.455 72.6C549.703 73.176 550.823 73.8 551.815 74.472L548.887 79.848ZM558.021 105V70.92H564.645V99.192H582.021V105H558.021ZM609.716 99.192V105H586.052V70.92H609.284V76.728H592.676V84.936H607.028V90.312H592.676V99.192H609.716ZM640.368 76.728H629.472V105H622.896V76.728H612V70.92H640.368V76.728ZM670.087 76.728H659.191V105H652.615V76.728H641.719V70.92H670.087V76.728ZM697.982 99.192V105H674.318V70.92H697.55V76.728H680.942V84.936H695.294V90.312H680.942V99.192H697.982ZM703.146 105V70.92H718.218C719.786 70.92 721.226 71.24 722.538 71.88C723.882 72.52 725.034 73.384 725.994 74.472C726.986 75.56 727.738 76.776 728.25 78.12C728.794 79.464 729.066 80.84 729.066 82.248C729.066 83.688 728.81 85.08 728.298 86.424C727.818 87.736 727.114 88.888 726.186 89.88C725.258 90.872 724.17 91.64 722.922 92.184L730.698 105H723.402L716.394 93.576H709.77V105H703.146ZM709.77 87.768H718.074C718.906 87.768 719.642 87.528 720.282 87.048C720.922 86.536 721.434 85.864 721.818 85.032C722.202 84.2 722.394 83.272 722.394 82.248C722.394 81.16 722.17 80.216 721.722 79.416C721.274 78.584 720.698 77.928 719.994 77.448C719.322 76.968 718.586 76.728 717.786 76.728H709.77V87.768ZM754.363 70.92H761.083L773.611 105H766.795L763.627 96.504H751.723L748.603 105H741.787L754.363 70.92ZM762.427 91.848L757.723 77.784L752.827 91.848H762.427ZM804.805 96.216C804.805 98.136 804.309 99.752 803.317 101.064C802.325 102.344 800.981 103.32 799.285 103.992C797.621 104.664 795.797 105 793.813 105H777.349V70.92H795.589C797.189 70.92 798.565 71.352 799.717 72.216C800.901 73.048 801.797 74.136 802.405 75.48C803.045 76.792 803.365 78.168 803.365 79.608C803.365 81.24 802.949 82.792 802.117 84.264C801.285 85.736 800.069 86.824 798.469 87.528C800.421 88.104 801.957 89.144 803.077 90.648C804.229 92.152 804.805 94.008 804.805 96.216ZM798.133 94.968C798.133 94.104 797.957 93.336 797.605 92.664C797.253 91.96 796.773 91.416 796.165 91.032C795.589 90.616 794.917 90.408 794.149 90.408H783.973V99.384H793.813C794.613 99.384 795.333 99.192 795.973 98.808C796.645 98.392 797.173 97.848 797.557 97.176C797.941 96.504 798.133 95.768 798.133 94.968ZM783.973 76.584V85.176H792.805C793.541 85.176 794.213 85 794.821 84.648C795.429 84.296 795.909 83.8 796.261 83.16C796.645 82.52 796.837 81.752 796.837 80.856C796.837 79.992 796.661 79.24 796.309 78.6C795.989 77.96 795.541 77.464 794.965 77.112C794.421 76.76 793.797 76.584 793.093 76.584H783.973ZM824.518 105.24C822.022 105.24 819.75 104.76 817.702 103.8C815.686 102.84 813.942 101.544 812.47 99.912C811.03 98.248 809.91 96.392 809.11 94.344C808.31 92.264 807.91 90.136 807.91 87.96C807.91 85.688 808.326 83.528 809.158 81.48C810.022 79.4 811.19 77.56 812.662 75.96C814.166 74.328 815.926 73.048 817.942 72.12C819.99 71.16 822.23 70.68 824.662 70.68C827.126 70.68 829.366 71.176 831.382 72.168C833.43 73.16 835.174 74.488 836.614 76.152C838.054 77.816 839.174 79.672 839.974 81.72C840.774 83.768 841.174 85.88 841.174 88.056C841.174 90.296 840.758 92.456 839.926 94.536C839.094 96.584 837.926 98.424 836.422 100.056C834.95 101.656 833.19 102.92 831.142 103.848C829.126 104.776 826.918 105.24 824.518 105.24ZM814.63 87.96C814.63 89.432 814.854 90.856 815.302 92.232C815.75 93.608 816.39 94.84 817.222 95.928C818.086 96.984 819.126 97.832 820.342 98.472C821.59 99.08 822.998 99.384 824.566 99.384C826.166 99.384 827.59 99.064 828.838 98.424C830.086 97.752 831.126 96.872 831.958 95.784C832.79 94.664 833.414 93.432 833.83 92.088C834.278 90.712 834.502 89.336 834.502 87.96C834.502 86.488 834.262 85.08 833.782 83.736C833.334 82.36 832.678 81.144 831.814 80.088C830.982 79 829.942 78.152 828.694 77.544C827.478 76.904 826.102 76.584 824.566 76.584C822.934 76.584 821.494 76.92 820.246 77.592C819.03 78.232 818.006 79.096 817.174 80.184C816.342 81.272 815.702 82.488 815.254 83.832C814.838 85.176 814.63 86.552 814.63 87.96ZM852.879 83.112V105H846.255V70.92H851.535L869.151 93.384V70.968H875.775V105H870.255L852.879 83.112ZM889.489 83.112V105H882.865V70.92H888.145L905.76 93.384V70.968H912.385V105H906.865L889.489 83.112ZM919.474 105V70.92H926.098V105H919.474ZM956.872 99.192V105H933.208V70.92H956.44V76.728H939.832V84.936H954.184V90.312H939.832V99.192H956.872ZM962.036 105V70.92H977.108C978.676 70.92 980.116 71.24 981.428 71.88C982.772 72.52 983.924 73.384 984.884 74.472C985.876 75.56 986.628 76.776 987.14 78.12C987.684 79.464 987.956 80.84 987.956 82.248C987.956 83.688 987.7 85.08 987.188 86.424C986.708 87.736 986.004 88.888 985.076 89.88C984.148 90.872 983.06 91.64 981.812 92.184L989.588 105H982.292L975.284 93.576H968.66V105H962.036ZM968.66 87.768H976.964C977.796 87.768 978.532 87.528 979.172 87.048C979.812 86.536 980.324 85.864 980.708 85.032C981.092 84.2 981.284 83.272 981.284 82.248C981.284 81.16 981.06 80.216 980.612 79.416C980.164 78.584 979.588 77.928 978.884 77.448C978.212 76.968 977.476 76.728 976.676 76.728H968.66V87.768ZM1017.62 99.192V105H993.958V70.92H1017.19V76.728H1000.58V84.936H1014.93V90.312H1000.58V99.192H1017.62ZM1029.41 83.112V105H1022.79V70.92H1028.07L1045.68 93.384V70.968H1052.31V105H1046.79L1029.41 83.112ZM428 147.24C425.28 147.24 422.96 146.792 421.04 145.896C419.152 144.968 417.616 143.704 416.432 142.104C415.28 140.504 414.432 138.696 413.888 136.68C413.344 134.632 413.072 132.504 413.072 130.296V112.92H419.696V130.296C419.696 131.704 419.824 133.08 420.08 134.424C420.368 135.736 420.832 136.92 421.472 137.976C422.112 139.032 422.96 139.864 424.016 140.472C425.072 141.08 426.384 141.384 427.952 141.384C429.552 141.384 430.88 141.08 431.936 140.472C433.024 139.832 433.872 138.984 434.48 137.928C435.12 136.872 435.584 135.688 435.872 134.376C436.16 133.032 436.304 131.672 436.304 130.296V112.92H442.88V130.296C442.88 132.632 442.592 134.824 442.016 136.872C441.472 138.92 440.592 140.728 439.376 142.296C438.192 143.832 436.656 145.048 434.768 145.944C432.88 146.808 430.624 147.24 428 147.24ZM459.296 125.112V147H452.672V112.92H457.952L475.568 135.384V112.968H482.192V147H476.672L459.296 125.112ZM492.401 147V112.92H504.785C508.497 112.92 511.601 113.688 514.097 115.224C516.593 116.728 518.465 118.776 519.713 121.368C520.961 123.928 521.585 126.776 521.585 129.912C521.585 133.368 520.897 136.376 519.521 138.936C518.145 141.496 516.193 143.48 513.665 144.888C511.169 146.296 508.209 147 504.785 147H492.401ZM514.913 129.912C514.913 127.704 514.513 125.768 513.713 124.104C512.913 122.408 511.761 121.096 510.257 120.168C508.753 119.208 506.929 118.728 504.785 118.728H499.025V141.192H504.785C506.961 141.192 508.801 140.712 510.305 139.752C511.809 138.76 512.945 137.416 513.713 135.72C514.513 133.992 514.913 132.056 514.913 129.912ZM757.532 147.24C755.324 147.24 753.228 146.792 751.244 145.896C749.292 145 747.564 143.768 746.06 142.2C744.588 140.6 743.436 138.744 742.604 136.632C741.772 134.52 741.356 132.232 741.356 129.768C741.356 127.432 741.772 125.24 742.604 123.192C743.436 121.112 744.604 119.288 746.108 117.72C747.612 116.152 749.372 114.92 751.388 114.024C753.404 113.128 755.596 112.68 757.964 112.68C761.164 112.68 763.9 113.368 766.172 114.744C768.476 116.088 770.204 117.88 771.356 120.12L766.412 123.768C765.548 122.072 764.332 120.776 762.764 119.88C761.228 118.984 759.548 118.536 757.724 118.536C756.284 118.536 754.972 118.84 753.788 119.448C752.604 120.056 751.58 120.888 750.716 121.944C749.852 123 749.18 124.216 748.7 125.592C748.252 126.968 748.028 128.424 748.028 129.96C748.028 131.592 748.268 133.096 748.748 134.472C749.26 135.848 749.964 137.048 750.86 138.072C751.788 139.096 752.86 139.912 754.076 140.52C755.292 141.096 756.636 141.384 758.108 141.384C759.836 141.384 761.484 140.936 763.052 140.04C764.652 139.144 766.14 137.832 767.516 136.104V142.632C764.668 145.704 761.34 147.24 757.532 147.24ZM767.036 134.328H760.172V129.48H772.508V147H767.036V134.328ZM804.937 141.192V147H781.273V112.92H804.505V118.728H787.897V126.936H802.249V132.312H787.897V141.192H804.937ZM833.525 121.848C833.301 121.624 832.885 121.32 832.277 120.936C831.701 120.552 830.981 120.184 830.117 119.832C829.285 119.48 828.373 119.176 827.381 118.92C826.389 118.632 825.381 118.488 824.357 118.488C822.565 118.488 821.205 118.824 820.277 119.496C819.381 120.168 818.933 121.112 818.933 122.328C818.933 123.256 819.221 123.992 819.797 124.536C820.373 125.08 821.237 125.544 822.389 125.928C823.541 126.312 824.981 126.728 826.709 127.176C828.949 127.72 830.885 128.392 832.517 129.192C834.181 129.96 835.445 130.984 836.309 132.264C837.205 133.512 837.653 135.176 837.653 137.256C837.653 139.08 837.317 140.648 836.645 141.96C835.973 143.24 835.045 144.28 833.861 145.08C832.677 145.88 831.333 146.472 829.829 146.856C828.325 147.208 826.725 147.384 825.029 147.384C823.333 147.384 821.637 147.208 819.941 146.856C818.245 146.504 816.613 146.008 815.045 145.368C813.477 144.696 812.037 143.896 810.725 142.968L813.653 137.256C813.941 137.544 814.453 137.928 815.189 138.408C815.925 138.856 816.821 139.32 817.877 139.8C818.933 140.248 820.085 140.632 821.333 140.952C822.581 141.272 823.845 141.432 825.125 141.432C826.917 141.432 828.277 141.128 829.205 140.52C830.133 139.912 830.597 139.048 830.597 137.928C830.597 136.904 830.229 136.104 829.493 135.528C828.757 134.952 827.733 134.456 826.421 134.04C825.109 133.592 823.557 133.112 821.765 132.6C819.621 131.992 817.829 131.32 816.389 130.584C814.949 129.816 813.877 128.856 813.173 127.704C812.469 126.552 812.117 125.112 812.117 123.384C812.117 121.048 812.661 119.096 813.749 117.528C814.869 115.928 816.373 114.728 818.261 113.928C820.149 113.096 822.245 112.68 824.549 112.68C826.149 112.68 827.653 112.856 829.061 113.208C830.501 113.56 831.845 114.024 833.093 114.6C834.341 115.176 835.461 115.8 836.453 116.472L833.525 121.848ZM843.715 129.72C843.715 127.64 844.083 125.608 844.819 123.624C845.587 121.608 846.691 119.784 848.131 118.152C849.571 116.488 851.331 115.176 853.411 114.216C855.491 113.224 857.859 112.728 860.515 112.728C863.651 112.728 866.355 113.416 868.627 114.792C870.931 116.168 872.643 117.96 873.763 120.168L868.675 123.672C868.099 122.392 867.347 121.384 866.419 120.648C865.491 119.88 864.499 119.352 863.443 119.064C862.387 118.744 861.347 118.584 860.323 118.584C858.659 118.584 857.203 118.92 855.955 119.592C854.739 120.264 853.715 121.144 852.883 122.232C852.051 123.32 851.427 124.536 851.011 125.88C850.627 127.224 850.435 128.568 850.435 129.912C850.435 131.416 850.675 132.872 851.155 134.28C851.635 135.656 852.307 136.888 853.171 137.976C854.067 139.032 855.123 139.88 856.339 140.52C857.587 141.128 858.947 141.432 860.419 141.432C861.475 141.432 862.547 141.256 863.635 140.904C864.723 140.552 865.731 139.992 866.659 139.224C867.587 138.456 868.307 137.464 868.819 136.248L874.243 139.368C873.571 141.064 872.467 142.504 870.931 143.688C869.427 144.872 867.731 145.768 865.843 146.376C863.955 146.984 862.083 147.288 860.227 147.288C857.795 147.288 855.571 146.792 853.555 145.8C851.539 144.776 849.795 143.432 848.323 141.768C846.883 140.072 845.747 138.184 844.915 136.104C844.115 133.992 843.715 131.864 843.715 129.72ZM910.461 112.92V147H903.885V132.456H888.429V147H881.805V112.92H888.429V126.696H903.885V112.92H910.461ZM944.355 141.192V147H920.691V112.92H943.923V118.728H927.315V126.936H941.667V132.312H927.315V141.192H944.355ZM959.263 125.112V147H952.639V112.92H957.919L975.535 135.384V112.968H982.159V147H976.639L959.263 125.112ZM992.368 147V112.968H998.992V129.144L1013.3 112.92H1020.59L1007.54 128.04L1021.41 147H1013.92L1003.31 132.312L998.992 136.824V147H992.368ZM1053.09 118.728H1042.19V147H1035.61V118.728H1024.72V112.92H1053.09V118.728Z" fill="black"/>
<path d="M563.444 141.192V147H544.148V141.192H550.772V119.016C550.516 119.4 550.084 119.832 549.476 120.312C548.9 120.76 548.228 121.208 547.46 121.656C546.724 122.072 545.956 122.424 545.156 122.712C544.388 123 543.684 123.144 543.044 123.144V117.192C543.908 117.192 544.788 116.968 545.684 116.52C546.58 116.072 547.412 115.56 548.18 114.984C548.948 114.408 549.556 113.88 550.004 113.4C550.484 112.888 550.74 112.616 550.772 112.584H557.348V141.192H563.444ZM584.431 147.48C582.031 147.448 579.903 146.904 578.047 145.848C576.191 144.792 574.639 143.4 573.391 141.672C572.143 139.944 571.199 138.088 570.559 136.104C569.951 134.088 569.647 132.12 569.647 130.2C569.647 128.152 569.983 126.104 570.655 124.056C571.327 122.008 572.303 120.152 573.583 118.488C574.895 116.792 576.463 115.448 578.287 114.456C580.111 113.432 582.159 112.92 584.431 112.92C586.895 112.92 589.039 113.464 590.863 114.552C592.719 115.64 594.271 117.048 595.519 118.776C596.767 120.504 597.695 122.376 598.303 124.392C598.943 126.408 599.263 128.344 599.263 130.2C599.263 132.28 598.927 134.344 598.255 136.392C597.583 138.408 596.591 140.248 595.279 141.912C593.999 143.576 592.447 144.92 590.623 145.944C588.799 146.936 586.735 147.448 584.431 147.48ZM576.319 130.2C576.351 131.544 576.527 132.888 576.847 134.232C577.199 135.544 577.695 136.76 578.335 137.88C579.007 139 579.855 139.912 580.879 140.616C581.903 141.288 583.087 141.624 584.431 141.624C585.871 141.624 587.103 141.256 588.127 140.52C589.151 139.784 589.983 138.84 590.623 137.688C591.295 136.536 591.791 135.304 592.111 133.992C592.431 132.68 592.591 131.416 592.591 130.2C592.591 128.856 592.415 127.528 592.063 126.216C591.743 124.872 591.231 123.64 590.527 122.52C589.855 121.4 589.007 120.504 587.983 119.832C586.991 119.128 585.807 118.776 584.431 118.776C583.023 118.776 581.807 119.144 580.783 119.88C579.759 120.616 578.911 121.56 578.239 122.712C577.599 123.864 577.119 125.096 576.799 126.408C576.479 127.72 576.319 128.984 576.319 130.2ZM646.275 141.192V147H622.611V112.92H645.843V118.728H629.235V126.936H643.587V132.312H629.235V141.192H646.275ZM669.007 147.24C666.287 147.24 663.967 146.792 662.047 145.896C660.159 144.968 658.623 143.704 657.439 142.104C656.287 140.504 655.439 138.696 654.895 136.68C654.351 134.632 654.079 132.504 654.079 130.296V112.92H660.703V130.296C660.703 131.704 660.831 133.08 661.087 134.424C661.375 135.736 661.839 136.92 662.479 137.976C663.119 139.032 663.967 139.864 665.023 140.472C666.079 141.08 667.391 141.384 668.959 141.384C670.559 141.384 671.887 141.08 672.943 140.472C674.031 139.832 674.879 138.984 675.487 137.928C676.127 136.872 676.591 135.688 676.879 134.376C677.167 133.032 677.311 131.672 677.311 130.296V112.92H683.887V130.296C683.887 132.632 683.599 134.824 683.023 136.872C682.479 138.92 681.599 140.728 680.383 142.296C679.199 143.832 677.663 145.048 675.775 145.944C673.887 146.808 671.631 147.24 669.007 147.24ZM693.679 147V112.92H708.751C710.319 112.92 711.759 113.24 713.071 113.88C714.415 114.52 715.567 115.384 716.527 116.472C717.519 117.56 718.271 118.776 718.783 120.12C719.327 121.464 719.599 122.84 719.599 124.248C719.599 125.688 719.343 127.08 718.831 128.424C718.351 129.736 717.647 130.888 716.719 131.88C715.791 132.872 714.703 133.64 713.455 134.184L721.231 147H713.935L706.927 135.576H700.303V147H693.679ZM700.303 129.768H708.607C709.439 129.768 710.175 129.528 710.815 129.048C711.455 128.536 711.967 127.864 712.351 127.032C712.735 126.2 712.927 125.272 712.927 124.248C712.927 123.16 712.703 122.216 712.255 121.416C711.807 120.584 711.231 119.928 710.527 119.448C709.855 118.968 709.119 118.728 708.319 118.728H700.303V129.768Z" fill="white"/>
<path d="M1099.37 115.78C1099.68 115.996 1100.23 116.26 1101.02 116.572C1101.82 116.86 1102.75 117.004 1103.83 117.004C1104.77 117.004 1105.54 116.848 1106.14 116.536C1106.74 116.2 1107.19 115.708 1107.5 115.06C1107.84 114.412 1108.06 113.572 1108.15 112.54C1108.27 111.508 1108.33 110.272 1108.33 108.832V95.44H1113.3V108.436C1113.3 110.356 1113.19 112.108 1112.98 113.692C1112.76 115.276 1112.34 116.644 1111.72 117.796C1111.09 118.948 1110.14 119.836 1108.87 120.46C1107.62 121.084 1105.96 121.396 1103.87 121.396C1102.72 121.396 1101.68 121.264 1100.77 121C1099.86 120.736 1099.02 120.34 1098.25 119.812L1099.37 115.78ZM1134.48 116.644V121H1116.73V95.44H1134.15V99.796H1121.7V105.952H1132.46V109.984H1121.7V116.644H1134.48ZM1155.84 99.796H1147.67V121H1142.74V99.796H1134.57V95.44H1155.84V99.796ZM1155.81 117.256L1170.07 99.796H1156.21V95.44H1175.97V99.184L1162.19 116.644H1176.08V121H1155.81V117.256ZM1197.46 99.796H1189.29V121H1184.36V99.796H1176.19V95.44H1197.46V99.796ZM1210.81 95.44H1215.85L1225.25 121H1220.14L1217.76 114.628H1208.83L1206.49 121H1201.38L1210.81 95.44ZM1216.86 111.136L1213.33 100.588L1209.66 111.136H1216.86ZM1231.4 104.584V121H1226.43V95.44H1230.39L1243.61 112.288V95.476H1248.57V121H1244.43L1231.4 104.584ZM1273.11 121V104.224L1266.56 116.716H1263.79L1257.24 104.224V121H1252.27V95.44H1257.6L1265.16 109.984L1272.79 95.44H1278.08V121H1273.11ZM1299.55 116.644V121H1281.8V95.44H1299.22V99.796H1286.77V105.952H1297.53V109.984H1286.77V116.644H1299.55ZM1301.8 121V95.44H1306.77V116.644H1319.8V121H1301.8ZM1321.2 121V95.44H1330.49C1333.28 95.44 1335.6 96.016 1337.48 97.168C1339.35 98.296 1340.75 99.832 1341.69 101.776C1342.62 103.696 1343.09 105.832 1343.09 108.184C1343.09 110.776 1342.58 113.032 1341.54 114.952C1340.51 116.872 1339.05 118.36 1337.15 119.416C1335.28 120.472 1333.06 121 1330.49 121H1321.2ZM1338.09 108.184C1338.09 106.528 1337.79 105.076 1337.19 103.828C1336.59 102.556 1335.72 101.572 1334.6 100.876C1333.47 100.156 1332.1 99.796 1330.49 99.796H1326.17V116.644H1330.49C1332.12 116.644 1333.5 116.284 1334.63 115.564C1335.76 114.82 1336.61 113.812 1337.19 112.54C1337.79 111.244 1338.09 109.792 1338.09 108.184ZM1363.1 116.644V121H1345.35V95.44H1362.78V99.796H1350.32V105.952H1361.08V109.984H1350.32V116.644H1363.1ZM1370.32 104.584V121H1365.35V95.44H1369.31L1382.53 112.288V95.476H1387.49V121H1383.35L1370.32 104.584Z" fill="#FF8C1A"/>
</svg>
