<svg width="40" height="32" viewBox="0 0 40 32" fill="none" xmlns="http://www.w3.org/2000/svg">
<path d="M6 2V6H15H16V8H15H1H0V6H1H4V2V0H6H24H26V2V6H31H31.4375L31.75 6.375L37.75 13.375L38 13.6875V14V24H39H40V26H39H36C36 29.3125 33.3125 32 30 32C26.6875 32 24 29.3125 24 26H16C16 29.3125 13.3125 32 10 32C6.6875 32 4 29.3125 4 26V24V18H6V21.5625C7.0625 20.625 8.4375 20 10 20C12.5625 20 14.8125 21.6875 15.625 24H24V2H6ZM26 14H35.625L30.5 8H26V14ZM26 16V21.5625C27.0625 20.625 28.4375 20 30 20C32.5625 20 34.8125 21.6875 35.625 24H36V16H26ZM6 26C6 27.4375 6.75 28.75 8 29.5C9.1875 30.1875 10.75 30.1875 12 29.5C13.1875 28.75 14 27.4375 14 26C14 24.625 13.1875 23.3125 12 22.5625C10.75 21.875 9.1875 21.875 8 22.5625C6.75 23.3125 6 24.625 6 26ZM30 22C28.5625 22 27.25 22.8125 26.5 24C25.8125 25.25 25.8125 26.8125 26.5 28C27.25 29.25 28.5625 30 30 30C31.375 30 32.6875 29.25 33.4375 28C34.125 26.8125 34.125 25.25 33.4375 24C32.6875 22.8125 31.375 22 30 22ZM3 10H17H18V12H17H3H2V10H3ZM1 14H15H16V16H15H1H0V14H1Z" fill="#03A1A1"/>
</svg>
