<svg width="24" height="24" viewBox="0 0 24 24" fill="none" xmlns="http://www.w3.org/2000/svg">
<path d="M11.4669 2C14.6509 2 17.2319 4.566 17.2319 7.732C17.2322 8.56158 17.0517 9.38126 16.7028 10.1339C16.3539 10.8866 15.8451 11.5541 15.2119 12.09C15.4819 12.224 15.7279 12.358 15.9499 12.493C16.4279 12.783 16.9239 13.143 17.4399 13.572C17.5095 13.6298 17.567 13.7007 17.609 13.7808C17.651 13.8609 17.6768 13.9485 17.6848 14.0386C17.6928 14.1287 17.6828 14.2194 17.6556 14.3057C17.6283 14.3919 17.5842 14.4719 17.5259 14.541C17.4077 14.6813 17.2388 14.769 17.0561 14.7852C16.8734 14.8013 16.6918 14.7444 16.5509 14.627C16.1345 14.2748 15.6926 13.9539 15.2289 13.667C14.7773 13.4006 14.3078 13.1658 13.8239 12.964C13.0822 13.295 12.279 13.4654 11.4669 13.464C10.5716 13.4653 9.68826 13.2582 8.88688 12.859L8.84488 12.879C6.89488 13.635 5.47188 14.753 4.55288 16.237C3.63088 17.726 3.25388 19.39 3.42288 21.251C3.4307 21.3412 3.42065 21.4321 3.39331 21.5185C3.36597 21.6048 3.32188 21.6849 3.26355 21.7542C3.20522 21.8235 3.13381 21.8806 3.05339 21.9223C2.97297 21.9639 2.88513 21.9893 2.79488 21.997C2.61284 22.0137 2.43162 21.9575 2.291 21.8406C2.15039 21.7238 2.06187 21.556 2.04488 21.374C1.84988 19.222 2.29388 17.261 3.37488 15.516C4.32488 13.98 5.72188 12.786 7.54888 11.934C6.96647 11.4 6.50157 10.7507 6.18376 10.0272C5.86595 9.30381 5.70218 8.52215 5.70288 7.732C5.70288 4.566 8.28288 2 11.4669 2ZM18.8679 14.693C19.2479 14.693 19.5559 15.003 19.5559 15.384V17.136H21.3079C21.3986 17.1357 21.4884 17.1534 21.5723 17.1879C21.6562 17.2223 21.7325 17.273 21.7967 17.337C21.861 17.401 21.912 17.4771 21.9469 17.5608C21.9817 17.6445 21.9998 17.7343 21.9999 17.825C21.9991 18.0078 21.9258 18.1829 21.796 18.3117C21.6663 18.4405 21.4907 18.5125 21.3079 18.512H19.5559V20.265C19.5561 20.4478 19.4838 20.6233 19.3548 20.7528C19.2259 20.8824 19.0507 20.9555 18.8679 20.956C18.6851 20.9555 18.5099 20.8824 18.3809 20.7528C18.2519 20.6233 18.1796 20.4478 18.1799 20.265V18.512H16.4279C16.2451 18.5125 16.0695 18.4405 15.9397 18.3117C15.81 18.1829 15.7367 18.0078 15.7359 17.825C15.7359 17.445 16.0459 17.137 16.4279 17.137L18.1799 17.136V15.384C18.1796 15.2012 18.2519 15.0257 18.3809 14.8962C18.5099 14.7666 18.6851 14.6935 18.8679 14.693ZM11.4679 3.376C9.04788 3.376 7.08588 5.326 7.08588 7.732C7.08588 10.138 9.04788 12.089 11.4669 12.089C13.8869 12.089 15.8479 10.139 15.8479 7.732C15.8479 5.326 13.8869 3.376 11.4679 3.376Z" fill="#FF8C1A"/>
</svg>
