<svg width="24" height="24" viewBox="0 0 24 24" fill="none" xmlns="http://www.w3.org/2000/svg">
<path d="M21.4911 20.4316C20.0867 17.9066 17.9223 16.096 15.3964 15.2377C16.6458 14.4642 17.6165 13.2856 18.1595 11.8829C18.7024 10.4802 18.7876 8.93097 18.4019 7.47306C18.0162 6.01515 17.1809 4.72922 16.0244 3.81274C14.8679 2.89626 13.454 2.3999 12 2.3999C10.546 2.3999 9.13211 2.89626 7.97559 3.81274C6.81907 4.72922 5.98383 6.01515 5.59812 7.47306C5.21241 8.93097 5.29756 10.4802 5.84051 11.8829C6.38346 13.2856 7.35417 14.4642 8.60358 15.2377C6.07771 16.095 3.91334 17.9056 2.50885 20.4316C2.45734 20.519 2.42318 20.6161 2.40837 20.7174C2.39357 20.8187 2.39842 20.922 2.42264 21.0214C2.44687 21.1207 2.48997 21.2139 2.54941 21.2956C2.60886 21.3773 2.68343 21.4458 2.76874 21.497C2.85405 21.5483 2.94836 21.5812 3.04612 21.594C3.14387 21.6067 3.24309 21.5989 3.33791 21.5711C3.43273 21.5433 3.52124 21.4961 3.59821 21.4321C3.67519 21.3682 3.73906 21.2888 3.78607 21.1988C5.52347 18.0763 8.59436 16.212 12 16.212C15.4056 16.212 18.4765 18.0763 20.2139 21.1988C20.2609 21.2888 20.3248 21.3682 20.4018 21.4321C20.4787 21.4961 20.5673 21.5433 20.6621 21.5711C20.7569 21.5989 20.8561 21.6067 20.9539 21.594C21.0516 21.5812 21.1459 21.5483 21.2312 21.497C21.3166 21.4458 21.3911 21.3773 21.4506 21.2956C21.51 21.2139 21.5531 21.1207 21.5773 21.0214C21.6016 20.922 21.6064 20.8187 21.5916 20.7174C21.5768 20.6161 21.5426 20.519 21.4911 20.4316ZM6.83575 9.30728C6.83575 8.24512 7.13862 7.20681 7.70608 6.32366C8.27353 5.4405 9.08008 4.75217 10.0237 4.3457C10.9674 3.93923 12.0057 3.83288 13.0075 4.04009C14.0093 4.24731 14.9294 4.75879 15.6517 5.50985C16.3739 6.26091 16.8657 7.21782 17.065 8.25957C17.2643 9.30132 17.162 10.3811 16.7711 11.3624C16.3803 12.3437 15.7184 13.1825 14.8691 13.7726C14.0198 14.3627 13.0214 14.6776 12 14.6776C10.6308 14.6761 9.3181 14.1098 8.34994 13.103C7.38177 12.0962 6.83721 10.7311 6.83575 9.30728Z" fill="#FF8C1A"/>
</svg>
