<svg width="28" height="33" viewBox="0 0 28 33" fill="none" xmlns="http://www.w3.org/2000/svg">
<path d="M14 3C11.8125 3 9.875 4.1875 8.75 6C7.6875 7.875 7.6875 10.1875 8.75 12C9.875 13.875 11.8125 15 14 15C16.125 15 18.0625 13.875 19.1875 12C20.25 10.1875 20.25 7.875 19.1875 6C18.0625 4.1875 16.125 3 14 3ZM6 9C6 6.1875 7.5 3.5625 10 2.125C12.4375 0.6875 15.5 0.6875 18 2.125C20.4375 3.5625 22 6.1875 22 9C22 11.875 20.4375 14.5 18 15.9375C15.5 17.375 12.4375 17.375 10 15.9375C7.5 14.5 6 11.875 6 9ZM12 20H14H16H17V22H16H15.375L16.625 25.75L19 21H24L27.3125 31L28 33H25.875H15.1875H12.75H2.0625H0L0.625 31L4 21H9L11.3125 25.75L12.5625 22H12H11V20H12ZM12.875 28.8125L14 31L15.0625 28.8125L15.3125 28.3125L14 24.1875L12.625 28.3125L12.875 28.8125ZM16.1875 31H25.1875L22.5625 23H20.1875L16.1875 31ZM11.75 31L7.75 23H5.4375L2.75 31H11.75Z" fill="#0F83C6"/>
</svg>
